<svg width="786" height="377" viewBox="0 0 786 377" fill="none" xmlns="http://www.w3.org/2000/svg">
<path fill-rule="evenodd" clip-rule="evenodd" d="M53.5412 131.692C69.4023 116.883 90.2691 109.613 114.012 109.613L114.012 81.8551C84.4545 81.8551 56.4251 91.023 34.5975 111.403C13.0566 131.516 0.759437 159.007 0.759438 187.89C0.75944 216.773 13.0566 244.264 34.5975 264.376C49.2546 278.062 67.3768 287.582 86.9049 292.263L93.3749 265.269C78.3289 261.663 64.5532 254.369 53.5412 244.087C37.3934 229.01 28.5173 208.773 28.5173 187.89C28.5173 167.007 37.3934 146.77 53.5412 131.692Z" fill="#FB9246"/>
<path fill-rule="evenodd" clip-rule="evenodd" d="M96.2491 283.377C96.2491 264.675 111.411 249.513 130.114 249.513C148.817 249.513 163.978 264.675 163.978 283.377C163.978 302.08 148.817 317.242 130.114 317.242C111.411 317.242 96.2491 302.08 96.2491 283.377ZM68.4912 283.377C68.4912 249.344 96.0806 221.755 130.114 221.755C164.147 221.755 191.736 249.344 191.736 283.377C191.736 317.411 164.147 345 130.114 345C96.0806 345 68.4912 317.411 68.4912 283.377Z" fill="#54C8ED"/>
<path d="M148.881 158.467C150.688 158.467 152.382 157.587 153.422 156.11L189.156 105.317C193.201 99.5684 193.201 91.8994 189.156 86.1507L153.422 35.3582C152.382 33.8804 150.688 33.001 148.881 33.001L116.198 33.001C115.289 33.001 114.765 34.0324 115.301 34.7661L157.423 92.4604C158.847 94.4105 158.847 97.0573 157.423 99.0075L115.301 156.702C114.765 157.435 115.289 158.467 116.198 158.467L148.881 158.467Z" fill="#FB9246"/>
<path d="M278.17 89.6L302.895 131H284.84L269.2 104.78L253.56 131H235.62L260.23 89.715L236.885 50.5H254.825L269.2 74.65L283.575 50.5H301.515L278.17 89.6ZM386.54 131H369.29L364.46 116.51H332.375L327.545 131H310.41L338.585 50.5H358.25L386.54 131ZM348.475 68.785L337.435 101.675H359.515L348.475 68.785ZM432.077 89.6L463.012 131H444.727L415.977 93.28V131H400.107V50.5H415.977V86.035L443.577 50.5H461.862L432.077 89.6ZM547.63 131H530.38L525.55 116.51H493.465L488.635 131H471.5L499.675 50.5H519.34L547.63 131ZM509.565 68.785L498.525 101.675H520.605L509.565 68.785ZM549.377 50.5H608.602V65.68H586.867V131H570.997V65.68H549.377V50.5ZM686.342 120.535C678.215 128.585 668.325 132.61 656.672 132.61C645.019 132.61 635.129 128.585 627.002 120.535C618.952 112.332 614.927 102.403 614.927 90.75C614.927 79.02 618.952 69.13 627.002 61.08C635.129 52.9533 645.019 48.89 656.672 48.89C668.325 48.89 678.215 52.9533 686.342 61.08C694.469 69.13 698.532 79.02 698.532 90.75C698.532 102.48 694.469 112.408 686.342 120.535ZM638.157 109.725C643.064 114.632 649.235 117.085 656.672 117.085C664.109 117.085 670.28 114.632 675.187 109.725C680.17 104.742 682.662 98.4167 682.662 90.75C682.662 83.0833 680.17 76.7583 675.187 71.775C670.204 66.7917 664.032 64.3 656.672 64.3C649.312 64.3 643.14 66.7917 638.157 71.775C633.174 76.7583 630.682 83.0833 630.682 90.75C630.682 98.4167 633.174 104.742 638.157 109.725ZM761.206 82.47V50.5H776.961V131H761.206V97.65H731.306V131H715.436V50.5H731.306V82.47H761.206Z" fill="#5D6773"/>
<path d="M355.725 331H328.125V245.6L268.125 331H247.125V191H274.725V276.6L334.725 191H355.725V331ZM499.295 191V304.6H514.295V357.8H486.695V331H409.295V357.8H381.695V304.6H395.295C403.029 293.933 406.895 278.133 406.895 257.2V191H499.295ZM424.895 304.6H471.695V216.8H434.495V257.6C434.495 278 431.295 293.667 424.895 304.6ZM570.311 273.2V304.6H629.311V331H542.711V191H628.311V217.4H570.311V247.2H623.311V273.2H570.311ZM741.966 178.2H683.966V155.8H741.966V178.2ZM767.366 331H739.766V245.6L679.766 331H658.766V191H686.366V276.6L746.366 191H767.366V331Z" fill="#54C8ED"/>
</svg>
