<svg width="891" height="540" viewBox="0 0 891 540" fill="none" xmlns="http://www.w3.org/2000/svg">
<path d="M44.1498 329.427L44.1498 301.127" stroke="#54C8ED" stroke-width="3.24894"/>
<path d="M30 315.277H58.2996" stroke="#54C8ED" stroke-width="3.24894"/>
<path d="M399.23 58.7061L399.23 30.4064" stroke="#54C8ED" stroke-width="3.24894"/>
<path d="M413.38 44.5562L385.08 44.5562" stroke="#54C8ED" stroke-width="3.24894"/>
<path d="M843.679 211.015L843.679 239.315" stroke="#54C8ED" stroke-width="3.24894"/>
<path d="M857.829 225.165H829.529" stroke="#54C8ED" stroke-width="3.24894"/>
<path d="M488.47 481.736L488.47 510.036" stroke="#54C8ED" stroke-width="3.24894"/>
<path d="M474.321 495.886H502.62" stroke="#54C8ED" stroke-width="3.24894"/>
<path d="M311.871 509.906L311.871 481.607" stroke="#54C8ED" stroke-width="3.24894"/>
<path d="M297.721 495.757H326.021" stroke="#54C8ED" stroke-width="3.24894"/>
<path d="M132.578 239.186L132.578 210.887" stroke="#54C8ED" stroke-width="3.24894"/>
<path d="M146.728 225.037H118.428" stroke="#54C8ED" stroke-width="3.24894"/>
<path d="M575.829 30.5352L575.829 58.8348" stroke="#54C8ED" stroke-width="3.24894"/>
<path d="M589.979 44.6851L561.679 44.6851" stroke="#54C8ED" stroke-width="3.24894"/>
<path d="M755.251 301.255L755.251 329.555" stroke="#54C8ED" stroke-width="3.24894"/>
<path d="M741.101 315.405H769.401" stroke="#54C8ED" stroke-width="3.24894"/>
<path d="M132.449 329.427L132.449 301.127" stroke="#54C8ED" stroke-width="3.24894"/>
<path d="M118.3 315.277H146.599" stroke="#54C8ED" stroke-width="3.24894"/>
<path d="M310.93 58.7061L310.93 30.4064" stroke="#54C8ED" stroke-width="3.24894"/>
<path d="M325.08 44.5562L296.781 44.5562" stroke="#54C8ED" stroke-width="3.24894"/>
<path d="M755.38 211.015L755.38 239.315" stroke="#54C8ED" stroke-width="3.24894"/>
<path d="M769.529 225.165H741.23" stroke="#54C8ED" stroke-width="3.24894"/>
<path d="M576.77 481.736L576.77 510.036" stroke="#54C8ED" stroke-width="3.24894"/>
<path d="M562.62 495.886H590.92" stroke="#54C8ED" stroke-width="3.24894"/>
<path d="M400.171 509.906L400.171 481.607" stroke="#54C8ED" stroke-width="3.24894"/>
<path d="M386.021 495.757H414.321" stroke="#54C8ED" stroke-width="3.24894"/>
<path d="M44.2784 239.186L44.2784 210.887" stroke="#54C8ED" stroke-width="3.24894"/>
<path d="M58.4282 225.037H30.1286" stroke="#54C8ED" stroke-width="3.24894"/>
<path d="M487.53 30.5352L487.53 58.8348" stroke="#54C8ED" stroke-width="3.24894"/>
<path d="M501.679 44.6851L473.38 44.6851" stroke="#54C8ED" stroke-width="3.24894"/>
<path d="M843.551 301.255L843.551 329.555" stroke="#54C8ED" stroke-width="3.24894"/>
<path d="M829.401 315.405H857.701" stroke="#54C8ED" stroke-width="3.24894"/>
<path d="M385.08 315.277H413.38" stroke="#54C8ED" stroke-width="3.24894"/>
<path d="M399.23 301.127L399.23 329.427" stroke="#54C8ED" stroke-width="3.24894"/>
<path d="M58.2996 44.5564H30" stroke="#54C8ED" stroke-width="3.24894"/>
<path d="M44.1498 30.4065L44.1498 58.7061" stroke="#54C8ED" stroke-width="3.24894"/>
<path d="M502.749 225.165H474.449" stroke="#54C8ED" stroke-width="3.24894"/>
<path d="M488.599 239.315L488.599 211.015" stroke="#54C8ED" stroke-width="3.24894"/>
<path d="M829.401 495.885H857.7" stroke="#54C8ED" stroke-width="3.24894"/>
<path d="M843.551 510.035L843.551 481.736" stroke="#54C8ED" stroke-width="3.24894"/>
<path d="M236.781 405.517H208.481" stroke="#54C8ED" stroke-width="3.24894"/>
<path d="M222.631 391.367L222.631 419.666" stroke="#54C8ED" stroke-width="3.24894"/>
<path d="M208.481 134.796H236.781" stroke="#54C8ED" stroke-width="3.24894"/>
<path d="M222.631 120.646L222.631 148.946" stroke="#54C8ED" stroke-width="3.24894"/>
<path d="M653.743 134.925H682.042" stroke="#54C8ED" stroke-width="3.24894"/>
<path d="M667.892 149.075L667.892 120.775" stroke="#54C8ED" stroke-width="3.24894"/>
<path d="M682.042 405.645H653.743" stroke="#54C8ED" stroke-width="3.24894"/>
<path d="M667.892 419.795L667.892 391.495" stroke="#54C8ED" stroke-width="3.24894"/>
<circle cx="44.6202" cy="405.581" r="12.9958" stroke="#54C8ED" stroke-width="3.24894"/>
<circle r="12.9958" transform="matrix(-1 0 0 1 400.641 134.86)" stroke="#54C8ED" stroke-width="3.24894"/>
<circle cx="845.903" cy="134.86" r="12.9958" transform="rotate(-180 845.903 134.86)" stroke="#54C8ED" stroke-width="3.24894"/>
<circle r="12.9958" transform="matrix(1 0 0 -1 489.882 405.581)" stroke="#54C8ED" stroke-width="3.24894"/>
<circle cx="133.861" cy="405.581" r="12.9958" stroke="#54C8ED" stroke-width="3.24894"/>
<circle r="12.9958" transform="matrix(-1 0 0 1 311.401 134.86)" stroke="#54C8ED" stroke-width="3.24894"/>
<circle cx="756.662" cy="134.86" r="12.9958" transform="rotate(-180 756.662 134.86)" stroke="#54C8ED" stroke-width="3.24894"/>
<circle r="12.9958" transform="matrix(1 0 0 -1 579.122 405.581)" stroke="#54C8ED" stroke-width="3.24894"/>
<circle cx="310.46" cy="315.341" r="12.9958" transform="rotate(90 310.46 315.341)" stroke="#54C8ED" stroke-width="3.24894"/>
<circle r="12.9958" transform="matrix(4.37114e-08 1 1 -4.37114e-08 132.92 44.6205)" stroke="#54C8ED" stroke-width="3.24894"/>
<circle cx="577.369" cy="225.1" r="12.9958" transform="rotate(-90 577.369 225.1)" stroke="#54C8ED" stroke-width="3.24894"/>
<circle r="12.9958" transform="matrix(-4.37114e-08 -1 -1 4.37114e-08 754.78 495.821)" stroke="#54C8ED" stroke-width="3.24894"/>
<circle r="12.9958" transform="matrix(4.37114e-08 1 1 -4.37114e-08 311.401 405.581)" stroke="#54C8ED" stroke-width="3.24894"/>
<circle cx="133.861" cy="134.86" r="12.9958" transform="rotate(90 133.861 134.86)" stroke="#54C8ED" stroke-width="3.24894"/>
<circle r="12.9958" transform="matrix(-4.37114e-08 -1 -1 4.37114e-08 579.122 134.86)" stroke="#54C8ED" stroke-width="3.24894"/>
<circle cx="756.662" cy="405.581" r="12.9958" transform="rotate(-90 756.662 405.581)" stroke="#54C8ED" stroke-width="3.24894"/>
<path d="M44.6202 510.441L44.6202 481.201M44.6202 481.201L30 496.097M44.6202 481.201L59.2404 496.097" stroke="#FC9246" stroke-width="3.24894"/>
<path d="M399.829 239.721L399.829 210.48M399.829 210.48L414.449 225.376M399.829 210.48L385.209 225.376" stroke="#FC9246" stroke-width="3.24894"/>
<path d="M843.08 30L843.08 59.2404M843.08 59.2404L857.7 44.3444M843.08 59.2404L828.46 44.3444" stroke="#FC9246" stroke-width="3.24894"/>
<path d="M488 300.721L488 329.961M488 329.961L473.38 315.065M488 329.961L502.62 315.065" stroke="#FC9246" stroke-width="3.24894"/>
<path d="M133.861 510.441L133.861 481.201M133.861 481.201L119.24 496.097M133.861 481.201L148.481 496.097" stroke="#FC9246" stroke-width="3.24894"/>
<path d="M310.589 239.721L310.589 210.48M310.589 210.48L325.209 225.376M310.589 210.48L295.968 225.376" stroke="#FC9246" stroke-width="3.24894"/>
<path d="M753.84 30L753.84 59.2404M753.84 59.2404L768.46 44.3444M753.84 59.2404L739.22 44.3444" stroke="#FC9246" stroke-width="3.24894"/>
<path d="M577.24 300.721L577.24 329.961M577.24 329.961L562.62 315.065M577.24 329.961L591.861 315.065" stroke="#FC9246" stroke-width="3.24894"/>
<path d="M208.481 495.821H237.721M237.721 495.821L222.825 481.201M237.721 495.821L222.825 510.442" stroke="#FC9246" stroke-width="3.24894"/>
<path d="M235.968 225.101H206.728M206.728 225.101L221.624 210.48M206.728 225.101L221.624 239.721" stroke="#FC9246" stroke-width="3.24894"/>
<path d="M679.219 44.6203L649.979 44.6203M649.979 44.6203L664.875 59.2405M649.979 44.6203L664.875 30" stroke="#FC9246" stroke-width="3.24894"/>
<path d="M651.861 315.341H681.101M681.101 315.341L666.205 329.961M681.101 315.341L666.205 300.72" stroke="#FC9246" stroke-width="3.24894"/>
<path d="M206.599 315.341L235.84 315.341M235.84 315.341L220.943 300.721M235.84 315.341L220.943 329.961" stroke="#FC9246" stroke-width="3.24894"/>
<path d="M236.781 44.6205L207.54 44.6205M207.54 44.6205L222.436 30.0002M207.54 44.6205L222.436 59.2407" stroke="#FC9246" stroke-width="3.24894"/>
<path d="M681.23 225.1L651.989 225.1M651.989 225.1L666.885 239.721M651.989 225.1L666.885 210.48" stroke="#FC9246" stroke-width="3.24894"/>
<path d="M650.92 495.821L680.16 495.821M680.16 495.821L665.264 510.441M680.16 495.821L665.264 481.201" stroke="#FC9246" stroke-width="3.24894"/>
<path d="M415.262 405.581L386.021 405.581M386.021 405.581L400.917 390.961M386.021 405.581L400.917 420.201" stroke="#FC9246" stroke-width="3.24894"/>
<path d="M30 134.86L59.2404 134.86M59.2404 134.86L44.3444 120.24M59.2404 134.86L44.3444 149.481" stroke="#FC9246" stroke-width="3.24894"/>
<path d="M475.262 134.86L504.502 134.86M504.502 134.86L489.606 149.48M504.502 134.86L489.606 120.24" stroke="#FC9246" stroke-width="3.24894"/>
<path d="M860.523 405.581L831.283 405.581M831.283 405.581L846.179 420.201M831.283 405.581L846.179 390.961" stroke="#FC9246" stroke-width="3.24894"/>
</svg>
