<svg width="635" height="369" viewBox="0 0 635 369" fill="none" xmlns="http://www.w3.org/2000/svg">
<path d="M11.793 229.386L11.793 207.801" stroke="#54C8ED" stroke-width="2.47811"/>
<path d="M1 218.594H22.5854" stroke="#54C8ED" stroke-width="2.47811"/>
<path d="M282.628 22.8955L282.628 1.31013" stroke="#54C8ED" stroke-width="2.47811"/>
<path d="M293.421 12.1028L271.836 12.1028" stroke="#54C8ED" stroke-width="2.47811"/>
<path d="M621.629 139.068L621.629 160.654" stroke="#54C8ED" stroke-width="2.47811"/>
<path d="M632.422 149.861H610.837" stroke="#54C8ED" stroke-width="2.47811"/>
<path d="M350.695 345.559L350.695 367.144" stroke="#54C8ED" stroke-width="2.47811"/>
<path d="M339.902 356.352H361.488" stroke="#54C8ED" stroke-width="2.47811"/>
<path d="M215.996 367.046L215.996 345.461" stroke="#54C8ED" stroke-width="2.47811"/>
<path d="M205.203 356.253H226.788" stroke="#54C8ED" stroke-width="2.47811"/>
<path d="M79.2402 160.556L79.2402 138.971" stroke="#54C8ED" stroke-width="2.47811"/>
<path d="M90.0332 149.763H68.4478" stroke="#54C8ED" stroke-width="2.47811"/>
<path d="M417.328 1.40771L417.328 22.9931" stroke="#54C8ED" stroke-width="2.47811"/>
<path d="M428.121 12.2004L406.536 12.2004" stroke="#54C8ED" stroke-width="2.47811"/>
<path d="M554.182 207.898L554.182 229.483" stroke="#54C8ED" stroke-width="2.47811"/>
<path d="M543.389 218.691H564.974" stroke="#54C8ED" stroke-width="2.47811"/>
<path d="M79.1426 229.386L79.1426 207.801" stroke="#54C8ED" stroke-width="2.47811"/>
<path d="M68.3496 218.594H89.935" stroke="#54C8ED" stroke-width="2.47811"/>
<path d="M215.277 22.8955L215.277 1.31013" stroke="#54C8ED" stroke-width="2.47811"/>
<path d="M226.07 12.1028L204.485 12.1028" stroke="#54C8ED" stroke-width="2.47811"/>
<path d="M554.279 139.068L554.279 160.654" stroke="#54C8ED" stroke-width="2.47811"/>
<path d="M565.072 149.861H543.487" stroke="#54C8ED" stroke-width="2.47811"/>
<path d="M418.046 345.559L418.046 367.144" stroke="#54C8ED" stroke-width="2.47811"/>
<path d="M407.253 356.352H428.838" stroke="#54C8ED" stroke-width="2.47811"/>
<path d="M283.346 367.046L283.346 345.461" stroke="#54C8ED" stroke-width="2.47811"/>
<path d="M272.553 356.253H294.138" stroke="#54C8ED" stroke-width="2.47811"/>
<path d="M11.8906 160.556L11.8906 138.971" stroke="#54C8ED" stroke-width="2.47811"/>
<path d="M22.6836 149.763H1.09822" stroke="#54C8ED" stroke-width="2.47811"/>
<path d="M349.978 1.40771L349.978 22.9931" stroke="#54C8ED" stroke-width="2.47811"/>
<path d="M360.771 12.2004L339.185 12.2004" stroke="#54C8ED" stroke-width="2.47811"/>
<path d="M621.531 207.898L621.531 229.483" stroke="#54C8ED" stroke-width="2.47811"/>
<path d="M610.738 218.691H632.324" stroke="#54C8ED" stroke-width="2.47811"/>
<path d="M271.836 218.593H293.421" stroke="#54C8ED" stroke-width="2.47811"/>
<path d="M282.628 207.801L282.628 229.386" stroke="#54C8ED" stroke-width="2.47811"/>
<path d="M22.585 12.1028H0.999586" stroke="#54C8ED" stroke-width="2.47811"/>
<path d="M11.793 1.31006L11.793 22.8954" stroke="#54C8ED" stroke-width="2.47811"/>
<path d="M361.586 149.861H340.001" stroke="#54C8ED" stroke-width="2.47811"/>
<path d="M350.794 160.654L350.794 139.069" stroke="#54C8ED" stroke-width="2.47811"/>
<path d="M610.739 356.352H632.325" stroke="#54C8ED" stroke-width="2.47811"/>
<path d="M621.531 367.144L621.531 345.559" stroke="#54C8ED" stroke-width="2.47811"/>
<path d="M158.721 287.423H137.135" stroke="#54C8ED" stroke-width="2.47811"/>
<path d="M147.929 276.631L147.929 298.216" stroke="#54C8ED" stroke-width="2.47811"/>
<path d="M137.136 80.9329H158.721" stroke="#54C8ED" stroke-width="2.47811"/>
<path d="M147.928 70.1401L147.928 91.7255" stroke="#54C8ED" stroke-width="2.47811"/>
<path d="M476.757 81.031H498.342" stroke="#54C8ED" stroke-width="2.47811"/>
<path d="M487.549 91.8237L487.549 70.2384" stroke="#54C8ED" stroke-width="2.47811"/>
<path d="M498.341 287.521H476.755" stroke="#54C8ED" stroke-width="2.47811"/>
<path d="M487.549 298.314L487.549 276.729" stroke="#54C8ED" stroke-width="2.47811"/>
<circle cx="12.1515" cy="287.473" r="9.91244" stroke="#54C8ED" stroke-width="2.47811"/>
<circle r="9.91244" transform="matrix(-1 0 0 1 283.705 80.9818)" stroke="#54C8ED" stroke-width="2.47811"/>
<circle cx="623.325" cy="80.9818" r="9.91244" transform="rotate(-180 623.325 80.9818)" stroke="#54C8ED" stroke-width="2.47811"/>
<circle r="9.91244" transform="matrix(1 0 0 -1 351.773 287.472)" stroke="#54C8ED" stroke-width="2.47811"/>
<circle cx="80.2189" cy="287.473" r="9.91244" stroke="#54C8ED" stroke-width="2.47811"/>
<circle r="9.91244" transform="matrix(-1 0 0 1 215.637 80.9818)" stroke="#54C8ED" stroke-width="2.47811"/>
<circle cx="555.258" cy="80.9818" r="9.91244" transform="rotate(-180 555.258 80.9818)" stroke="#54C8ED" stroke-width="2.47811"/>
<circle r="9.91244" transform="matrix(1 0 0 -1 419.84 287.472)" stroke="#54C8ED" stroke-width="2.47811"/>
<circle cx="214.919" cy="218.642" r="9.91244" transform="rotate(90 214.919 218.642)" stroke="#54C8ED" stroke-width="2.47811"/>
<circle r="9.91244" transform="matrix(4.37114e-08 1 1 -4.37114e-08 79.5021 12.1517)" stroke="#54C8ED" stroke-width="2.47811"/>
<circle cx="418.503" cy="149.812" r="9.91244" transform="rotate(-90 418.503 149.812)" stroke="#54C8ED" stroke-width="2.47811"/>
<circle r="9.91244" transform="matrix(-4.37114e-08 -1 -1 4.37114e-08 553.822 356.303)" stroke="#54C8ED" stroke-width="2.47811"/>
<circle r="9.91244" transform="matrix(4.37114e-08 1 1 -4.37114e-08 215.637 287.473)" stroke="#54C8ED" stroke-width="2.47811"/>
<circle cx="80.2196" cy="80.9818" r="9.91244" transform="rotate(90 80.2196 80.9818)" stroke="#54C8ED" stroke-width="2.47811"/>
<circle r="9.91244" transform="matrix(-4.37114e-08 -1 -1 4.37114e-08 419.84 80.9818)" stroke="#54C8ED" stroke-width="2.47811"/>
<circle cx="555.258" cy="287.472" r="9.91244" transform="rotate(-90 555.258 287.472)" stroke="#54C8ED" stroke-width="2.47811"/>
<path d="M12.1515 367.454L12.1515 345.151M12.1515 345.151L1 356.513M12.1515 345.151L23.303 356.513" stroke="#FC9246" stroke-width="2.47811"/>
<path d="M283.085 160.963L283.085 138.66M283.085 138.66L294.236 150.022M283.085 138.66L271.933 150.022" stroke="#FC9246" stroke-width="2.47811"/>
<path d="M621.173 1.00024L621.173 23.3032M621.173 23.3032L632.324 11.9413M621.173 23.3032L610.021 11.9413" stroke="#FC9246" stroke-width="2.47811"/>
<path d="M350.337 207.491L350.337 229.794M350.337 229.794L339.186 218.432M350.337 229.794L361.489 218.432" stroke="#FC9246" stroke-width="2.47811"/>
<path d="M80.2189 367.454L80.2189 345.151M80.2189 345.151L69.0674 356.513M80.2189 345.151L91.3704 356.513" stroke="#FC9246" stroke-width="2.47811"/>
<path d="M215.017 160.963L215.017 138.66M215.017 138.66L226.169 150.022M215.017 138.66L203.866 150.022" stroke="#FC9246" stroke-width="2.47811"/>
<path d="M553.104 1.00024L553.104 23.3032M553.104 23.3032L564.256 11.9413M553.104 23.3032L541.953 11.9413" stroke="#FC9246" stroke-width="2.47811"/>
<path d="M418.404 207.491L418.404 229.794M418.404 229.794L407.253 218.432M418.404 229.794L429.556 218.432" stroke="#FC9246" stroke-width="2.47811"/>
<path d="M137.136 356.303H159.439M159.439 356.303L148.077 345.151M159.439 356.303L148.077 367.454" stroke="#FC9246" stroke-width="2.47811"/>
<path d="M158.102 149.812H135.799M135.799 149.812L147.16 138.661M135.799 149.812L147.16 160.964" stroke="#FC9246" stroke-width="2.47811"/>
<path d="M496.188 12.1515L473.885 12.1515M473.885 12.1515L485.247 23.303M473.885 12.1515L485.247 0.999997" stroke="#FC9246" stroke-width="2.47811"/>
<path d="M475.32 218.642H497.623M497.623 218.642L486.261 229.794M497.623 218.642L486.261 207.491" stroke="#FC9246" stroke-width="2.47811"/>
<path d="M135.7 218.642L158.003 218.642M158.003 218.642L146.641 207.491M158.003 218.642L146.641 229.794" stroke="#FC9246" stroke-width="2.47811"/>
<path d="M158.721 12.1517L136.418 12.1517M136.418 12.1517L147.78 1.00024M136.418 12.1517L147.78 23.3032" stroke="#FC9246" stroke-width="2.47811"/>
<path d="M497.722 149.812L475.419 149.812M475.419 149.812L486.781 160.963M475.419 149.812L486.781 138.66" stroke="#FC9246" stroke-width="2.47811"/>
<path d="M474.603 356.303L496.906 356.303M496.906 356.303L485.544 367.454M496.906 356.303L485.544 345.151" stroke="#FC9246" stroke-width="2.47811"/>
<path d="M294.856 287.473L272.553 287.473M272.553 287.473L283.915 276.321M272.553 287.473L283.915 298.624" stroke="#FC9246" stroke-width="2.47811"/>
<path d="M1 80.9818L23.303 80.9818M23.303 80.9818L11.9411 69.8303M23.303 80.9818L11.9411 92.1333" stroke="#FC9246" stroke-width="2.47811"/>
<path d="M340.621 80.9818L362.924 80.9818M362.924 80.9818L351.562 92.1333M362.924 80.9818L351.562 69.8303" stroke="#FC9246" stroke-width="2.47811"/>
<path d="M634.477 287.472L612.174 287.472M612.174 287.472L623.535 298.624M612.174 287.472L623.535 276.321" stroke="#FC9246" stroke-width="2.47811"/>
</svg>
