<svg width="1714" height="930" viewBox="0 0 1714 930" fill="none" xmlns="http://www.w3.org/2000/svg">
<path d="M897.15 301.427L897.15 273.127" stroke="#54C8ED" stroke-width="3.24894"/>
<path d="M883 287.277H911.3" stroke="#54C8ED" stroke-width="3.24894"/>
<path d="M1252.23 30.7061L1252.23 2.40643" stroke="#54C8ED" stroke-width="3.24894"/>
<path d="M1266.38 16.5562L1238.08 16.5562" stroke="#54C8ED" stroke-width="3.24894"/>
<path d="M1696.68 183.015L1696.68 211.315" stroke="#54C8ED" stroke-width="3.24894"/>
<path d="M1710.83 197.165H1682.53" stroke="#54C8ED" stroke-width="3.24894"/>
<path d="M1341.47 453.736L1341.47 482.036" stroke="#54C8ED" stroke-width="3.24894"/>
<path d="M1327.32 467.886H1355.62" stroke="#54C8ED" stroke-width="3.24894"/>
<path d="M1164.87 481.906L1164.87 453.607" stroke="#54C8ED" stroke-width="3.24894"/>
<path d="M1150.72 467.757H1179.02" stroke="#54C8ED" stroke-width="3.24894"/>
<path d="M985.578 211.186L985.578 182.887" stroke="#54C8ED" stroke-width="3.24894"/>
<path d="M999.728 197.037H971.428" stroke="#54C8ED" stroke-width="3.24894"/>
<path d="M1428.83 2.53516L1428.83 30.8348" stroke="#54C8ED" stroke-width="3.24894"/>
<path d="M1442.98 16.6851L1414.68 16.6851" stroke="#54C8ED" stroke-width="3.24894"/>
<path d="M1608.25 273.255L1608.25 301.555" stroke="#54C8ED" stroke-width="3.24894"/>
<path d="M1594.1 287.405H1622.4" stroke="#54C8ED" stroke-width="3.24894"/>
<path d="M985.449 301.427L985.449 273.127" stroke="#54C8ED" stroke-width="3.24894"/>
<path d="M971.3 287.277H999.599" stroke="#54C8ED" stroke-width="3.24894"/>
<path d="M1163.93 30.7061L1163.93 2.40643" stroke="#54C8ED" stroke-width="3.24894"/>
<path d="M1178.08 16.5562L1149.78 16.5562" stroke="#54C8ED" stroke-width="3.24894"/>
<path d="M1608.38 183.015L1608.38 211.315" stroke="#54C8ED" stroke-width="3.24894"/>
<path d="M1622.53 197.165H1594.23" stroke="#54C8ED" stroke-width="3.24894"/>
<path d="M1429.77 453.736L1429.77 482.036" stroke="#54C8ED" stroke-width="3.24894"/>
<path d="M1415.62 467.886H1443.92" stroke="#54C8ED" stroke-width="3.24894"/>
<path d="M1253.17 481.906L1253.17 453.607" stroke="#54C8ED" stroke-width="3.24894"/>
<path d="M1239.02 467.757H1267.32" stroke="#54C8ED" stroke-width="3.24894"/>
<path d="M897.278 211.186L897.278 182.887" stroke="#54C8ED" stroke-width="3.24894"/>
<path d="M911.428 197.037H883.129" stroke="#54C8ED" stroke-width="3.24894"/>
<path d="M1340.53 2.53516L1340.53 30.8348" stroke="#54C8ED" stroke-width="3.24894"/>
<path d="M1354.68 16.6851L1326.38 16.6851" stroke="#54C8ED" stroke-width="3.24894"/>
<path d="M1696.55 273.255L1696.55 301.555" stroke="#54C8ED" stroke-width="3.24894"/>
<path d="M1682.4 287.405H1710.7" stroke="#54C8ED" stroke-width="3.24894"/>
<path d="M1238.08 287.277H1266.38" stroke="#54C8ED" stroke-width="3.24894"/>
<path d="M1252.23 273.127L1252.23 301.427" stroke="#54C8ED" stroke-width="3.24894"/>
<path d="M911.3 16.5564H883" stroke="#54C8ED" stroke-width="3.24894"/>
<path d="M897.15 2.40649L897.15 30.7061" stroke="#54C8ED" stroke-width="3.24894"/>
<path d="M1355.75 197.165H1327.45" stroke="#54C8ED" stroke-width="3.24894"/>
<path d="M1341.6 211.315L1341.6 183.015" stroke="#54C8ED" stroke-width="3.24894"/>
<path d="M1682.4 467.885H1710.7" stroke="#54C8ED" stroke-width="3.24894"/>
<path d="M1696.55 482.035L1696.55 453.736" stroke="#54C8ED" stroke-width="3.24894"/>
<path d="M1089.78 377.517H1061.48" stroke="#54C8ED" stroke-width="3.24894"/>
<path d="M1075.63 363.367L1075.63 391.666" stroke="#54C8ED" stroke-width="3.24894"/>
<path d="M1061.48 106.796H1089.78" stroke="#54C8ED" stroke-width="3.24894"/>
<path d="M1075.63 92.6465L1075.63 120.946" stroke="#54C8ED" stroke-width="3.24894"/>
<path d="M1506.74 106.925H1535.04" stroke="#54C8ED" stroke-width="3.24894"/>
<path d="M1520.89 121.075L1520.89 92.7751" stroke="#54C8ED" stroke-width="3.24894"/>
<path d="M1535.04 377.645H1506.74" stroke="#54C8ED" stroke-width="3.24894"/>
<path d="M1520.89 391.795L1520.89 363.495" stroke="#54C8ED" stroke-width="3.24894"/>
<circle cx="897.62" cy="377.581" r="12.9958" stroke="#54C8ED" stroke-width="3.24894"/>
<circle r="12.9958" transform="matrix(-1 0 0 1 1253.64 106.86)" stroke="#54C8ED" stroke-width="3.24894"/>
<circle cx="1698.9" cy="106.86" r="12.9958" transform="rotate(-180 1698.9 106.86)" stroke="#54C8ED" stroke-width="3.24894"/>
<circle r="12.9958" transform="matrix(1 0 0 -1 1342.88 377.581)" stroke="#54C8ED" stroke-width="3.24894"/>
<circle cx="986.861" cy="377.581" r="12.9958" stroke="#54C8ED" stroke-width="3.24894"/>
<circle r="12.9958" transform="matrix(-1 0 0 1 1164.4 106.86)" stroke="#54C8ED" stroke-width="3.24894"/>
<circle cx="1609.66" cy="106.86" r="12.9958" transform="rotate(-180 1609.66 106.86)" stroke="#54C8ED" stroke-width="3.24894"/>
<circle r="12.9958" transform="matrix(1 0 0 -1 1432.12 377.581)" stroke="#54C8ED" stroke-width="3.24894"/>
<circle cx="1163.46" cy="287.341" r="12.9958" transform="rotate(90 1163.46 287.341)" stroke="#54C8ED" stroke-width="3.24894"/>
<circle r="12.9958" transform="matrix(4.37114e-08 1 1 -4.37114e-08 985.92 16.6205)" stroke="#54C8ED" stroke-width="3.24894"/>
<circle cx="1430.37" cy="197.1" r="12.9958" transform="rotate(-90 1430.37 197.1)" stroke="#54C8ED" stroke-width="3.24894"/>
<circle r="12.9958" transform="matrix(-4.37114e-08 -1 -1 4.37114e-08 1607.78 467.821)" stroke="#54C8ED" stroke-width="3.24894"/>
<circle r="12.9958" transform="matrix(4.37114e-08 1 1 -4.37114e-08 1164.4 377.581)" stroke="#54C8ED" stroke-width="3.24894"/>
<circle cx="986.861" cy="106.86" r="12.9958" transform="rotate(90 986.861 106.86)" stroke="#54C8ED" stroke-width="3.24894"/>
<circle r="12.9958" transform="matrix(-4.37114e-08 -1 -1 4.37114e-08 1432.12 106.86)" stroke="#54C8ED" stroke-width="3.24894"/>
<circle cx="1609.66" cy="377.581" r="12.9958" transform="rotate(-90 1609.66 377.581)" stroke="#54C8ED" stroke-width="3.24894"/>
<path d="M897.62 482.441L897.62 453.201M897.62 453.201L883 468.097M897.62 453.201L912.24 468.097" stroke="#FC9246" stroke-width="3.24894"/>
<path d="M1252.83 211.721L1252.83 182.48M1252.83 182.48L1267.45 197.376M1252.83 182.48L1238.21 197.376" stroke="#FC9246" stroke-width="3.24894"/>
<path d="M1696.08 2L1696.08 31.2404M1696.08 31.2404L1710.7 16.3444M1696.08 31.2404L1681.46 16.3444" stroke="#FC9246" stroke-width="3.24894"/>
<path d="M1341 272.721L1341 301.961M1341 301.961L1326.38 287.065M1341 301.961L1355.62 287.065" stroke="#FC9246" stroke-width="3.24894"/>
<path d="M986.861 482.441L986.861 453.201M986.861 453.201L972.24 468.097M986.861 453.201L1001.48 468.097" stroke="#FC9246" stroke-width="3.24894"/>
<path d="M1163.59 211.721L1163.59 182.48M1163.59 182.48L1178.21 197.376M1163.59 182.48L1148.97 197.376" stroke="#FC9246" stroke-width="3.24894"/>
<path d="M1606.84 2L1606.84 31.2404M1606.84 31.2404L1621.46 16.3444M1606.84 31.2404L1592.22 16.3444" stroke="#FC9246" stroke-width="3.24894"/>
<path d="M1430.24 272.721L1430.24 301.961M1430.24 301.961L1415.62 287.065M1430.24 301.961L1444.86 287.065" stroke="#FC9246" stroke-width="3.24894"/>
<path d="M1061.48 467.821H1090.72M1090.72 467.821L1075.83 453.201M1090.72 467.821L1075.83 482.442" stroke="#FC9246" stroke-width="3.24894"/>
<path d="M1088.97 197.101H1059.73M1059.73 197.101L1074.62 182.48M1059.73 197.101L1074.62 211.721" stroke="#FC9246" stroke-width="3.24894"/>
<path d="M1532.22 16.6203L1502.98 16.6203M1502.98 16.6203L1517.88 31.2405M1502.98 16.6203L1517.88 2.00004" stroke="#FC9246" stroke-width="3.24894"/>
<path d="M1504.86 287.341H1534.1M1534.1 287.341L1519.21 301.961M1534.1 287.341L1519.21 272.72" stroke="#FC9246" stroke-width="3.24894"/>
<path d="M1059.6 287.341L1088.84 287.341M1088.84 287.341L1073.94 272.721M1088.84 287.341L1073.94 301.961" stroke="#FC9246" stroke-width="3.24894"/>
<path d="M1089.78 16.6205L1060.54 16.6205M1060.54 16.6205L1075.44 2.00024M1060.54 16.6205L1075.44 31.2407" stroke="#FC9246" stroke-width="3.24894"/>
<path d="M1534.23 197.1L1504.99 197.1M1504.99 197.1L1519.89 211.721M1504.99 197.1L1519.89 182.48" stroke="#FC9246" stroke-width="3.24894"/>
<path d="M1503.92 467.821L1533.16 467.821M1533.16 467.821L1518.26 482.441M1533.16 467.821L1518.26 453.201" stroke="#FC9246" stroke-width="3.24894"/>
<path d="M1268.26 377.581L1239.02 377.581M1239.02 377.581L1253.92 362.961M1239.02 377.581L1253.92 392.201" stroke="#FC9246" stroke-width="3.24894"/>
<path d="M883 106.86L912.24 106.86M912.24 106.86L897.344 92.2402M912.24 106.86L897.344 121.481" stroke="#FC9246" stroke-width="3.24894"/>
<path d="M1328.26 106.86L1357.5 106.86M1357.5 106.86L1342.61 121.48M1357.5 106.86L1342.61 92.24" stroke="#FC9246" stroke-width="3.24894"/>
<path d="M1713.52 377.581L1684.28 377.581M1684.28 377.581L1699.18 392.201M1684.28 377.581L1699.18 362.961" stroke="#FC9246" stroke-width="3.24894"/>
<path d="M897.15 837.427L897.15 809.127" stroke="#54C8ED" stroke-width="3.24894"/>
<path d="M883 823.277H911.3" stroke="#54C8ED" stroke-width="3.24894"/>
<path d="M1252.23 566.706L1252.23 538.406" stroke="#54C8ED" stroke-width="3.24894"/>
<path d="M1266.38 552.556H1238.08" stroke="#54C8ED" stroke-width="3.24894"/>
<path d="M1696.68 719.015L1696.68 747.315" stroke="#54C8ED" stroke-width="3.24894"/>
<path d="M1710.83 733.165H1682.53" stroke="#54C8ED" stroke-width="3.24894"/>
<path d="M985.578 747.186L985.578 718.887" stroke="#54C8ED" stroke-width="3.24894"/>
<path d="M999.728 733.037H971.428" stroke="#54C8ED" stroke-width="3.24894"/>
<path d="M1428.83 538.535L1428.83 566.835" stroke="#54C8ED" stroke-width="3.24894"/>
<path d="M1442.98 552.685H1414.68" stroke="#54C8ED" stroke-width="3.24894"/>
<path d="M1608.25 809.255L1608.25 837.555" stroke="#54C8ED" stroke-width="3.24894"/>
<path d="M1594.1 823.405H1622.4" stroke="#54C8ED" stroke-width="3.24894"/>
<path d="M985.449 837.427L985.449 809.127" stroke="#54C8ED" stroke-width="3.24894"/>
<path d="M971.3 823.277H999.599" stroke="#54C8ED" stroke-width="3.24894"/>
<path d="M1163.93 566.706L1163.93 538.406" stroke="#54C8ED" stroke-width="3.24894"/>
<path d="M1178.08 552.556H1149.78" stroke="#54C8ED" stroke-width="3.24894"/>
<path d="M1608.38 719.015L1608.38 747.315" stroke="#54C8ED" stroke-width="3.24894"/>
<path d="M1622.53 733.165H1594.23" stroke="#54C8ED" stroke-width="3.24894"/>
<path d="M897.278 747.186L897.278 718.887" stroke="#54C8ED" stroke-width="3.24894"/>
<path d="M911.428 733.037H883.129" stroke="#54C8ED" stroke-width="3.24894"/>
<path d="M1340.53 538.535L1340.53 566.835" stroke="#54C8ED" stroke-width="3.24894"/>
<path d="M1354.68 552.685H1326.38" stroke="#54C8ED" stroke-width="3.24894"/>
<path d="M1696.55 809.255L1696.55 837.555" stroke="#54C8ED" stroke-width="3.24894"/>
<path d="M1682.4 823.405H1710.7" stroke="#54C8ED" stroke-width="3.24894"/>
<path d="M1238.08 823.277H1266.38" stroke="#54C8ED" stroke-width="3.24894"/>
<path d="M1252.23 809.127L1252.23 837.427" stroke="#54C8ED" stroke-width="3.24894"/>
<path d="M911.3 552.556H883" stroke="#54C8ED" stroke-width="3.24894"/>
<path d="M897.15 538.406L897.15 566.706" stroke="#54C8ED" stroke-width="3.24894"/>
<path d="M1355.75 733.165H1327.45" stroke="#54C8ED" stroke-width="3.24894"/>
<path d="M1341.6 747.315L1341.6 719.015" stroke="#54C8ED" stroke-width="3.24894"/>
<path d="M1089.78 913.517H1061.48" stroke="#54C8ED" stroke-width="3.24894"/>
<path d="M1075.63 899.367L1075.63 927.666" stroke="#54C8ED" stroke-width="3.24894"/>
<path d="M1061.48 642.796H1089.78" stroke="#54C8ED" stroke-width="3.24894"/>
<path d="M1075.63 628.646L1075.63 656.946" stroke="#54C8ED" stroke-width="3.24894"/>
<path d="M1506.74 642.925H1535.04" stroke="#54C8ED" stroke-width="3.24894"/>
<path d="M1520.89 657.075L1520.89 628.775" stroke="#54C8ED" stroke-width="3.24894"/>
<path d="M1535.04 913.645H1506.74" stroke="#54C8ED" stroke-width="3.24894"/>
<path d="M1520.89 927.795L1520.89 899.495" stroke="#54C8ED" stroke-width="3.24894"/>
<circle cx="897.62" cy="913.581" r="12.9958" stroke="#54C8ED" stroke-width="3.24894"/>
<circle r="12.9958" transform="matrix(-1 0 0 1 1253.64 642.86)" stroke="#54C8ED" stroke-width="3.24894"/>
<circle cx="1698.9" cy="642.86" r="12.9958" transform="rotate(-180 1698.9 642.86)" stroke="#54C8ED" stroke-width="3.24894"/>
<circle r="12.9958" transform="matrix(1 0 0 -1 1342.88 913.581)" stroke="#54C8ED" stroke-width="3.24894"/>
<circle cx="986.861" cy="913.581" r="12.9958" stroke="#54C8ED" stroke-width="3.24894"/>
<circle r="12.9958" transform="matrix(-1 0 0 1 1164.4 642.86)" stroke="#54C8ED" stroke-width="3.24894"/>
<circle cx="1609.66" cy="642.86" r="12.9958" transform="rotate(-180 1609.66 642.86)" stroke="#54C8ED" stroke-width="3.24894"/>
<circle r="12.9958" transform="matrix(1 0 0 -1 1432.12 913.581)" stroke="#54C8ED" stroke-width="3.24894"/>
<circle cx="1163.46" cy="823.341" r="12.9958" transform="rotate(90 1163.46 823.341)" stroke="#54C8ED" stroke-width="3.24894"/>
<circle r="12.9958" transform="matrix(4.37114e-08 1 1 -4.37114e-08 985.92 552.62)" stroke="#54C8ED" stroke-width="3.24894"/>
<circle cx="1430.37" cy="733.1" r="12.9958" transform="rotate(-90 1430.37 733.1)" stroke="#54C8ED" stroke-width="3.24894"/>
<circle r="12.9958" transform="matrix(4.37114e-08 1 1 -4.37114e-08 1164.4 913.581)" stroke="#54C8ED" stroke-width="3.24894"/>
<circle cx="986.861" cy="642.86" r="12.9958" transform="rotate(90 986.861 642.86)" stroke="#54C8ED" stroke-width="3.24894"/>
<circle r="12.9958" transform="matrix(-4.37114e-08 -1 -1 4.37114e-08 1432.12 642.86)" stroke="#54C8ED" stroke-width="3.24894"/>
<circle cx="1609.66" cy="913.581" r="12.9958" transform="rotate(-90 1609.66 913.581)" stroke="#54C8ED" stroke-width="3.24894"/>
<path d="M1252.83 747.721L1252.83 718.48M1252.83 718.48L1267.45 733.376M1252.83 718.48L1238.21 733.376" stroke="#FC9246" stroke-width="3.24894"/>
<path d="M1696.08 538L1696.08 567.24M1696.08 567.24L1710.7 552.344M1696.08 567.24L1681.46 552.344" stroke="#FC9246" stroke-width="3.24894"/>
<path d="M1341 808.721L1341 837.961M1341 837.961L1326.38 823.065M1341 837.961L1355.62 823.065" stroke="#FC9246" stroke-width="3.24894"/>
<path d="M1163.59 747.721L1163.59 718.48M1163.59 718.48L1178.21 733.376M1163.59 718.48L1148.97 733.376" stroke="#FC9246" stroke-width="3.24894"/>
<path d="M1606.84 538L1606.84 567.24M1606.84 567.24L1621.46 552.344M1606.84 567.24L1592.22 552.344" stroke="#FC9246" stroke-width="3.24894"/>
<path d="M1430.24 808.721L1430.24 837.961M1430.24 837.961L1415.62 823.065M1430.24 837.961L1444.86 823.065" stroke="#FC9246" stroke-width="3.24894"/>
<path d="M1088.97 733.101H1059.73M1059.73 733.101L1074.62 718.48M1059.73 733.101L1074.62 747.721" stroke="#FC9246" stroke-width="3.24894"/>
<path d="M1532.22 552.62H1502.98M1502.98 552.62L1517.88 567.24M1502.98 552.62L1517.88 538" stroke="#FC9246" stroke-width="3.24894"/>
<path d="M1504.86 823.341H1534.1M1534.1 823.341L1519.21 837.961M1534.1 823.341L1519.21 808.72" stroke="#FC9246" stroke-width="3.24894"/>
<path d="M1059.6 823.341H1088.84M1088.84 823.341L1073.94 808.721M1088.84 823.341L1073.94 837.961" stroke="#FC9246" stroke-width="3.24894"/>
<path d="M1089.78 552.62H1060.54M1060.54 552.62L1075.44 538M1060.54 552.62L1075.44 567.241" stroke="#FC9246" stroke-width="3.24894"/>
<path d="M1534.23 733.1H1504.99M1504.99 733.1L1519.89 747.721M1504.99 733.1L1519.89 718.48" stroke="#FC9246" stroke-width="3.24894"/>
<path d="M1268.26 913.581H1239.02M1239.02 913.581L1253.92 898.961M1239.02 913.581L1253.92 928.201" stroke="#FC9246" stroke-width="3.24894"/>
<path d="M883 642.86H912.24M912.24 642.86L897.344 628.24M912.24 642.86L897.344 657.481" stroke="#FC9246" stroke-width="3.24894"/>
<path d="M1328.26 642.86H1357.5M1357.5 642.86L1342.61 657.48M1357.5 642.86L1342.61 628.24" stroke="#FC9246" stroke-width="3.24894"/>
<path d="M1713.52 913.581H1684.28M1684.28 913.581L1699.18 928.201M1684.28 913.581L1699.18 898.961" stroke="#FC9246" stroke-width="3.24894"/>
<path d="M16.1499 301.427L16.1499 273.127" stroke="#54C8ED" stroke-width="3.24894"/>
<path d="M2 287.277H30.2996" stroke="#54C8ED" stroke-width="3.24894"/>
<path d="M371.23 30.7061L371.23 2.40643" stroke="#54C8ED" stroke-width="3.24894"/>
<path d="M385.38 16.5562L357.08 16.5562" stroke="#54C8ED" stroke-width="3.24894"/>
<path d="M815.679 183.015L815.679 211.315" stroke="#54C8ED" stroke-width="3.24894"/>
<path d="M829.829 197.165H801.529" stroke="#54C8ED" stroke-width="3.24894"/>
<path d="M460.47 453.736L460.47 482.036" stroke="#54C8ED" stroke-width="3.24894"/>
<path d="M446.321 467.886H474.62" stroke="#54C8ED" stroke-width="3.24894"/>
<path d="M283.871 481.906L283.871 453.607" stroke="#54C8ED" stroke-width="3.24894"/>
<path d="M269.721 467.757H298.021" stroke="#54C8ED" stroke-width="3.24894"/>
<path d="M104.578 211.186L104.578 182.887" stroke="#54C8ED" stroke-width="3.24894"/>
<path d="M118.728 197.037H90.4282" stroke="#54C8ED" stroke-width="3.24894"/>
<path d="M547.829 2.53516L547.829 30.8348" stroke="#54C8ED" stroke-width="3.24894"/>
<path d="M561.979 16.6851L533.679 16.6851" stroke="#54C8ED" stroke-width="3.24894"/>
<path d="M727.251 273.255L727.251 301.555" stroke="#54C8ED" stroke-width="3.24894"/>
<path d="M713.101 287.405H741.401" stroke="#54C8ED" stroke-width="3.24894"/>
<path d="M104.449 301.427L104.449 273.127" stroke="#54C8ED" stroke-width="3.24894"/>
<path d="M90.2996 287.277H118.599" stroke="#54C8ED" stroke-width="3.24894"/>
<path d="M282.93 30.7061L282.93 2.40643" stroke="#54C8ED" stroke-width="3.24894"/>
<path d="M297.08 16.5562L268.781 16.5562" stroke="#54C8ED" stroke-width="3.24894"/>
<path d="M727.379 183.015L727.379 211.315" stroke="#54C8ED" stroke-width="3.24894"/>
<path d="M741.529 197.165H713.23" stroke="#54C8ED" stroke-width="3.24894"/>
<path d="M548.77 453.736L548.77 482.036" stroke="#54C8ED" stroke-width="3.24894"/>
<path d="M534.62 467.886H562.92" stroke="#54C8ED" stroke-width="3.24894"/>
<path d="M372.171 481.906L372.171 453.607" stroke="#54C8ED" stroke-width="3.24894"/>
<path d="M358.021 467.757H386.321" stroke="#54C8ED" stroke-width="3.24894"/>
<path d="M16.2783 211.186L16.2783 182.887" stroke="#54C8ED" stroke-width="3.24894"/>
<path d="M30.4282 197.037H2.1286" stroke="#54C8ED" stroke-width="3.24894"/>
<path d="M459.53 2.53516L459.53 30.8348" stroke="#54C8ED" stroke-width="3.24894"/>
<path d="M473.679 16.6851L445.38 16.6851" stroke="#54C8ED" stroke-width="3.24894"/>
<path d="M815.551 273.255L815.551 301.555" stroke="#54C8ED" stroke-width="3.24894"/>
<path d="M801.401 287.405H829.701" stroke="#54C8ED" stroke-width="3.24894"/>
<path d="M357.08 287.277H385.38" stroke="#54C8ED" stroke-width="3.24894"/>
<path d="M371.23 273.127L371.23 301.427" stroke="#54C8ED" stroke-width="3.24894"/>
<path d="M30.2996 16.5564H1.99994" stroke="#54C8ED" stroke-width="3.24894"/>
<path d="M16.1499 2.40649L16.1499 30.7061" stroke="#54C8ED" stroke-width="3.24894"/>
<path d="M474.749 197.165H446.449" stroke="#54C8ED" stroke-width="3.24894"/>
<path d="M460.599 211.315L460.599 183.015" stroke="#54C8ED" stroke-width="3.24894"/>
<path d="M801.401 467.885H829.7" stroke="#54C8ED" stroke-width="3.24894"/>
<path d="M815.55 482.035L815.55 453.736" stroke="#54C8ED" stroke-width="3.24894"/>
<path d="M208.781 377.517H180.481" stroke="#54C8ED" stroke-width="3.24894"/>
<path d="M194.631 363.367L194.631 391.666" stroke="#54C8ED" stroke-width="3.24894"/>
<path d="M180.481 106.796H208.781" stroke="#54C8ED" stroke-width="3.24894"/>
<path d="M194.631 92.6465L194.631 120.946" stroke="#54C8ED" stroke-width="3.24894"/>
<path d="M625.743 106.925H654.042" stroke="#54C8ED" stroke-width="3.24894"/>
<path d="M639.892 121.075L639.892 92.7751" stroke="#54C8ED" stroke-width="3.24894"/>
<path d="M654.042 377.645H625.743" stroke="#54C8ED" stroke-width="3.24894"/>
<path d="M639.893 391.795L639.893 363.495" stroke="#54C8ED" stroke-width="3.24894"/>
<circle cx="16.6202" cy="377.581" r="12.9958" stroke="#54C8ED" stroke-width="3.24894"/>
<circle r="12.9958" transform="matrix(-1 0 0 1 372.641 106.86)" stroke="#54C8ED" stroke-width="3.24894"/>
<circle cx="817.903" cy="106.86" r="12.9958" transform="rotate(-180 817.903 106.86)" stroke="#54C8ED" stroke-width="3.24894"/>
<circle r="12.9958" transform="matrix(1 0 0 -1 461.882 377.581)" stroke="#54C8ED" stroke-width="3.24894"/>
<circle cx="105.861" cy="377.581" r="12.9958" stroke="#54C8ED" stroke-width="3.24894"/>
<circle r="12.9958" transform="matrix(-1 0 0 1 283.401 106.86)" stroke="#54C8ED" stroke-width="3.24894"/>
<circle cx="728.662" cy="106.86" r="12.9958" transform="rotate(-180 728.662 106.86)" stroke="#54C8ED" stroke-width="3.24894"/>
<circle r="12.9958" transform="matrix(1 0 0 -1 551.122 377.581)" stroke="#54C8ED" stroke-width="3.24894"/>
<circle cx="282.46" cy="287.341" r="12.9958" transform="rotate(90 282.46 287.341)" stroke="#54C8ED" stroke-width="3.24894"/>
<circle r="12.9958" transform="matrix(4.37114e-08 1 1 -4.37114e-08 104.92 16.6205)" stroke="#54C8ED" stroke-width="3.24894"/>
<circle cx="549.369" cy="197.1" r="12.9958" transform="rotate(-90 549.369 197.1)" stroke="#54C8ED" stroke-width="3.24894"/>
<circle r="12.9958" transform="matrix(-4.37114e-08 -1 -1 4.37114e-08 726.78 467.821)" stroke="#54C8ED" stroke-width="3.24894"/>
<circle r="12.9958" transform="matrix(4.37114e-08 1 1 -4.37114e-08 283.401 377.581)" stroke="#54C8ED" stroke-width="3.24894"/>
<circle cx="105.861" cy="106.86" r="12.9958" transform="rotate(90 105.861 106.86)" stroke="#54C8ED" stroke-width="3.24894"/>
<circle r="12.9958" transform="matrix(-4.37114e-08 -1 -1 4.37114e-08 551.122 106.86)" stroke="#54C8ED" stroke-width="3.24894"/>
<circle cx="728.662" cy="377.581" r="12.9958" transform="rotate(-90 728.662 377.581)" stroke="#54C8ED" stroke-width="3.24894"/>
<path d="M16.6202 482.441L16.6202 453.201M16.6202 453.201L2 468.097M16.6202 453.201L31.2404 468.097" stroke="#FC9246" stroke-width="3.24894"/>
<path d="M371.829 211.721L371.829 182.48M371.829 182.48L386.449 197.376M371.829 182.48L357.209 197.376" stroke="#FC9246" stroke-width="3.24894"/>
<path d="M815.08 2L815.08 31.2404M815.08 31.2404L829.7 16.3444M815.08 31.2404L800.46 16.3444" stroke="#FC9246" stroke-width="3.24894"/>
<path d="M460 272.721L460 301.961M460 301.961L445.38 287.065M460 301.961L474.62 287.065" stroke="#FC9246" stroke-width="3.24894"/>
<path d="M105.861 482.441L105.861 453.201M105.861 453.201L91.2405 468.097M105.861 453.201L120.481 468.097" stroke="#FC9246" stroke-width="3.24894"/>
<path d="M282.589 211.721L282.589 182.48M282.589 182.48L297.209 197.376M282.589 182.48L267.968 197.376" stroke="#FC9246" stroke-width="3.24894"/>
<path d="M725.84 2L725.84 31.2404M725.84 31.2404L740.46 16.3444M725.84 31.2404L711.22 16.3444" stroke="#FC9246" stroke-width="3.24894"/>
<path d="M549.24 272.721L549.24 301.961M549.24 301.961L534.62 287.065M549.24 301.961L563.861 287.065" stroke="#FC9246" stroke-width="3.24894"/>
<path d="M180.481 467.821H209.721M209.721 467.821L194.825 453.201M209.721 467.821L194.825 482.442" stroke="#FC9246" stroke-width="3.24894"/>
<path d="M207.968 197.101H178.728M178.728 197.101L193.624 182.48M178.728 197.101L193.624 211.721" stroke="#FC9246" stroke-width="3.24894"/>
<path d="M651.219 16.6203L621.979 16.6203M621.979 16.6203L636.875 31.2405M621.979 16.6203L636.875 2.00004" stroke="#FC9246" stroke-width="3.24894"/>
<path d="M623.861 287.341H653.101M653.101 287.341L638.205 301.961M653.101 287.341L638.205 272.72" stroke="#FC9246" stroke-width="3.24894"/>
<path d="M178.599 287.341L207.84 287.341M207.84 287.341L192.943 272.721M207.84 287.341L192.943 301.961" stroke="#FC9246" stroke-width="3.24894"/>
<path d="M208.781 16.6205L179.54 16.6205M179.54 16.6205L194.436 2.00024M179.54 16.6205L194.436 31.2407" stroke="#FC9246" stroke-width="3.24894"/>
<path d="M653.23 197.1L623.99 197.1M623.99 197.1L638.886 211.721M623.99 197.1L638.886 182.48" stroke="#FC9246" stroke-width="3.24894"/>
<path d="M622.92 467.821L652.16 467.821M652.16 467.821L637.264 482.441M652.16 467.821L637.264 453.201" stroke="#FC9246" stroke-width="3.24894"/>
<path d="M387.262 377.581L358.021 377.581M358.021 377.581L372.917 362.961M358.021 377.581L372.917 392.201" stroke="#FC9246" stroke-width="3.24894"/>
<path d="M2 106.86L31.2404 106.86M31.2404 106.86L16.3444 92.2402M31.2404 106.86L16.3444 121.481" stroke="#FC9246" stroke-width="3.24894"/>
<path d="M447.262 106.86L476.502 106.86M476.502 106.86L461.606 121.48M476.502 106.86L461.606 92.24" stroke="#FC9246" stroke-width="3.24894"/>
<path d="M832.523 377.581L803.283 377.581M803.283 377.581L818.179 392.201M803.283 377.581L818.179 362.961" stroke="#FC9246" stroke-width="3.24894"/>
<path d="M16.1499 837.427L16.1499 809.127" stroke="#54C8ED" stroke-width="3.24894"/>
<path d="M2 823.277H30.2996" stroke="#54C8ED" stroke-width="3.24894"/>
<path d="M371.23 566.706L371.23 538.406" stroke="#54C8ED" stroke-width="3.24894"/>
<path d="M385.38 552.556H357.08" stroke="#54C8ED" stroke-width="3.24894"/>
<path d="M815.679 719.015L815.679 747.315" stroke="#54C8ED" stroke-width="3.24894"/>
<path d="M829.829 733.165H801.529" stroke="#54C8ED" stroke-width="3.24894"/>
<path d="M104.578 747.186L104.578 718.887" stroke="#54C8ED" stroke-width="3.24894"/>
<path d="M118.728 733.037H90.4282" stroke="#54C8ED" stroke-width="3.24894"/>
<path d="M547.829 538.535L547.829 566.835" stroke="#54C8ED" stroke-width="3.24894"/>
<path d="M561.979 552.685H533.679" stroke="#54C8ED" stroke-width="3.24894"/>
<path d="M727.251 809.255L727.251 837.555" stroke="#54C8ED" stroke-width="3.24894"/>
<path d="M713.101 823.405H741.401" stroke="#54C8ED" stroke-width="3.24894"/>
<path d="M104.449 837.427L104.449 809.127" stroke="#54C8ED" stroke-width="3.24894"/>
<path d="M90.2996 823.277H118.599" stroke="#54C8ED" stroke-width="3.24894"/>
<path d="M282.93 566.706L282.93 538.406" stroke="#54C8ED" stroke-width="3.24894"/>
<path d="M297.08 552.556H268.781" stroke="#54C8ED" stroke-width="3.24894"/>
<path d="M727.379 719.015L727.379 747.315" stroke="#54C8ED" stroke-width="3.24894"/>
<path d="M741.529 733.165H713.23" stroke="#54C8ED" stroke-width="3.24894"/>
<path d="M16.2783 747.186L16.2783 718.887" stroke="#54C8ED" stroke-width="3.24894"/>
<path d="M30.4282 733.037H2.1286" stroke="#54C8ED" stroke-width="3.24894"/>
<path d="M459.53 538.535L459.53 566.835" stroke="#54C8ED" stroke-width="3.24894"/>
<path d="M473.679 552.685H445.38" stroke="#54C8ED" stroke-width="3.24894"/>
<path d="M815.551 809.255L815.551 837.555" stroke="#54C8ED" stroke-width="3.24894"/>
<path d="M801.401 823.405H829.701" stroke="#54C8ED" stroke-width="3.24894"/>
<path d="M357.08 823.277H385.38" stroke="#54C8ED" stroke-width="3.24894"/>
<path d="M371.23 809.127L371.23 837.427" stroke="#54C8ED" stroke-width="3.24894"/>
<path d="M30.2996 552.556H1.99994" stroke="#54C8ED" stroke-width="3.24894"/>
<path d="M16.1499 538.406L16.1499 566.706" stroke="#54C8ED" stroke-width="3.24894"/>
<path d="M474.749 733.165H446.449" stroke="#54C8ED" stroke-width="3.24894"/>
<path d="M460.599 747.315L460.599 719.015" stroke="#54C8ED" stroke-width="3.24894"/>
<path d="M208.781 913.517H180.481" stroke="#54C8ED" stroke-width="3.24894"/>
<path d="M194.631 899.367L194.631 927.666" stroke="#54C8ED" stroke-width="3.24894"/>
<path d="M180.481 642.796H208.781" stroke="#54C8ED" stroke-width="3.24894"/>
<path d="M194.631 628.646L194.631 656.946" stroke="#54C8ED" stroke-width="3.24894"/>
<path d="M625.743 642.925H654.042" stroke="#54C8ED" stroke-width="3.24894"/>
<path d="M639.892 657.075L639.892 628.775" stroke="#54C8ED" stroke-width="3.24894"/>
<path d="M654.042 913.645H625.743" stroke="#54C8ED" stroke-width="3.24894"/>
<path d="M639.893 927.795L639.893 899.495" stroke="#54C8ED" stroke-width="3.24894"/>
<circle cx="16.6202" cy="913.581" r="12.9958" stroke="#54C8ED" stroke-width="3.24894"/>
<circle r="12.9958" transform="matrix(-1 0 0 1 372.641 642.86)" stroke="#54C8ED" stroke-width="3.24894"/>
<circle cx="817.903" cy="642.86" r="12.9958" transform="rotate(-180 817.903 642.86)" stroke="#54C8ED" stroke-width="3.24894"/>
<circle r="12.9958" transform="matrix(1 0 0 -1 461.882 913.581)" stroke="#54C8ED" stroke-width="3.24894"/>
<circle cx="105.861" cy="913.581" r="12.9958" stroke="#54C8ED" stroke-width="3.24894"/>
<circle r="12.9958" transform="matrix(-1 0 0 1 283.401 642.86)" stroke="#54C8ED" stroke-width="3.24894"/>
<circle cx="728.662" cy="642.86" r="12.9958" transform="rotate(-180 728.662 642.86)" stroke="#54C8ED" stroke-width="3.24894"/>
<circle r="12.9958" transform="matrix(1 0 0 -1 551.122 913.581)" stroke="#54C8ED" stroke-width="3.24894"/>
<circle cx="282.46" cy="823.341" r="12.9958" transform="rotate(90 282.46 823.341)" stroke="#54C8ED" stroke-width="3.24894"/>
<circle r="12.9958" transform="matrix(4.37114e-08 1 1 -4.37114e-08 104.92 552.62)" stroke="#54C8ED" stroke-width="3.24894"/>
<circle cx="549.369" cy="733.1" r="12.9958" transform="rotate(-90 549.369 733.1)" stroke="#54C8ED" stroke-width="3.24894"/>
<circle r="12.9958" transform="matrix(4.37114e-08 1 1 -4.37114e-08 283.401 913.581)" stroke="#54C8ED" stroke-width="3.24894"/>
<circle cx="105.861" cy="642.86" r="12.9958" transform="rotate(90 105.861 642.86)" stroke="#54C8ED" stroke-width="3.24894"/>
<circle r="12.9958" transform="matrix(-4.37114e-08 -1 -1 4.37114e-08 551.122 642.86)" stroke="#54C8ED" stroke-width="3.24894"/>
<circle cx="728.662" cy="913.581" r="12.9958" transform="rotate(-90 728.662 913.581)" stroke="#54C8ED" stroke-width="3.24894"/>
<path d="M371.829 747.721L371.829 718.48M371.829 718.48L386.449 733.376M371.829 718.48L357.209 733.376" stroke="#FC9246" stroke-width="3.24894"/>
<path d="M815.08 538L815.08 567.24M815.08 567.24L829.7 552.344M815.08 567.24L800.46 552.344" stroke="#FC9246" stroke-width="3.24894"/>
<path d="M460 808.721L460 837.961M460 837.961L445.38 823.065M460 837.961L474.62 823.065" stroke="#FC9246" stroke-width="3.24894"/>
<path d="M282.589 747.721L282.589 718.48M282.589 718.48L297.209 733.376M282.589 718.48L267.968 733.376" stroke="#FC9246" stroke-width="3.24894"/>
<path d="M725.84 538L725.84 567.24M725.84 567.24L740.46 552.344M725.84 567.24L711.22 552.344" stroke="#FC9246" stroke-width="3.24894"/>
<path d="M549.24 808.721L549.24 837.961M549.24 837.961L534.62 823.065M549.24 837.961L563.861 823.065" stroke="#FC9246" stroke-width="3.24894"/>
<path d="M207.968 733.101H178.728M178.728 733.101L193.624 718.48M178.728 733.101L193.624 747.721" stroke="#FC9246" stroke-width="3.24894"/>
<path d="M651.219 552.62H621.979M621.979 552.62L636.875 567.24M621.979 552.62L636.875 538" stroke="#FC9246" stroke-width="3.24894"/>
<path d="M623.861 823.341H653.101M653.101 823.341L638.205 837.961M653.101 823.341L638.205 808.72" stroke="#FC9246" stroke-width="3.24894"/>
<path d="M178.599 823.341H207.84M207.84 823.341L192.943 808.721M207.84 823.341L192.943 837.961" stroke="#FC9246" stroke-width="3.24894"/>
<path d="M208.781 552.62H179.54M179.54 552.62L194.436 538M179.54 552.62L194.436 567.241" stroke="#FC9246" stroke-width="3.24894"/>
<path d="M653.23 733.1H623.99M623.99 733.1L638.886 747.721M623.99 733.1L638.886 718.48" stroke="#FC9246" stroke-width="3.24894"/>
<path d="M387.262 913.581H358.021M358.021 913.581L372.917 898.961M358.021 913.581L372.917 928.201" stroke="#FC9246" stroke-width="3.24894"/>
<path d="M2 642.86H31.2404M31.2404 642.86L16.3444 628.24M31.2404 642.86L16.3444 657.481" stroke="#FC9246" stroke-width="3.24894"/>
<path d="M447.262 642.86H476.502M476.502 642.86L461.606 657.48M476.502 642.86L461.606 628.24" stroke="#FC9246" stroke-width="3.24894"/>
<path d="M832.523 913.581H803.283M803.283 913.581L818.179 928.201M803.283 913.581L818.179 898.961" stroke="#FC9246" stroke-width="3.24894"/>
</svg>
