<svg width="382" height="382" viewBox="0 0 382 382" fill="none" xmlns="http://www.w3.org/2000/svg">
<path d="M381.357 195.449L380.493 210.361L361.026 209.233L361.269 205.028L376.687 205.922L377.064 199.42L369.822 199C366.785 198.824 364.643 198.036 363.396 196.635C362.149 195.235 361.716 193.269 362.097 190.739L366.03 190.967C365.753 192.149 365.947 193.059 366.614 193.696C367.306 194.336 368.521 194.705 370.261 194.806L381.357 195.449Z" fill="#343841"/>
<path d="M366.871 218.742L377.237 230.786L376.655 233.97L357.473 230.464L358.217 226.397L370.416 228.627L360.012 216.576L360.594 213.392L379.776 216.898L379.033 220.965L366.871 218.742Z" fill="#343841"/>
<path d="M369.852 256.839L355.07 252.104L354.272 254.592L345.507 251.784L346.769 247.847L351.745 249.441L355.827 236.702L350.85 235.108L352.111 231.171L360.876 233.979L360.15 236.245C361.37 237.891 363.429 239.179 366.326 240.107L374.385 242.689L369.852 256.839ZM358.734 240.664L356.331 248.167L367.436 251.725L369.447 245.448L365.064 244.044C362.39 243.187 360.28 242.061 358.734 240.664Z" fill="#343841"/>
<path d="M348.38 276.616L355.059 262.605C353.611 262.26 352.288 262.407 351.09 263.046C349.882 263.708 348.925 264.779 348.22 266.257C347.269 268.252 347.275 270.113 348.238 271.839L344.914 274.1C343.172 271.167 343.118 267.987 344.752 264.561C346.105 261.721 348.076 259.823 350.663 258.867C353.262 257.946 355.9 258.123 358.575 259.399C361.18 260.641 362.961 262.555 363.917 265.142C364.884 267.706 364.712 270.361 363.403 273.106C362.184 275.665 360.273 277.346 357.672 278.151C355.07 278.956 352.479 278.743 349.897 277.512C349.428 277.288 348.922 276.99 348.38 276.616ZM358.174 264.047L353.24 274.397C354.748 274.799 356.096 274.721 357.283 274.164C358.459 273.63 359.355 272.717 359.97 271.427C360.641 270.018 360.814 268.66 360.487 267.352C360.16 266.044 359.389 264.942 358.174 264.047Z" fill="#343841"/>
<path d="M350.138 296.587C348.682 298.804 346.589 300.166 343.859 300.675C341.166 301.176 338.624 300.641 336.234 299.071C333.822 297.486 332.311 295.358 331.702 292.686C331.093 290.015 331.524 287.56 332.994 285.322C334.608 282.867 336.769 281.565 339.48 281.417L330.647 275.614L332.96 272.093L355.776 287.085L353.463 290.605L351.116 289.063C352.092 291.602 351.766 294.11 350.138 296.587ZM340.602 284.255C338.982 284.59 337.686 285.496 336.715 286.974C335.745 288.452 335.427 290.001 335.762 291.621C336.119 293.255 337.047 294.565 338.547 295.55C340.046 296.536 341.606 296.861 343.226 296.525C344.868 296.204 346.174 295.305 347.145 293.827C348.116 292.35 348.423 290.794 348.066 289.159C347.731 287.539 346.813 286.236 345.314 285.251C343.837 284.28 342.266 283.948 340.602 284.255Z" fill="#343841"/>
<path d="M320.271 317.636L306.942 317.085L310.448 313.476L322.48 314.018L316.018 307.741L318.953 304.72L332.94 318.307L330.006 321.328L323.823 315.323L324.734 326.755L321.147 330.448L320.271 317.636Z" fill="#343841"/>
<path d="M293.794 330.996C294.098 328.218 295.376 325.926 297.626 324.12C299.877 322.313 302.391 321.562 305.169 321.866C307.984 322.175 310.286 323.444 312.076 325.675C313.866 327.905 314.607 330.427 314.299 333.242C313.995 336.02 312.717 338.312 310.466 340.118C308.216 341.925 305.701 342.676 302.923 342.371C300.109 342.063 297.807 340.794 296.017 338.563C294.226 336.333 293.486 333.81 293.794 330.996ZM308.791 328.311C307.685 326.932 306.309 326.153 304.664 325.972C303.019 325.792 301.528 326.239 300.189 327.313C298.851 328.387 298.092 329.747 297.912 331.392C297.732 333.036 298.195 334.548 299.301 335.927C300.408 337.306 301.784 338.085 303.429 338.266C305.073 338.446 306.565 337.999 307.903 336.925C309.242 335.851 310.001 334.491 310.181 332.846C310.361 331.202 309.898 329.69 308.791 328.311Z" fill="#343841"/>
<path d="M284.129 357.437L280.452 359.647L270.41 342.931L273.921 340.822L280.528 351.821L280.743 341.273L281.178 341.012L290.537 345.763L283.95 334.797L287.461 332.688L297.502 349.404L293.824 351.613L284.338 346.803L284.129 357.437Z" fill="#343841"/>
<path d="M258.552 366.451L259.621 369.005L255.735 370.631L248.206 352.643L252.092 351.017L253.176 353.607C253.786 350.956 255.458 349.059 258.192 347.914C260.662 346.88 263.154 346.908 265.668 347.998C268.182 349.088 269.996 350.964 271.11 353.626C272.224 356.288 272.288 358.897 271.3 361.453C270.312 364.009 268.583 365.803 266.112 366.837C263.378 367.982 260.858 367.853 258.552 366.451ZM263.874 351.793C262.343 351.165 260.762 351.193 259.131 351.876C257.5 352.558 256.371 353.665 255.744 355.196C255.126 356.751 255.164 358.356 255.856 360.011C256.549 361.666 257.661 362.807 259.192 363.435C260.733 364.086 262.319 364.071 263.95 363.388C265.581 362.705 266.705 361.586 267.322 360.031C267.95 358.5 267.917 356.907 267.225 355.253C266.542 353.622 265.425 352.468 263.874 351.793Z" fill="#343841"/>
<path d="M233.906 368.926L235.907 376.425L231.838 377.511L226.809 358.671L230.878 357.584L232.88 365.083L241.509 362.78L239.507 355.281L243.576 354.195L248.605 373.035L244.536 374.121L242.534 366.623L233.906 368.926Z" fill="#343841"/>
<path d="M208.192 381.129L206.164 365.74L203.573 366.081L202.371 356.956L206.47 356.416L207.152 361.597L220.415 359.85L219.732 354.668L223.831 354.128L225.033 363.254L222.674 363.564C221.706 365.37 221.42 367.781 221.818 370.797L222.923 379.188L208.192 381.129ZM218.073 364.171L210.263 365.2L211.786 376.761L218.32 375.9L217.719 371.337C217.352 368.553 217.47 366.164 218.073 364.171Z" fill="#343841"/>
<path d="M195.291 375.191L191.001 375.141C188.895 375.117 187.199 374.499 185.913 373.288C184.601 372.103 183.956 370.548 183.978 368.624C184 366.726 184.681 365.187 186.021 364.007C187.334 362.826 189.044 362.248 191.15 362.272L199.652 362.37L199.426 381.869L195.214 381.82L195.291 375.191ZM181.713 362.163L181.487 381.661L177.275 381.613L177.501 362.114L181.713 362.163ZM195.396 366.104L191.067 366.054C190.235 366.045 189.544 366.284 188.992 366.771C188.414 367.259 188.121 367.892 188.112 368.672C188.103 369.452 188.368 370.092 188.909 370.593C189.449 371.093 190.148 371.348 191.006 371.358L195.335 371.408L195.396 366.104Z" fill="#343841"/>
<path d="M135.863 362.491C137.176 362.911 138.143 363.726 138.766 364.936C139.388 366.146 139.489 367.407 139.069 368.719C138.664 369.982 137.861 370.912 136.66 371.51C135.433 372.1 134.176 372.188 132.889 371.776C131.626 371.371 130.692 370.581 130.086 369.404C129.48 368.227 129.379 367.007 129.784 365.744C130.196 364.457 130.999 363.485 132.192 362.83C133.377 362.199 134.601 362.086 135.863 362.491Z" fill="#343841"/>
<path d="M90.2791 353.268L77.8867 344.929L88.7733 328.751L92.2678 331.103L83.6455 343.916L89.049 347.552L93.0989 341.534C94.7972 339.01 96.5665 337.568 98.4069 337.208C100.247 336.848 102.159 337.477 104.142 339.093L101.943 342.361C101.067 341.521 100.185 341.225 99.2971 341.474C98.3946 341.744 97.457 342.602 96.4845 344.047L90.2791 353.268Z" fill="#343841"/>
<path d="M77.7003 328.981L62.0625 331.807L59.6134 329.69L72.3642 314.936L75.4919 317.639L67.3825 327.023L83.0458 324.168L85.4949 326.284L72.7441 341.038L69.6164 338.335L77.7003 328.981Z" fill="#343841"/>
<path d="M43.2807 312.076L54.8757 301.757L53.1386 299.805L60.014 293.686L62.7624 296.774L58.8585 300.248L67.7518 310.241L71.6556 306.767L74.404 309.855L67.5286 315.974L65.947 314.197C63.9088 314.409 61.7536 315.527 59.4812 317.549L53.1593 323.176L43.2807 312.076ZM62.8616 310.73L57.6241 304.845L48.9133 312.597L53.2951 317.521L56.7328 314.461C58.8304 312.594 60.8733 311.351 62.8616 310.73Z" fill="#343841"/>
<path d="M37.2868 283.802L45.9996 296.648C47.0295 295.572 47.5714 294.357 47.6255 293C47.665 291.623 47.225 290.256 46.3056 288.9C45.065 287.071 43.4567 286.136 41.4804 286.094L41.2104 282.083C44.6212 282.063 47.392 283.624 49.5228 286.765C51.2887 289.369 51.9301 292.029 51.447 294.744C50.9278 297.452 49.4417 299.638 46.9887 301.302C44.6002 302.922 42.0483 303.49 39.333 303.007C36.6323 302.546 34.4282 301.056 32.7206 298.539C31.1298 296.193 30.6448 293.695 31.2654 291.043C31.8861 288.392 33.3798 286.263 35.7468 284.658C36.1771 284.366 36.6905 284.081 37.2868 283.802ZM43.1812 298.607L36.7451 289.117C35.6361 290.215 35.0219 291.417 34.9025 292.723C34.7685 294.008 35.1029 295.242 35.9056 296.426C36.7813 297.717 37.866 298.552 39.1599 298.931C40.4537 299.31 41.7942 299.202 43.1812 298.607Z" fill="#343841"/>
<path d="M19.1989 275.289C18.0223 272.913 17.9042 270.418 18.8448 267.806C19.7736 265.228 21.5195 263.305 24.0826 262.036C26.669 260.755 29.2687 260.527 31.8816 261.352C34.4946 262.176 36.3952 263.788 37.5833 266.188C38.8868 268.821 38.9175 271.344 37.6755 273.758L47.1473 269.069L49.016 272.843L24.5501 284.956L22.6813 281.181L25.1978 279.935C22.5136 279.494 20.5139 277.946 19.1989 275.289ZM34.6599 273.292C35.1894 271.725 35.0619 270.149 34.2775 268.564C33.4931 266.98 32.317 265.923 30.7494 265.393C29.1585 264.876 27.5591 265.015 25.9514 265.811C24.3436 266.606 23.275 267.788 22.7455 269.356C22.1928 270.935 22.3086 272.517 23.093 274.101C23.8775 275.686 25.0651 276.737 26.6561 277.255C28.2237 277.784 29.8114 277.651 31.4192 276.855C33.0036 276.071 34.0839 274.883 34.6599 273.292Z" fill="#343841"/>
<path d="M16.1888 238.982L23.4193 227.771L24.7536 232.622L18.1877 242.72L26.874 240.331L27.9911 244.392L9.18945 249.563L8.07235 245.502L16.3827 243.216L6.06571 238.207L4.70037 233.244L16.1888 238.982Z" fill="#343841"/>
<path d="M18.0965 209.233C20.3331 210.909 21.6564 213.175 22.0663 216.031C22.4762 218.888 21.8435 221.435 20.1682 223.671C18.4709 225.938 16.2067 227.274 13.3757 227.68C10.5447 228.086 7.99614 227.441 5.73008 225.743C3.49346 224.068 2.17019 221.802 1.76029 218.945C1.35038 216.088 1.98308 213.542 3.65839 211.305C5.35575 209.039 7.61993 207.703 10.4509 207.297C13.2819 206.89 15.8305 207.536 18.0965 209.233ZM12.7774 223.511C14.5275 223.259 15.8985 222.472 16.8905 221.147C17.8824 219.823 18.2566 218.312 18.0128 216.613C17.7691 214.914 16.9851 213.569 15.6608 212.577C14.3364 211.585 12.7993 211.215 11.0492 211.466C9.2991 211.717 7.92808 212.505 6.93612 213.829C5.94416 215.153 5.57004 216.665 5.81377 218.363C6.0575 220.062 6.84152 221.407 8.16584 222.399C9.49016 223.391 11.0274 223.762 12.7774 223.511Z" fill="#343841"/>
<path d="M0.240892 187.697L0.207772 183.407L19.7072 183.257L19.7388 187.352L6.90819 187.451L15.8823 192.998L15.8862 193.505L7.03751 199.15L19.8291 199.051L19.8607 203.146L0.361328 203.297L0.328208 199.007L9.29328 193.283L0.240892 187.697Z" fill="#343841"/>
<path d="M5.53037 160.239L2.78795 159.856L3.37019 155.684L22.683 158.38L22.1007 162.551L19.3197 162.163C21.2893 164.04 22.0692 166.445 21.6594 169.381C21.2893 172.033 19.9945 174.163 17.7751 175.769C15.5557 177.376 13.0168 177.98 10.1585 177.581C7.30024 177.182 5.02376 175.906 3.32909 173.753C1.63443 171.6 0.972193 169.198 1.34238 166.545C1.7521 163.61 3.1481 161.508 5.53037 160.239ZM15.4253 172.291C16.7458 171.294 17.5283 169.92 17.7727 168.169C18.0171 166.418 17.6407 164.882 16.6437 163.562C15.6209 162.238 14.2211 161.452 12.4444 161.204C10.6676 160.956 9.11894 161.33 7.79843 162.327C6.45218 163.321 5.65686 164.693 5.41246 166.444C5.16807 168.195 5.55726 169.733 6.58005 171.057C7.57708 172.377 8.96399 173.161 10.7408 173.409C12.4918 173.654 14.0533 173.281 15.4253 172.291Z" fill="#343841"/>
<path d="M15.8176 138.18L8.34237 136.093L9.47486 132.036L28.2568 137.279L27.1243 141.336L19.6491 139.249L17.2478 147.851L24.723 149.938L23.5905 153.995L4.80859 148.752L5.94108 144.695L13.4163 146.782L15.8176 138.18Z" fill="#343841"/>
<path d="M18.495 109.502L32.7681 115.602L33.795 113.199L42.2585 116.816L40.6339 120.618L35.8283 118.564L30.5713 130.865L35.3769 132.919L33.7523 136.72L25.2888 133.103L26.2237 130.915C25.1636 129.162 23.2349 127.687 20.4377 126.492L12.6556 123.166L18.495 109.502ZM28.0476 126.648L31.1435 119.404L20.4207 114.821L17.8305 120.882L22.0623 122.69C24.6444 123.794 26.6394 125.113 28.0476 126.648Z" fill="#343841"/>
<path d="M29.4292 102.673L31.6518 99.0038C32.7429 97.2025 34.1367 96.0557 35.8332 95.5634C37.5209 95.0354 39.1876 95.2699 40.8332 96.2667C42.4566 97.25 43.4363 98.6186 43.7723 100.372C44.1218 102.104 43.7509 103.87 42.6598 105.672L38.255 112.944L21.5762 102.841L23.7584 99.2382L29.4292 102.673ZM47.5496 97.5991L30.8708 87.4963L33.053 83.8937L49.7318 93.9965L47.5496 97.5991ZM37.2015 107.381L39.4443 103.678C39.8754 102.967 40.0211 102.249 39.8814 101.527C39.7553 100.781 39.3586 100.207 38.6914 99.8026C38.0243 99.3985 37.338 99.3019 36.6326 99.513C35.9272 99.7241 35.3522 100.197 34.9077 100.93L32.6649 104.633L37.2015 107.381Z" fill="#343841"/>
<path d="M70.2403 57.8694C69.2143 58.7893 68.022 59.2121 66.6636 59.138C65.3051 59.0639 64.166 58.5138 63.2461 57.4878C62.3609 56.5005 61.9641 55.3373 62.0556 53.9982C62.1664 52.6417 62.7252 51.5122 63.7319 50.6097C64.7192 49.7246 65.8737 49.3181 67.1954 49.3902C68.5172 49.4623 69.6206 49.992 70.5058 50.9793C71.4083 51.986 71.8408 53.1696 71.8034 54.53C71.7486 55.8711 71.2276 56.9843 70.2403 57.8694Z" fill="#343841"/>
<path d="M101.784 22.6247L115.243 16.147L123.7 33.7179L119.904 35.5445L113.207 21.6284L107.338 24.4528L110.484 30.9892C111.803 33.7303 112.153 35.9857 111.533 37.7556C110.913 39.5255 109.405 40.8575 107.007 41.7516L105.299 38.2023C106.467 37.871 107.168 37.2595 107.403 36.3676C107.626 35.4523 107.359 34.2098 106.604 32.6401L101.784 22.6247Z" fill="#343841"/>
<path d="M128.86 24.0891L134.372 9.18465L137.439 8.15066L143.668 26.6291L139.75 27.9496L135.789 16.1973L130.289 31.1387L127.222 32.1727L120.993 13.6943L124.911 12.3738L128.86 24.0891Z" fill="#343841"/>
<path d="M160.396 3.03263L163.42 18.2571L165.983 17.7479L167.777 26.7755L163.722 27.581L162.704 22.4552L149.583 25.0619L150.601 30.1877L146.547 30.9932L144.753 21.9657L147.087 21.5021C147.935 19.6369 148.063 17.2125 147.471 14.2288L145.822 5.92806L160.396 3.03263ZM151.639 20.5977L159.366 19.0626L157.093 7.62517L150.629 8.90949L151.525 13.4233C152.073 16.1775 152.11 18.5689 151.639 20.5977Z" fill="#343841"/>
<path d="M188.769 12.0769L173.277 13.0345C173.678 14.4685 174.448 15.554 175.588 16.2911C176.754 17.0266 178.154 17.3438 179.789 17.2428C181.995 17.1064 183.619 16.1985 184.661 14.519L188.251 16.329C186.531 19.2747 183.777 20.8646 179.988 21.0988C176.848 21.2929 174.233 20.4907 172.142 18.6923C170.075 16.8663 168.95 14.4741 168.768 11.5158C168.59 8.63528 169.4 6.14956 171.198 4.05863C172.971 1.9693 175.375 0.830802 178.411 0.643134C181.24 0.468297 183.637 1.32303 185.603 3.20733C187.569 5.09163 188.64 7.46106 188.817 10.3156C188.849 10.8346 188.833 11.4217 188.769 12.0769ZM173.026 9.61143L184.47 8.90406C184.09 7.39063 183.368 6.24998 182.305 5.48212C181.268 4.71266 180.035 4.37204 178.608 4.46026C177.051 4.5565 175.78 5.06488 174.795 5.98541C173.81 6.90594 173.22 8.11461 173.026 9.61143Z" fill="#343841"/>
<path d="M206.044 0.850619C208.688 1.05501 210.892 2.22936 212.656 4.37369C214.396 6.49009 215.156 8.97404 214.936 11.8255C214.713 14.703 213.58 17.0536 211.535 18.8774C209.491 20.7013 207.133 21.51 204.463 21.3036C201.534 21.0772 199.35 19.8131 197.911 17.5113L197.096 28.0489L192.897 27.7243L195.001 0.505492L199.2 0.83011L198.984 3.62976C200.736 1.54856 203.089 0.622184 206.044 0.850619ZM199.853 15.158C200.929 16.4147 202.349 17.1112 204.112 17.2475C205.875 17.3837 207.384 16.9137 208.641 15.8373C209.9 14.7351 210.598 13.2896 210.736 11.5009C210.875 9.71225 210.406 8.18958 209.329 6.93288C208.255 5.65027 206.836 4.94083 205.074 4.80457C203.311 4.66831 201.8 5.15132 200.541 6.25359C199.285 7.32994 198.587 8.76245 198.449 10.5511C198.313 12.3139 198.781 13.8495 199.853 15.158Z" fill="#343841"/>
<path d="M237.957 16.5225L243.938 28.4471L239.082 27.1312L233.722 16.3447L231.365 25.04L227.3 23.9383L232.4 5.11719L236.466 6.21888L234.211 14.5378L243.768 8.19784L248.737 9.54435L237.957 16.5225Z" fill="#343841"/>
<path d="M262.387 33.0936C259.809 34.1727 257.185 34.1651 254.515 33.0707C251.844 31.9763 249.969 30.1403 248.89 27.5626C247.797 24.9509 247.793 22.3219 248.877 19.6755C249.962 17.0291 251.81 15.1593 254.421 14.0659C256.999 12.9868 259.623 12.9945 262.294 14.0888C264.964 15.1832 266.839 17.0193 267.918 19.597C269.011 22.2086 269.016 24.8377 267.931 27.4841C266.847 30.1305 264.999 32.0003 262.387 33.0936ZM252.775 21.2727C252.104 22.9087 252.088 24.4898 252.727 26.0161C253.366 27.5424 254.48 28.6309 256.068 29.2816C257.655 29.9323 259.212 29.9382 260.739 29.2992C262.265 28.6603 263.363 27.5228 264.034 25.8869C264.704 24.2509 264.72 22.6698 264.081 21.1435C263.442 19.6172 262.329 18.5287 260.741 17.878C259.153 17.2273 257.596 17.2214 256.07 17.8604C254.543 18.4993 253.445 19.6368 252.775 21.2727Z" fill="#343841"/>
<path d="M291.226 29.2874L294.928 31.4557L285.072 48.2814L281.538 46.2116L288.024 35.1403L278.664 40.0079L278.226 39.7516L277.908 29.2602L271.443 40.2979L267.909 38.228L277.766 21.4023L281.467 23.5707L281.793 34.2025L291.226 29.2874Z" fill="#343841"/>
<path d="M311.459 47.3694L313.184 45.2036L316.479 47.828L304.329 63.0802L301.034 60.4558L302.784 58.2595C300.167 58.9999 297.699 58.4467 295.38 56.5999C293.286 54.9313 292.112 52.7329 291.858 50.0048C291.605 47.2766 292.377 44.7839 294.176 42.5266C295.974 40.2692 298.231 38.9591 300.946 38.5961C303.662 38.2332 306.067 38.886 308.162 40.5546C310.48 42.4013 311.579 44.673 311.459 47.3694ZM296.048 49.7524C296.234 51.3966 297.019 52.7694 298.402 53.871C299.785 54.9726 301.298 55.4303 302.942 55.2442C304.603 55.0377 305.992 54.2329 307.109 52.8297C308.227 51.4265 308.693 49.9028 308.507 48.2587C308.337 46.5942 307.561 45.2112 306.178 44.1096C304.795 43.008 303.273 42.5605 301.613 42.7669C299.969 42.9531 298.588 43.7477 297.47 45.1509C296.368 46.5338 295.895 48.0676 296.048 49.7524Z" fill="#343841"/>
<path d="M324.894 67.0805L330.481 61.6932L333.404 64.7252L319.368 78.261L316.444 75.229L322.03 69.8418L315.831 63.4129L310.244 68.8002L307.321 65.7683L321.357 52.2324L324.281 55.2644L318.695 60.6516L324.894 67.0805Z" fill="#343841"/>
<path d="M348.586 84.2539L336.101 93.4762L337.653 95.578L330.25 101.046L327.794 97.7212L331.997 94.6162L324.049 83.8563L319.846 86.9612L317.39 83.636L324.793 78.1675L326.206 80.0811C328.256 80.0545 330.503 79.1375 332.95 77.3301L339.758 72.3019L348.586 84.2539ZM328.964 83.8142L333.645 90.1509L343.024 83.2227L339.108 77.9211L335.407 80.6554C333.148 82.3237 331 83.3766 328.964 83.8142Z" fill="#343841"/>
<path d="M349.376 97.8834L351.406 101.663C352.403 103.518 352.682 105.301 352.244 107.012C351.841 108.734 350.792 110.05 349.097 110.961C347.425 111.859 345.748 112.007 344.067 111.405C342.398 110.826 341.065 109.609 340.069 107.754L336.045 100.264L353.223 91.0352L355.216 94.7456L349.376 97.8834ZM344.536 116.068L361.713 106.839L363.707 110.549L346.529 119.778L344.536 116.068ZM341.371 102.184L343.42 105.998C343.813 106.731 344.357 107.221 345.051 107.468C345.757 107.738 346.453 107.688 347.14 107.319C347.827 106.95 348.259 106.408 348.436 105.693C348.613 104.978 348.498 104.243 348.092 103.487L346.043 99.6738L341.371 102.184Z" fill="#343841"/>
<path d="M367.03 155.675C366.761 154.323 367.005 153.082 367.761 151.951C368.517 150.82 369.571 150.12 370.923 149.852C372.223 149.593 373.427 149.845 374.532 150.606C375.643 151.393 376.33 152.449 376.593 153.775C376.851 155.076 376.613 156.276 375.877 157.377C375.141 158.477 374.123 159.156 372.823 159.415C371.497 159.678 370.258 159.447 369.106 158.722C367.981 157.991 367.288 156.976 367.03 155.675Z" fill="#343841"/>
</svg>
