<svg width="149" height="145" viewBox="0 0 149 145" fill="none" xmlns="http://www.w3.org/2000/svg">
<path d="M139.758 75.3782L147.389 75.7908L147.46 74.4709L149 74.5542L148.832 77.6614L139.662 77.1655L139.758 75.3782Z" fill="#5D6773"/>
<path d="M138.978 83.1379L146.505 84.4546L146.733 83.1526L148.252 83.4183L147.716 86.4835L138.669 84.9011L138.978 83.1379Z" fill="#5D6773"/>
<path d="M140.314 88.7338L141.801 89.1428L140.851 92.5945L139.364 92.1855L140.314 88.7338Z" fill="#5D6773"/>
<path d="M135.801 95.2502L142.935 97.9883L143.409 96.7543L144.849 97.3069L143.734 100.212L135.16 96.9213L135.801 95.2502Z" fill="#5D6773"/>
<path d="M139.144 104.654L139.922 103.165C140.608 103.617 141.026 104.193 141.178 104.894C141.329 105.595 141.218 106.303 140.843 107.019C140.435 107.8 139.908 108.312 139.263 108.554C138.614 108.805 137.948 108.752 137.265 108.395C136.476 107.982 136.07 107.371 136.048 106.562C135.272 107.213 134.409 107.289 133.457 106.792C132.644 106.366 132.15 105.756 131.976 104.96C131.797 104.173 131.927 103.36 132.365 102.522C132.782 101.725 133.361 101.173 134.101 100.866C134.85 100.564 135.624 100.58 136.422 100.915L135.593 102.501C135.217 102.367 134.862 102.363 134.527 102.488C134.192 102.613 133.925 102.867 133.725 103.249C133.504 103.672 133.462 104.059 133.599 104.411C133.74 104.775 133.986 105.048 134.336 105.231C134.677 105.41 135.034 105.451 135.405 105.355C135.772 105.268 136.075 104.996 136.313 104.54L136.421 104.333L137.568 104.933L137.453 105.153C137.262 105.519 137.223 105.85 137.336 106.148C137.458 106.45 137.674 106.682 137.983 106.843C138.308 107.014 138.619 107.052 138.917 106.959C139.214 106.866 139.448 106.657 139.618 106.331C139.775 106.03 139.818 105.721 139.746 105.404C139.669 105.094 139.469 104.844 139.144 104.654Z" fill="#5D6773"/>
<path d="M132.508 114.144L129.491 118.077L125.897 115.319L125.36 116.018L122.848 114.091L123.77 112.889L125.146 113.945L127.644 110.69L126.267 109.634L127.189 108.432L129.702 110.36C129.439 110.748 129.424 111.182 129.657 111.662C129.832 111.993 130.189 112.365 130.727 112.778L132.508 114.144ZM126.919 113.987L129.377 115.872L130.45 114.474L129.401 113.67C128.76 113.178 128.425 112.643 128.394 112.064L126.919 113.987Z" fill="#5D6773"/>
<path d="M122.187 120.067L120.945 121.014C120.869 120.854 120.81 120.677 120.766 120.483C120.722 120.303 120.69 120.05 120.669 119.726C120.654 119.408 120.723 119.063 120.876 118.689C121.036 118.321 121.283 117.961 121.618 117.608C122.263 116.929 122.991 116.57 123.801 116.53C124.657 116.482 125.434 116.79 126.133 117.454C126.825 118.112 127.182 118.869 127.204 119.725C127.217 120.524 126.905 121.259 126.266 121.931C125.571 122.663 124.8 123.001 123.955 122.944C123.213 122.898 122.483 122.534 121.765 121.851L121.665 121.756L124.738 118.522C124.446 118.244 124.136 118.083 123.811 118.039C123.348 117.98 122.937 118.139 122.576 118.519C122.146 118.971 122.016 119.487 122.187 120.067ZM125.479 119.302L123.534 121.348C123.858 121.567 124.188 121.646 124.524 121.586C124.86 121.538 125.146 121.391 125.38 121.145C125.607 120.906 125.739 120.613 125.776 120.268C125.806 119.93 125.707 119.608 125.479 119.302Z" fill="#5D6773"/>
<path d="M122.659 125.281L121.376 126.366L119.883 124.599L119.673 127.806L118.075 129.157L118.42 125.385L114.121 124.693L115.761 123.306L118.929 123.855L118.959 123.506L117.527 121.813L118.81 120.728L122.659 125.281Z" fill="#5D6773"/>
<path d="M112.442 132.114L112.87 132.755L111.473 133.688L108.163 128.73L109.56 127.797L109.988 128.438C110.006 127.654 110.335 127.048 110.976 126.62C111.724 126.12 112.506 125.968 113.321 126.164C114.128 126.364 114.779 126.835 115.273 127.576C115.772 128.324 115.961 129.103 115.84 129.912C115.718 130.722 115.294 131.369 114.569 131.853C113.852 132.332 113.143 132.419 112.442 132.114ZM112.136 131.11C112.574 131.204 112.992 131.118 113.389 130.853C113.786 130.588 114.025 130.236 114.106 129.795C114.187 129.355 114.095 128.936 113.83 128.539C113.565 128.142 113.211 127.893 112.768 127.791C112.33 127.697 111.913 127.783 111.516 128.048C111.119 128.313 110.879 128.666 110.798 129.106C110.722 129.554 110.817 129.977 111.082 130.374C111.347 130.771 111.698 131.016 112.136 131.11Z" fill="#5D6773"/>
<path d="M107.275 140.418L105.904 141.123C105.568 140.067 105.821 139.133 106.662 138.319C106.812 138.169 107.011 137.984 107.259 137.764C107.503 137.556 107.68 137.398 107.79 137.29C107.903 137.191 108.019 137.044 108.136 136.849C108.249 136.668 108.329 136.461 108.375 136.231C108.465 135.762 108.41 135.284 108.212 134.798L108.187 134.811C108.126 135.152 107.952 135.468 107.668 135.758C107.388 136.057 107.064 136.301 106.697 136.489C105.881 136.909 105.091 137 104.329 136.762C103.514 136.52 102.888 135.975 102.452 135.125C102.016 134.276 101.955 133.425 102.27 132.572C102.561 131.793 103.136 131.183 103.993 130.743C104.891 130.281 105.717 130.151 106.47 130.352C107.401 130.597 108.178 131.327 108.803 132.544C109.646 134.185 109.989 135.516 109.832 136.535C109.771 136.938 109.629 137.316 109.407 137.667C109.189 138.026 108.993 138.287 108.818 138.449C108.648 138.619 108.412 138.823 108.111 139.06C107.761 139.343 107.527 139.582 107.41 139.776C107.289 139.983 107.244 140.197 107.275 140.418ZM106.007 131.922C105.574 131.783 105.142 131.824 104.709 132.047C104.276 132.269 103.994 132.594 103.864 133.023C103.725 133.455 103.764 133.884 103.982 134.308C104.205 134.741 104.528 135.029 104.952 135.172C105.377 135.315 105.809 135.274 106.25 135.047C106.691 134.821 106.977 134.493 107.108 134.065C107.239 133.637 107.193 133.206 106.971 132.773C106.753 132.349 106.431 132.065 106.007 131.922Z" fill="#5D6773"/>
<path d="M98.8457 134.144L97.4666 130.426L99.0415 129.842L102.226 138.427L100.651 139.011L100.383 138.288C100.176 139.05 99.681 139.576 98.8979 139.867C98.0803 140.17 97.3139 140.136 96.5986 139.765C95.8833 139.394 95.3661 138.778 95.0468 137.918C94.7276 137.057 94.7251 136.245 95.0394 135.483C95.3482 134.732 95.9114 134.204 96.729 133.901C97.4778 133.623 98.1833 133.704 98.8457 134.144ZM97.5289 138.274C97.9332 138.467 98.3592 138.48 98.8067 138.314C99.2542 138.148 99.5684 137.861 99.7493 137.451C99.9301 137.041 99.9376 136.612 99.7716 136.165C99.6056 135.717 99.3188 135.393 98.9113 135.192C98.5069 134.999 98.081 134.986 97.6335 135.152C97.186 135.318 96.8718 135.606 96.6909 136.015C96.5132 136.434 96.5074 136.867 96.6734 137.314C96.8394 137.762 97.1246 138.082 97.5289 138.274Z" fill="#5D6773"/>
<path d="M93.4496 135.275L92.2825 137.867C92.6699 137.826 93.0194 137.9 93.3312 138.086C93.7099 138.313 93.9639 138.685 94.0934 139.201C94.2429 139.798 94.1331 140.341 93.7639 140.831C93.4347 141.254 92.8783 141.564 92.0948 141.761L89.7977 142.337L88.3478 136.554L89.9772 136.145L90.4861 138.175L90.6731 138.128L91.5798 135.743L93.4496 135.275ZM90.7808 139.35L91.1056 140.646L91.8134 140.468C92.0627 140.406 92.2318 140.307 92.3208 140.171C92.4298 140.002 92.4586 139.815 92.4072 139.61C92.3537 139.396 92.2423 139.254 92.073 139.183C91.9238 139.116 91.729 139.113 91.4886 139.173L90.7808 139.35Z" fill="#5D6773"/>
<path d="M80.6812 141.05C81.0827 141.399 81.302 141.839 81.3389 142.37C81.3758 142.902 81.2197 143.368 80.8703 143.769C80.521 144.171 80.0808 144.39 79.5497 144.427C79.0186 144.464 78.5522 144.308 78.1507 143.959C77.7491 143.609 77.5299 143.169 77.493 142.638C77.456 142.107 77.6122 141.641 77.9615 141.239C78.3109 140.837 78.7511 140.618 79.2822 140.581C79.8133 140.544 80.2796 140.701 80.6812 141.05Z" fill="#5D6773"/>
<path d="M70.291 137.986L67.0764 140.862L69.0111 143.835L66.9068 143.574L65.894 141.895L64.4746 143.273L62.3703 143.012L65.0132 140.606L62.6117 137.034L64.7433 137.299L66.1819 139.572L68.1593 137.722L70.291 137.986Z" fill="#5D6773"/>
<path d="M56.2963 140.842L56.1144 141.591L54.482 141.195L55.8879 135.401L57.5203 135.798L57.3385 136.547C57.9271 136.029 58.596 135.86 59.3453 136.042C60.2195 136.254 60.8606 136.726 61.2687 137.458C61.6678 138.188 61.7624 138.985 61.5524 139.85C61.3403 140.725 60.8952 141.391 60.2171 141.85C59.539 142.309 58.7763 142.436 57.9289 142.23C57.0904 142.026 56.5462 141.564 56.2963 140.842ZM56.8276 139.937C57.0552 140.322 57.4009 140.572 57.8647 140.684C58.3286 140.797 58.75 140.734 59.1291 140.495C59.5081 140.256 59.7539 139.905 59.8665 139.441C59.979 138.978 59.9226 138.548 59.6973 138.154C59.4697 137.768 59.124 137.519 58.6602 137.406C58.1963 137.293 57.7749 137.356 57.3958 137.595C57.0146 137.843 56.7677 138.198 56.6552 138.662C56.5426 139.126 56.6001 139.551 56.8276 139.937Z" fill="#5D6773"/>
<path d="M52.5186 140.574L50.9415 139.996L51.7378 137.824L48.8473 139.228L46.8824 138.507L50.3309 136.942L48.8056 132.863L50.8222 133.602L51.9128 136.627L52.2308 136.48L52.9939 134.398L54.571 134.977L52.5186 140.574Z" fill="#5D6773"/>
<path d="M41.5629 135.08L41.2183 135.77L39.7156 135.019L42.3805 129.686L43.8832 130.437L43.5385 131.127C44.2281 130.753 44.9177 130.738 45.6074 131.083C46.4121 131.485 46.9316 132.088 47.1658 132.893C47.3917 133.693 47.3057 134.492 46.9077 135.288C46.5056 136.093 45.9229 136.643 45.1594 136.939C44.3959 137.235 43.6242 137.188 42.8441 136.798C42.0723 136.412 41.6452 135.84 41.5629 135.08ZM42.2832 134.317C42.4187 134.743 42.7 135.064 43.127 135.277C43.554 135.49 43.9788 135.523 44.4016 135.375C44.8244 135.227 45.1425 134.94 45.3558 134.513C45.5692 134.086 45.6101 133.655 45.4787 133.22C45.3431 132.793 45.0618 132.473 44.6348 132.259C44.2079 132.046 43.783 132.013 43.3602 132.161C42.9333 132.317 42.6132 132.609 42.3998 133.036C42.1865 133.463 42.1476 133.89 42.2832 134.317Z" fill="#5D6773"/>
<path d="M35.1474 130.488L36.5478 131.365L38.9514 127.525L40.3752 128.416L37.9716 132.256L39.3721 133.133L38.6123 134.346L34.3876 131.702L35.1474 130.488Z" fill="#5D6773"/>
<path d="M33.2497 130.108C32.428 130.18 31.6213 129.911 30.8297 129.299C30.0381 128.687 29.5739 127.974 29.4371 127.161C29.2774 126.271 29.4896 125.449 30.0734 124.694C30.6517 123.946 31.3911 123.537 32.2918 123.468C33.1135 123.395 33.9202 123.665 34.7118 124.277C35.5034 124.889 35.9676 125.602 36.1044 126.415C36.2641 127.304 36.0547 128.123 35.4765 128.871C34.8926 129.626 34.1504 130.038 33.2497 130.108ZM34.4469 126.578C34.3948 126.12 34.18 125.745 33.8023 125.453C33.4247 125.161 33.0077 125.048 32.5514 125.113C32.0952 125.178 31.7267 125.392 31.446 125.755C31.1597 126.125 31.0425 126.539 31.0946 126.997C31.1467 127.455 31.3615 127.83 31.7392 128.122C32.1168 128.414 32.5338 128.528 32.99 128.463C33.4463 128.398 33.8176 128.18 34.1039 127.81C34.3846 127.447 34.499 127.036 34.4469 126.578Z" fill="#5D6773"/>
<path d="M31.1003 121.615L26.9619 125.907L25.7527 124.741L27.215 123.224L25.5301 121.6L24.0678 123.116L22.8587 121.95L26.9971 117.659L28.2062 118.825L26.5241 120.569L28.209 122.194L29.8911 120.449L31.1003 121.615Z" fill="#5D6773"/>
<path d="M18.7627 117.288L17.7696 115.933L20.7346 113.76L16.1416 113.712L15.1485 112.358L19.9569 108.833L20.95 110.188L17.985 112.361L22.578 112.409L23.5711 113.764L18.7627 117.288Z" fill="#5D6773"/>
<path d="M13.6619 110.001L11.204 105.697L15.1377 103.451L14.7007 102.686L17.4507 101.115L18.2018 102.43L16.6952 103.291L18.7299 106.854L20.2364 105.993L20.9875 107.309L18.2374 108.879C17.9814 108.486 17.5869 108.304 17.0541 108.334C16.6818 108.367 16.2007 108.552 15.6108 108.889L13.6619 110.001ZM15.9707 104.909L13.2804 106.446L14.1544 107.976L15.3022 107.321C16.0036 106.92 16.627 106.818 17.1723 107.014L15.9707 104.909Z" fill="#5D6773"/>
<path d="M12.2068 98.2004L11.8174 96.6878C11.9945 96.6807 12.1808 96.6945 12.3763 96.7294C12.5597 96.7596 12.8048 96.8279 13.1117 96.9344C13.4101 97.0446 13.7019 97.2428 13.9869 97.529C14.2636 97.8189 14.4992 98.1868 14.6937 98.6327C15.0681 99.4909 15.1161 100.301 14.8378 101.063C14.5489 101.871 13.9627 102.467 13.0793 102.852C12.2043 103.234 11.3681 103.268 10.5705 102.955C9.82977 102.657 9.27404 102.084 8.90336 101.234C8.49964 100.308 8.48818 99.467 8.869 98.7101C9.19978 98.045 9.8195 97.5143 10.7282 97.1179L10.8544 97.0629L12.6381 101.152C13.0083 100.99 13.2768 100.768 13.4437 100.485C13.6786 100.082 13.6914 99.6408 13.4822 99.1612C13.2326 98.5891 12.8075 98.2688 12.2068 98.2004ZM11.6317 101.531L10.5031 98.9436C10.1754 99.1566 9.97408 99.4297 9.89909 99.7629C9.81202 100.091 9.83638 100.411 9.97218 100.722C10.1043 101.025 10.3222 101.261 10.6258 101.429C10.9257 101.588 11.261 101.622 11.6317 101.531Z" fill="#5D6773"/>
<path d="M7.22952 96.6817L6.73518 95.0764L10.2486 93.9945L5.92478 92.4446L5.43043 90.8392L11.1283 89.0846L11.6226 90.69L8.10917 91.7719L12.433 93.3218L12.9274 94.9272L7.22952 96.6817ZM3.13411 93.5344L3.30999 92.3277C3.85529 92.3519 4.29669 92.5377 4.63419 92.8852C4.96293 93.2354 5.19483 93.6298 5.32989 94.0684C5.46496 94.507 5.49509 94.9636 5.42028 95.438C5.3367 95.9152 5.07629 96.3171 4.63905 96.6438L3.81485 95.7451C4.0355 95.6195 4.19372 95.4315 4.28949 95.1811C4.38257 94.922 4.38724 94.6564 4.30349 94.3845C4.22516 94.1301 4.08339 93.9192 3.87819 93.7519C3.673 93.5845 3.42497 93.5121 3.13411 93.5344Z" fill="#5D6773"/>
<path d="M6.37482 81.7564C6.04121 82.1711 5.60976 82.4071 5.08046 82.4645C4.55117 82.5218 4.07918 82.3837 3.66448 82.0501C3.24978 81.7165 3.01375 81.285 2.9564 80.7557C2.89904 80.2264 3.03717 79.7544 3.37078 79.3397C3.70439 78.925 4.13584 78.689 4.66514 78.6317C5.19443 78.5743 5.66642 78.7124 6.08112 79.046C6.49582 79.3796 6.73185 79.8111 6.7892 80.3404C6.84656 80.8697 6.70843 81.3417 6.37482 81.7564Z" fill="#5D6773"/>
<path d="M9.26057 68.1585L1.64399 67.5402L1.53704 68.8577L0 68.7329L0.251769 65.6314L9.40539 66.3744L9.26057 68.1585Z" fill="#5D6773"/>
<path d="M10.194 60.7232L2.69881 59.2341L2.44125 60.5306L0.928711 60.2301L1.53506 57.178L10.5428 58.9676L10.194 60.7232Z" fill="#5D6773"/>
<path d="M8.95864 55.1805L7.48145 54.7378L8.50907 51.3086L9.98626 51.7513L8.95864 55.1805Z" fill="#5D6773"/>
<path d="M13.6153 48.7476L6.54436 45.8498L6.04313 47.0729L4.61621 46.4882L5.79619 43.6088L14.294 47.0913L13.6153 48.7476Z" fill="#5D6773"/>
<path d="M10.585 39.0634L9.76818 40.5312C9.09448 40.0618 8.69101 39.4749 8.55776 38.7704C8.42451 38.066 8.55427 37.3609 8.94705 36.655C9.37552 35.885 9.91526 35.387 10.5662 35.161C11.2217 34.927 11.8863 34.9974 12.5601 35.3723C13.3381 35.8053 13.7277 36.4265 13.729 37.236C14.5211 36.6054 15.3864 36.5511 16.3248 37.0733C17.1269 37.5197 17.6048 38.1428 17.7585 38.9426C17.9167 39.7344 17.7659 40.5434 17.3062 41.3695C16.8688 42.1556 16.276 42.6923 15.5277 42.9798C14.7715 43.2628 13.9985 43.2266 13.2089 42.8712L14.0792 41.3071C14.4509 41.4509 14.8057 41.4646 15.1437 41.348C15.4817 41.2314 15.7556 40.9847 15.9653 40.6077C16.1974 40.1906 16.2494 39.8046 16.1213 39.4496C15.9896 39.0822 15.7513 38.8026 15.4064 38.6106C15.0695 38.4232 14.7142 38.3726 14.3406 38.4588C13.9715 38.537 13.6619 38.8007 13.412 39.2499L13.2982 39.4544L12.1672 38.8251L12.2877 38.6085C12.4886 38.2476 12.536 37.9168 12.4301 37.6163C12.3162 37.3113 12.1069 37.074 11.8021 36.9044C11.4812 36.7259 11.171 36.6793 10.8714 36.7647C10.5718 36.8501 10.3327 37.0532 10.1542 37.374C9.98902 37.6708 9.93844 37.9788 10.0024 38.298C10.0708 38.6092 10.265 38.8643 10.585 39.0634Z" fill="#5D6773"/>
<path d="M17.2632 29.9874L20.3657 26.1217L23.8986 28.9571L24.4501 28.2698L26.9199 30.252L25.9719 31.4332L24.6189 30.3473L22.0507 33.5473L23.4037 34.6331L22.4557 35.8143L19.986 33.8322C20.2575 33.4498 20.2818 33.0162 20.059 32.5313C19.8917 32.1971 19.5433 31.8174 19.0135 31.3922L17.2632 29.9874ZM22.8472 30.2671L20.4311 28.3281L19.328 29.7025L20.3588 30.5299C20.9888 31.0355 21.3126 31.5779 21.3304 32.157L22.8472 30.2671Z" fill="#5D6773"/>
<path d="M27.8383 24.1516L29.104 23.2364C29.1754 23.3986 29.2306 23.5771 29.2695 23.7719C29.3085 23.9536 29.3344 24.2067 29.3474 24.5313C29.3539 24.8493 29.276 25.1933 29.1138 25.5633C28.945 25.9267 28.6886 26.2805 28.3446 26.6245C27.6826 27.2865 26.9459 27.6273 26.1346 27.6468C25.2778 27.6727 24.5086 27.345 23.8271 26.6634C23.1521 25.9884 22.8146 25.2225 22.8146 24.3657C22.8211 23.5674 23.1521 22.8404 23.8077 22.1849C24.5216 21.4709 25.3005 21.1529 26.1443 21.2308C26.8842 21.2957 27.6047 21.6786 28.3057 22.3796L28.403 22.477L25.2486 25.6314C25.5342 25.917 25.8392 26.0858 26.1638 26.1377C26.6246 26.2091 27.04 26.0598 27.41 25.6898C27.8513 25.2485 27.9941 24.7357 27.8383 24.1516ZM24.5281 24.8331L26.524 22.8372C26.2059 22.61 25.8782 22.5224 25.5407 22.5743C25.2031 22.6133 24.9143 22.7528 24.6742 22.993C24.4405 23.2266 24.3009 23.5155 24.2555 23.8595C24.2166 24.197 24.3074 24.5215 24.5281 24.8331Z" fill="#5D6773"/>
<path d="M27.2373 19.1271L28.5435 18.0709L29.9979 19.8696L30.278 16.6685L31.9054 15.3526L31.4777 19.1157L35.761 19.902L34.0908 21.2525L30.9351 20.6346L30.8983 20.9831L32.292 22.7069L30.9858 23.763L27.2373 19.1271Z" fill="#5D6773"/>
<path d="M37.6775 12.4377L37.2636 11.7872L38.6808 10.8855L41.8813 15.9155L40.464 16.8172L40.0501 16.1667C40.0156 16.9502 39.673 17.549 39.0225 17.9629C38.2636 18.4458 37.4789 18.5805 36.6686 18.3672C35.8661 18.1489 35.2258 17.6641 34.7478 16.9129C34.265 16.154 34.0932 15.3711 34.2327 14.5643C34.3721 13.7575 34.8097 13.1201 35.5454 12.652C36.2734 12.1888 36.9841 12.1174 37.6775 12.4377ZM37.9615 13.4484C37.5258 13.3448 37.1065 13.4212 36.7038 13.6774C36.3011 13.9337 36.0543 14.2811 35.9635 14.7197C35.8726 15.1583 35.9553 15.5789 36.2115 15.9816C36.4678 16.3843 36.8162 16.6413 37.2569 16.7526C37.6927 16.8561 38.112 16.7797 38.5147 16.5235C38.9174 16.2673 39.1642 15.9199 39.255 15.4813C39.3409 15.0349 39.2558 14.6104 38.9995 14.2077C38.7433 13.805 38.3973 13.5519 37.9615 13.4484Z" fill="#5D6773"/>
<path d="M43.1959 4.15548L44.5854 3.48673C44.8937 4.5506 44.6169 5.47837 43.7552 6.27005C43.6011 6.41552 43.3972 6.59514 43.1435 6.8089C42.8941 7.01041 42.7132 7.16369 42.6008 7.26874C42.4844 7.36552 42.3652 7.50946 42.2433 7.70058C42.1256 7.87945 42.0404 8.08344 41.9877 8.31255C41.8862 8.77905 41.9283 9.25797 42.1138 9.74933L42.1386 9.73738C42.2094 9.3977 42.3907 9.08636 42.6823 8.80338C42.97 8.51212 43.3 8.27693 43.6722 8.0978C44.4993 7.69973 45.2906 7.62956 46.0463 7.8873C46.8552 8.14994 47.4666 8.71136 47.8806 9.57155C48.2946 10.4317 48.3331 11.2842 47.996 12.129C47.6847 12.9002 47.0948 13.4948 46.2263 13.9128C45.3165 14.3507 44.4876 14.4593 43.7396 14.2386C42.8158 13.9701 42.0573 13.2197 41.4642 11.9873C40.6641 10.3248 40.3559 8.98586 40.5395 7.97047C40.6113 7.56921 40.7626 7.19584 40.9937 6.85036C41.2207 6.4966 41.4237 6.24102 41.6026 6.08361C41.7775 5.91792 42.0186 5.72039 42.3259 5.49101C42.6831 5.21723 42.9227 4.98478 43.0446 4.79366C43.1708 4.59029 43.2213 4.37756 43.1959 4.15548ZM44.2434 12.682C44.6722 12.8322 45.1058 12.8018 45.5442 12.5908C45.9826 12.3798 46.2727 12.0619 46.4146 11.6371C46.5648 11.2083 46.5363 10.7788 46.3293 10.3487C46.1184 9.91034 45.8026 9.61409 45.3821 9.45994C44.9615 9.3058 44.5279 9.33621 44.0813 9.55116C43.6347 9.76612 43.3404 10.086 43.1985 10.5108C43.0566 10.9357 43.0911 11.3673 43.3021 11.8056C43.5091 12.2357 43.8229 12.5279 44.2434 12.682Z" fill="#5D6773"/>
<path d="M51.251 10.6952L52.5459 14.4432L50.9582 14.9917L47.9682 6.33747L49.5559 5.78892L49.8077 6.5177C50.0317 5.76051 50.5384 5.24553 51.3279 4.97276C52.1521 4.68799 52.9176 4.73915 53.6243 5.12623C54.331 5.51332 54.8343 6.14065 55.134 7.00825C55.4338 7.87584 55.418 8.68736 55.0866 9.44282C54.7608 10.1866 54.1859 10.7009 53.3617 10.9856C52.6069 11.2464 51.9033 11.1496 51.251 10.6952ZM52.6606 6.59544C52.2607 6.3937 51.8352 6.37076 51.3841 6.52663C50.9329 6.6825 50.6123 6.96322 50.4222 7.3688C50.2322 7.77437 50.2151 8.20273 50.3709 8.65388C50.5268 9.10503 50.8062 9.43581 51.2091 9.64623C51.609 9.84797 52.0345 9.8709 52.4856 9.71503C52.9368 9.55916 53.2574 9.27844 53.4475 8.87287C53.6345 8.45862 53.6501 8.02592 53.4943 7.57478C53.3384 7.12363 53.0605 6.79718 52.6606 6.59544Z" fill="#5D6773"/>
<path d="M56.7452 9.64418L57.9711 7.07934C57.5829 7.11082 57.2351 7.02962 56.9277 6.83576C56.5543 6.60035 56.3088 6.22303 56.1912 5.7038C56.0553 5.104 56.1775 4.56336 56.5578 4.08189C56.8966 3.66631 57.4599 3.36926 58.2477 3.19076L60.5574 2.66743L61.8748 8.4819L60.2366 8.8531L59.7741 6.81199L59.5861 6.85459L58.6252 9.21821L56.7452 9.64418ZM59.5063 5.6303L59.2112 4.32775L58.4995 4.48901C58.2488 4.54581 58.0775 4.6411 57.9854 4.7749C57.8726 4.94164 57.8396 5.12796 57.8862 5.33386C57.9349 5.54871 58.043 5.69362 58.2106 5.76859C58.3582 5.83867 58.5529 5.84633 58.7946 5.79156L59.5063 5.6303Z" fill="#5D6773"/>
<path d="M69.8257 4.11756C69.4338 3.75753 69.2265 3.31155 69.2039 2.77964C69.1813 2.24773 69.35 1.78579 69.71 1.39381C70.0701 1.00183 70.516 0.794549 71.048 0.771955C71.5799 0.749362 72.0418 0.918082 72.4338 1.27812C72.8258 1.63815 73.033 2.08412 73.0556 2.61603C73.0782 3.14795 72.9095 3.60989 72.5495 4.00187C72.1894 4.39384 71.7435 4.60113 71.2116 4.62372C70.6797 4.64632 70.2177 4.4776 69.8257 4.11756Z" fill="#5D6773"/>
<path d="M80.0554 7.41118L83.3353 4.61012L81.4697 1.59338L83.5674 1.90259L84.5412 3.60489L85.992 2.25999L88.0897 2.56921L85.3921 4.91331L87.7107 8.53961L85.5857 8.22638L84.1999 5.92055L82.1804 7.72441L80.0554 7.41118Z" fill="#5D6773"/>
<path d="M94.2551 4.91314L94.4568 4.16893L96.0781 4.6083L94.5187 10.3626L92.8974 9.92324L93.0991 9.17903C92.4969 9.68156 91.8237 9.83199 91.0795 9.63031C90.2112 9.39502 89.5829 8.90616 89.1945 8.16371C88.8149 7.42366 88.7415 6.62395 88.9744 5.76457C89.2097 4.89633 89.6724 4.24187 90.3624 3.80119C91.0524 3.36051 91.8183 3.25421 92.66 3.4823C93.4928 3.70798 94.0245 4.18493 94.2551 4.91314ZM93.6998 5.80404C93.4826 5.41232 93.1437 5.15404 92.683 5.02919C92.2223 4.90435 91.7993 4.95615 91.414 5.18461C91.0288 5.41306 90.7737 5.75764 90.6489 6.21834C90.524 6.67903 90.569 7.10967 90.7838 7.51025C91.001 7.90196 91.34 8.16025 91.8006 8.28509C92.2613 8.40994 92.6843 8.35813 93.0696 8.12968C93.4572 7.89236 93.7135 7.54336 93.8383 7.08266C93.9632 6.62196 93.917 6.19575 93.6998 5.80404Z" fill="#5D6773"/>
<path d="M97.999 5.25146L99.5604 5.87096L98.7073 8.02105L101.634 6.69356L103.579 7.46538L100.091 8.94018L101.508 13.0578L99.5118 12.2656L98.501 9.21309L98.1792 9.35206L97.3617 11.4126L95.8003 10.7931L97.999 5.25146Z" fill="#5D6773"/>
<path d="M108.666 10.9319L109.028 10.2514L110.511 11.0409L107.708 16.3032L106.226 15.5136L106.588 14.8331C105.889 15.1888 105.199 15.1855 104.519 14.823C103.725 14.4002 103.221 13.7837 103.008 12.9733C102.803 12.1673 102.909 11.3714 103.328 10.5855C103.751 9.79148 104.348 9.25655 105.118 8.98068C105.889 8.70481 106.66 8.77181 107.429 9.18168C108.191 9.58724 108.603 10.1707 108.666 10.9319ZM107.926 11.6767C107.801 11.2465 107.528 10.9192 107.107 10.6948C106.686 10.4705 106.262 10.4267 105.835 10.5636C105.409 10.7005 105.084 10.9796 104.859 11.4009C104.635 11.8222 104.583 12.252 104.703 12.6904C104.827 13.1207 105.1 13.448 105.522 13.6723C105.943 13.8967 106.367 13.9404 106.793 13.8035C107.224 13.6585 107.552 13.3754 107.776 12.9541C108 12.5328 108.05 12.107 107.926 11.6767Z" fill="#5D6773"/>
<path d="M114.971 15.6568L113.594 14.7445L111.092 18.5211L109.692 17.5935L112.193 13.8169L110.816 12.9045L111.606 11.7107L115.762 14.463L114.971 15.6568Z" fill="#5D6773"/>
<path d="M116.795 16.0047C117.619 15.9502 118.419 16.2375 119.197 16.8666C119.975 17.4957 120.424 18.2184 120.543 19.0347C120.683 19.9271 120.453 20.7444 119.853 21.4868C119.258 22.222 118.51 22.6144 117.608 22.6642C116.785 22.7187 115.984 22.4314 115.206 21.8023C114.428 21.1732 113.98 20.4505 113.861 19.6342C113.721 18.7418 113.948 17.928 114.542 17.1928C115.142 16.4505 115.894 16.0545 116.795 16.0047ZM115.521 19.5074C115.563 19.9664 115.77 20.3459 116.141 20.646C116.512 20.9461 116.927 21.0687 117.384 21.0137C117.842 20.9588 118.215 20.7529 118.504 20.396C118.798 20.0319 118.924 19.6205 118.882 19.1615C118.84 18.7025 118.633 18.323 118.262 18.0229C117.891 17.7228 117.477 17.6002 117.019 17.6552C116.562 17.7101 116.186 17.9196 115.891 18.2836C115.603 18.6405 115.479 19.0484 115.521 19.5074Z" fill="#5D6773"/>
<path d="M118.891 24.6343L123.137 20.4493L124.316 21.6457L122.815 23.1245L124.458 24.7916L125.959 23.3128L127.138 24.5092L122.892 28.6941L121.713 27.4977L123.439 25.7967L121.796 24.1296L120.07 25.8307L118.891 24.6343Z" fill="#5D6773"/>
<path d="M131.226 29.3629L132.184 30.7427L129.164 32.8395L133.754 33.0045L134.712 34.3843L129.815 37.7848L128.857 36.405L131.877 34.3082L127.287 34.1432L126.329 32.7634L131.226 29.3629Z" fill="#5D6773"/>
<path d="M136.017 36.5435L138.379 40.9012L134.397 43.0599L134.817 43.8346L132.033 45.3437L131.311 44.0122L132.836 43.1854L130.881 39.5782L129.356 40.4049L128.634 39.0734L131.418 37.5643C131.665 37.9627 132.056 38.1531 132.589 38.1355C132.962 38.1108 133.447 37.9367 134.044 37.613L136.017 36.5435ZM133.596 41.5831L136.32 40.1068L135.48 38.5574L134.318 39.1873C133.608 39.5722 132.982 39.6607 132.441 39.4527L133.596 41.5831Z" fill="#5D6773"/>
<path d="M137.337 48.6683L137.687 50.1905C137.51 50.193 137.324 50.1743 137.129 50.1343C136.947 50.0993 136.704 50.0246 136.4 49.9101C136.104 49.7922 135.818 49.5865 135.54 49.2929C135.271 48.9958 135.045 48.6219 134.862 48.171C134.511 47.3034 134.484 46.4921 134.782 45.7373C135.092 44.9382 135.693 44.3575 136.587 43.9954C137.471 43.6367 138.308 43.6242 139.097 43.958C139.83 44.275 140.371 44.8631 140.719 45.7223C141.098 46.658 141.088 47.4993 140.687 48.246C140.339 48.9022 139.706 49.4165 138.787 49.789L138.66 49.8407L136.983 45.7066C136.609 45.8583 136.335 46.0735 136.16 46.3522C135.915 46.7488 135.891 47.1895 136.087 47.6744C136.322 48.2528 136.739 48.5841 137.337 48.6683ZM137.999 45.3541L139.06 47.9698C139.393 47.7654 139.601 47.4977 139.685 47.1666C139.781 46.8406 139.765 46.5202 139.637 46.2055C139.513 45.8993 139.301 45.6582 139.002 45.4823C138.706 45.315 138.372 45.2722 137.999 45.3541Z" fill="#5D6773"/>
<path d="M142.284 50.3296L142.736 51.9475L139.195 52.9359L143.476 54.5998L143.928 56.2178L138.186 57.8207L137.734 56.2028L141.275 55.2144L136.994 53.5505L136.542 51.9326L142.284 50.3296ZM146.295 53.5843L146.087 54.7859C145.543 54.7473 145.106 54.5499 144.778 54.1936C144.459 53.8348 144.237 53.4344 144.114 52.9923C143.991 52.5503 143.973 52.0931 144.06 51.6208C144.156 51.146 144.427 50.7511 144.873 50.4361L145.673 51.3564C145.449 51.476 145.286 51.6598 145.184 51.9075C145.084 52.1642 145.072 52.4295 145.148 52.7036C145.22 52.96 145.356 53.1745 145.557 53.3472C145.758 53.5199 146.004 53.5989 146.295 53.5843Z" fill="#5D6773"/>
<path d="M142.738 65.1141C143.081 64.7072 143.518 64.4812 144.048 64.4361C144.579 64.3909 145.047 64.5399 145.454 64.883C145.861 65.2261 146.087 65.6629 146.132 66.1934C146.177 66.7239 146.028 67.1925 145.685 67.5994C145.342 68.0063 144.905 68.2323 144.375 68.2774C143.844 68.3226 143.376 68.1736 142.969 67.8305C142.562 67.4874 142.336 67.0506 142.291 66.5201C142.246 65.9896 142.395 65.521 142.738 65.1141Z" fill="#5D6773"/>
</svg>
