<svg width="400" height="384" viewBox="0 0 400 384" fill="none" xmlns="http://www.w3.org/2000/svg">
<path d="M361.73 203.149C361.923 200.028 363.134 197.483 365.362 195.515C367.616 193.575 370.262 192.699 373.3 192.887C376.392 193.078 378.91 194.273 380.853 196.472C382.822 198.7 383.71 201.375 383.517 204.495C383.393 206.511 382.796 208.317 381.727 209.915C380.658 211.512 379.284 212.674 377.603 213.402L375.605 209.411C376.628 209.003 377.445 208.333 378.057 207.401C378.695 206.498 379.053 205.425 379.129 204.182C379.242 202.36 378.715 200.789 377.55 199.469C376.354 198.176 374.846 197.473 373.023 197.36C371.201 197.248 369.617 197.759 368.271 198.896C366.952 200.062 366.236 201.556 366.123 203.378C366.048 204.593 366.257 205.701 366.749 206.702C367.268 207.732 368.009 208.526 368.972 209.085L366.539 212.801C364.936 211.815 363.704 210.45 362.842 208.706C361.978 206.989 361.607 205.137 361.73 203.149Z" fill="#343841"/>
<path d="M358.851 225.226C359.466 222.132 360.977 219.781 363.384 218.172C365.807 216.622 368.593 216.16 371.741 216.786C375.16 217.465 377.717 218.509 379.411 219.918C381.084 221.294 382.392 223.725 383.336 227.213C383.368 227.332 383.415 227.525 383.475 227.791C383.556 228.089 383.636 228.401 383.712 228.726C383.788 229.052 383.865 229.377 383.941 229.703C384.23 230.945 384.416 231.715 384.497 232.013C384.547 232.192 384.751 232.727 385.11 233.616C385.6 234.701 386.436 235.53 387.62 236.103L384.832 239.273C383.367 238.841 382.182 237.632 381.279 235.648C381.067 235.295 380.852 234.674 380.634 233.785L380.167 231.873L379.717 229.667C379.362 227.763 378.902 226.318 378.336 225.331C377.77 224.344 376.95 223.575 375.875 223.023C377.397 225.018 377.88 227.413 377.325 230.208C376.85 232.596 375.583 234.502 373.523 235.926C371.458 237.377 369.068 237.834 366.355 237.294C363.587 236.744 361.496 235.342 360.082 233.087C358.663 230.858 358.253 228.238 358.851 225.226ZM362.971 226.002C362.631 227.712 362.855 229.209 363.644 230.494C364.459 231.784 365.654 232.586 367.228 232.898C368.829 233.216 370.253 232.935 371.5 232.055C372.741 231.201 373.532 229.92 373.871 228.21C374.173 226.69 373.957 225.223 373.223 223.808C372.543 222.403 371.389 221.539 369.76 221.216C368.132 220.892 366.676 221.195 365.391 222.125C364.106 223.054 363.3 224.347 362.971 226.002Z" fill="#343841"/>
<path d="M352.967 256.606C351.686 253.922 351.558 251.133 352.583 248.238C353.607 245.343 355.462 243.255 358.145 241.974C360.864 240.677 363.658 240.536 366.527 241.551C369.396 242.567 371.479 244.434 372.777 247.153C374.058 249.837 374.186 252.626 373.161 255.521C372.136 258.416 370.282 260.504 367.598 261.784C364.879 263.082 362.085 263.223 359.216 262.207C356.347 261.192 354.264 259.325 352.967 256.606ZM365.032 245.776C363.258 245.149 361.577 245.214 359.988 245.972C358.399 246.73 357.3 247.97 356.691 249.691C356.081 251.413 356.156 253.068 356.914 254.657C357.672 256.246 358.938 257.355 360.712 257.982C362.485 258.61 364.167 258.545 365.756 257.787C367.345 257.028 368.444 255.788 369.053 254.067C369.662 252.346 369.588 250.691 368.83 249.101C368.071 247.512 366.805 246.404 365.032 245.776Z" fill="#343841"/>
<path d="M361.389 282.311C360.072 284.807 357.994 286.463 355.154 287.279C352.352 288.084 349.605 287.776 346.913 286.355C344.197 284.922 342.381 282.821 341.464 280.054C340.547 277.286 340.754 274.642 342.084 272.122C343.543 269.357 345.701 267.759 348.557 267.326L338.611 262.077L340.703 258.113L366.394 271.673L364.302 275.636L361.659 274.242C362.951 276.832 362.861 279.522 361.389 282.311ZM350.034 270.218C348.352 270.738 347.072 271.83 346.194 273.493C345.315 275.157 345.136 276.83 345.656 278.512C346.201 280.207 347.317 281.501 349.005 282.392C350.694 283.283 352.379 283.468 354.061 282.948C355.768 282.441 357.06 281.356 357.938 279.692C358.816 278.028 358.983 276.349 358.439 274.654C357.919 272.971 356.815 271.685 355.126 270.794C353.463 269.916 351.765 269.724 350.034 270.218Z" fill="#343841"/>
<path d="M332.564 306.371L318.386 307.075L321.752 302.912L334.556 302.324L327.101 296.296L329.919 292.811L346.055 305.858L343.237 309.343L336.105 303.577L338.175 315.604L334.73 319.863L332.564 306.371Z" fill="#343841"/>
<path d="M305.966 322.678C306.042 319.705 307.193 317.161 309.419 315.045C311.645 312.93 314.244 311.91 317.217 311.985C320.229 312.062 322.783 313.203 324.879 315.409C326.976 317.615 327.986 320.224 327.909 323.236C327.834 326.209 326.683 328.753 324.457 330.868C322.231 332.984 319.631 334.004 316.659 333.928C313.647 333.852 311.093 332.71 308.996 330.504C306.9 328.298 305.89 325.69 305.966 322.678ZM321.631 318.497C320.335 317.133 318.807 316.429 317.046 316.384C315.286 316.339 313.744 316.946 312.421 318.204C311.097 319.462 310.413 320.971 310.368 322.731C310.323 324.491 310.949 326.053 312.245 327.417C313.541 328.78 315.069 329.485 316.829 329.529C318.59 329.574 320.131 328.968 321.455 327.71C322.779 326.452 323.463 324.943 323.508 323.183C323.552 321.423 322.927 319.861 321.631 318.497Z" fill="#343841"/>
<path d="M297.409 351.842L293.679 354.473L281.719 337.516L285.28 335.004L293.149 346.162L292.556 334.951L292.996 334.641L303.3 338.952L295.454 327.829L299.015 325.317L310.975 342.274L307.244 344.905L296.801 340.539L297.409 351.842Z" fill="#343841"/>
<path d="M271.489 362.96L272.816 365.591L268.814 367.609L259.47 349.082L263.472 347.064L264.817 349.732C265.265 346.872 266.897 344.732 269.713 343.312C272.258 342.028 274.905 341.871 277.655 342.839C280.405 343.807 282.472 345.662 283.855 348.404C285.238 351.146 285.501 353.91 284.644 356.697C283.788 359.484 282.087 361.519 279.543 362.802C276.727 364.222 274.042 364.275 271.489 362.96ZM276.036 347.002C274.364 346.451 272.688 346.599 271.008 347.446C269.328 348.293 268.213 349.553 267.662 351.225C267.123 352.922 267.284 354.623 268.144 356.327C269.003 358.032 270.269 359.159 271.941 359.71C273.626 360.286 275.308 360.15 276.988 359.303C278.668 358.456 279.777 357.184 280.316 355.487C280.867 353.815 280.712 352.126 279.853 350.422C279.006 348.742 277.733 347.602 276.036 347.002Z" fill="#343841"/>
<path d="M245.988 367.032L248.597 374.868L244.344 376.284L237.79 356.596L242.043 355.18L244.651 363.016L253.668 360.014L251.06 352.179L255.312 350.763L261.866 370.451L257.614 371.866L255.005 364.031L245.988 367.032Z" fill="#343841"/>
<path d="M218.795 381.622L215.825 365.374L213.089 365.874L211.328 356.24L215.655 355.449L216.655 360.919L230.658 358.359L229.658 352.889L233.985 352.098L235.746 361.732L233.256 362.188C232.323 364.158 232.147 366.736 232.729 369.92L234.349 378.779L218.795 381.622ZM228.398 363.076L220.152 364.583L222.383 376.79L229.283 375.528L228.402 370.711C227.864 367.772 227.863 365.227 228.398 363.076Z" fill="#343841"/>
<path d="M205.011 375.961L200.447 376.084C198.207 376.145 196.378 375.557 194.961 374.323C193.517 373.116 192.767 371.49 192.712 369.443C192.658 367.424 193.318 365.76 194.694 364.449C196.043 363.14 197.837 362.455 200.077 362.394L209.121 362.15L209.682 382.892L205.201 383.013L205.011 375.961ZM190.038 362.665L190.599 383.408L186.118 383.529L185.558 362.786L190.038 362.665ZM204.749 366.295L200.145 366.419C199.26 366.443 198.534 366.726 197.967 367.267C197.373 367.809 197.087 368.495 197.11 369.324C197.132 370.154 197.441 370.824 198.036 371.333C198.631 371.843 199.384 372.086 200.297 372.061L204.902 371.937L204.749 366.295Z" fill="#343841"/>
<path d="M142.458 364.938C143.867 365.343 144.922 366.178 145.624 367.445C146.325 368.712 146.473 370.049 146.068 371.459C145.678 372.815 144.854 373.83 143.595 374.505C142.309 375.172 140.975 375.307 139.593 374.909C138.237 374.52 137.217 373.709 136.535 372.476C135.853 371.244 135.707 369.95 136.096 368.594C136.494 367.211 137.316 366.152 138.564 365.416C139.804 364.708 141.102 364.548 142.458 364.938Z" fill="#343841"/>
<path d="M100.048 334.93C102.68 336.618 104.313 338.914 104.947 341.82C105.544 344.733 105.02 347.471 103.377 350.032C101.704 352.64 99.4343 354.258 96.5674 354.884C93.6623 355.519 90.894 354.992 88.2625 353.304C86.5625 352.214 85.2752 350.813 84.4008 349.101C83.5263 347.39 83.1805 345.623 83.3631 343.801L87.8217 343.999C87.6799 345.091 87.8671 346.131 88.3834 347.12C88.8615 348.117 89.6245 348.951 90.6725 349.624C92.2094 350.61 93.838 350.915 95.5581 350.539C97.2699 350.125 98.6187 349.149 99.6046 347.612C100.59 346.075 100.915 344.443 100.577 342.714C100.201 340.994 99.245 339.641 97.708 338.655C96.6834 337.998 95.6141 337.641 94.5003 337.584C93.3483 337.535 92.2938 337.795 91.3369 338.365L89.2758 334.43C90.9172 333.51 92.7096 333.099 94.653 333.195C96.5731 333.276 98.3714 333.855 100.048 334.93Z" fill="#343841"/>
<path d="M82.2939 321.756C84.7026 323.792 86.0278 326.253 86.2696 329.138C86.4512 332.009 85.5061 334.669 83.4342 337.12C81.1837 339.782 79.0319 341.514 76.9787 342.314C74.9645 343.111 72.2034 343.077 68.6954 342.213C68.5752 342.184 68.3842 342.131 68.1226 342.055C67.822 341.982 67.5109 341.9 67.1892 341.809C66.8674 341.718 66.5457 341.628 66.224 341.537C64.9972 341.188 64.2336 340.977 63.933 340.904C63.7526 340.86 63.1864 340.78 62.2343 340.664C61.0482 340.567 59.9176 340.897 58.8425 341.655L57.4199 337.681C58.5079 336.608 60.1388 336.157 62.3127 336.328C62.7237 336.313 63.3712 336.426 64.2551 336.666L66.1537 337.184L68.301 337.858C70.1388 338.47 71.6263 338.767 72.7635 338.751C73.9008 338.734 74.9712 338.389 75.975 337.716C73.4927 338.081 71.1634 337.344 68.9871 335.504C67.1278 333.932 66.0741 331.9 65.826 329.408C65.5568 326.898 66.3152 324.587 68.1013 322.474C69.9232 320.319 72.163 319.169 74.8209 319.025C77.4576 318.863 79.9486 319.773 82.2939 321.756ZM79.6196 324.983C78.2885 323.858 76.8699 323.329 75.3639 323.397C73.84 323.485 72.5601 324.142 71.5242 325.367C70.4704 326.614 70.0267 327.996 70.1931 329.513C70.3384 331.013 71.0766 332.325 72.4077 333.45C73.5909 334.451 74.9794 334.972 76.5732 335.015C78.1313 335.101 79.4461 334.51 80.5178 333.242C81.5895 331.974 82.0299 330.553 81.8391 328.979C81.6483 327.405 80.9084 326.073 79.6196 324.983Z" fill="#343841"/>
<path d="M57.9174 301.642C60.886 301.815 63.3911 303.048 65.4327 305.342C67.4744 307.636 68.4088 310.267 68.236 313.236C68.0609 316.244 66.8367 318.759 64.5633 320.782C62.2899 322.806 59.6494 323.73 56.6418 323.555C53.6732 323.382 51.1681 322.148 49.1264 319.854C47.0847 317.56 46.1503 314.929 46.3231 311.96C46.4982 308.953 47.7224 306.437 49.9958 304.414C52.2692 302.391 54.9097 301.467 57.9174 301.642ZM61.5836 317.434C62.989 316.184 63.7428 314.679 63.8451 312.922C63.9475 311.164 63.3916 309.603 62.1777 308.239C60.9637 306.875 59.4779 306.142 57.7201 306.039C55.9624 305.937 54.3809 306.511 52.9755 307.762C51.5702 309.013 50.8163 310.517 50.714 312.275C50.6117 314.033 51.1675 315.593 52.3815 316.957C53.5954 318.321 55.0813 319.055 56.839 319.157C58.5967 319.259 60.1782 318.685 61.5836 317.434Z" fill="#343841"/>
<path d="M31.2538 296.507C29.7041 294.149 29.2574 291.529 29.9135 288.649C30.5617 285.806 32.1575 283.549 34.7009 281.878C37.2674 280.191 39.9839 279.615 42.8502 280.148C45.7165 280.681 47.9321 282.139 49.497 284.52C51.2138 287.133 51.572 289.794 50.5717 292.504L59.9708 286.328L62.432 290.074L38.154 306.026L35.6928 302.281L38.1899 300.64C35.2978 300.521 32.9858 299.143 31.2538 296.507ZM47.3265 292.402C47.6833 290.678 47.3452 289.03 46.3121 287.457C45.279 285.885 43.9003 284.92 42.1762 284.564C40.4289 284.222 38.7575 284.575 37.1621 285.624C35.5667 286.672 34.5906 288.058 34.2338 289.782C33.8538 291.522 34.1804 293.178 35.2135 294.75C36.2467 296.322 37.6368 297.279 39.3841 297.621C41.1083 297.977 42.7681 297.632 44.3635 296.583C45.9358 295.55 46.9235 294.157 47.3265 292.402Z" fill="#343841"/>
<path d="M24.224 260.001L30.4281 247.233L32.4582 252.187L26.8137 263.694L35.6843 260.059L37.3839 264.206L18.1836 272.075L16.484 267.927L24.9705 264.45L13.431 260.478L11.3538 255.409L24.224 260.001Z" fill="#343841"/>
<path d="M22.7199 228.592C25.2824 230.1 26.9483 232.341 27.7177 235.314C28.4872 238.287 28.1175 241.055 26.6088 243.617C25.0801 246.214 22.8427 247.893 19.8964 248.655C16.9502 249.418 14.179 249.035 11.5828 247.506C9.02041 245.998 7.35447 243.757 6.58502 240.784C5.81558 237.811 6.18524 235.043 7.69401 232.48C9.22263 229.884 11.4601 228.205 14.4063 227.442C17.3526 226.68 20.1238 227.063 22.7199 228.592ZM18.7735 244.316C20.5948 243.845 21.9521 242.851 22.8455 241.334C23.7388 239.816 23.9567 238.174 23.4992 236.406C23.0417 234.638 22.0544 233.308 20.5371 232.414C19.0199 231.521 17.3506 231.31 15.5293 231.781C13.708 232.253 12.3506 233.247 11.4573 234.764C10.5639 236.282 10.346 237.924 10.8035 239.692C11.261 241.46 12.2484 242.79 13.7656 243.683C15.2829 244.577 16.9521 244.788 18.7735 244.316Z" fill="#343841"/>
<path d="M1.37964 207.167L0.887846 202.629L21.5171 200.393L21.9865 204.725L8.41248 206.196L18.5045 211.114L18.5626 211.65L9.79499 218.569L23.3278 217.103L23.7972 221.435L3.16797 223.67L2.67618 219.132L11.5586 212.117L1.37964 207.167Z" fill="#343841"/>
<path d="M4.2296 178.388L1.28575 178.263L1.47596 173.785L22.2073 174.665L22.0171 179.143L19.0318 179.016C21.3097 180.802 22.3817 183.271 22.2479 186.422C22.1269 189.269 20.9732 191.657 18.7867 193.586C16.6003 195.514 13.9729 196.413 10.9047 196.283C7.83643 196.153 5.29479 195.034 3.27972 192.927C1.26466 190.82 0.317599 188.343 0.438534 185.496C0.572383 182.344 1.83607 179.975 4.2296 178.388ZM15.9423 190.142C17.239 188.951 17.9273 187.415 18.0072 185.536C18.087 183.656 17.5314 182.068 16.3404 180.771C15.1217 179.473 13.5587 178.784 11.6514 178.703C9.74413 178.622 8.14213 179.177 6.84542 180.368C5.52106 181.558 4.81896 183.093 4.73912 184.972C4.65928 186.852 5.2287 188.441 6.44739 189.738C7.63843 191.035 9.18759 191.724 11.0949 191.805C12.9745 191.885 14.5903 191.33 15.9423 190.142Z" fill="#343841"/>
<path d="M12.9945 154.259L4.87637 152.743L5.69927 148.337L26.0965 152.147L25.2736 156.553L17.1555 155.036L15.4107 164.378L23.5288 165.895L22.7059 170.3L2.30859 166.491L3.1315 162.085L11.2496 163.601L12.9945 154.259Z" fill="#343841"/>
<path d="M13.3304 123.574L28.9821 128.85L29.8702 126.215L39.1511 129.344L37.746 133.512L32.4763 131.736L27.9294 145.225L33.1991 147.001L31.7939 151.17L22.513 148.041L23.3216 145.642C22.0503 143.871 19.8809 142.468 16.8135 141.434L8.27975 138.557L13.3304 123.574ZM24.8991 140.962L27.5769 133.019L15.8185 129.055L13.5782 135.701L18.2186 137.265C21.0501 138.22 23.2769 139.452 24.8991 140.962Z" fill="#343841"/>
<path d="M25.1394 113.803L27.2551 109.758C28.2938 107.772 29.6976 106.461 31.4664 105.825C33.2236 105.152 35.0093 105.29 36.8234 106.239C38.6131 107.175 39.7448 108.563 40.2185 110.403C40.7051 112.219 40.429 114.119 39.3904 116.105L35.1973 124.122L16.8105 114.504L18.8879 110.533L25.1394 113.803ZM44.0451 107.206L25.6584 97.5886L27.7357 93.6171L46.1224 103.234L44.0451 107.206ZM33.7076 118.284L35.8426 114.203C36.2529 113.418 36.3598 112.647 36.1633 111.888C35.9796 111.105 35.5201 110.521 34.7846 110.137C34.0491 109.752 33.3138 109.695 32.5788 109.966C31.8437 110.237 31.2646 110.778 30.8414 111.587L28.7064 115.668L33.7076 118.284Z" fill="#343841"/>
<path d="M64.6431 65.1988C63.6063 66.2356 62.364 66.7541 60.9163 66.7541C59.4686 66.7541 58.2264 66.2356 57.1895 65.1988C56.1918 64.2011 55.7027 62.9881 55.7223 61.56C55.7614 60.1123 56.2896 58.8798 57.3069 57.8625C58.3046 56.8648 59.5078 56.366 60.9163 56.366C62.3249 56.366 63.528 56.8648 64.5257 57.8625C65.543 58.8798 66.0712 60.1123 66.1104 61.56C66.1299 62.9881 65.6408 64.2011 64.6431 65.1988Z" fill="#343841"/>
<path d="M110.614 42.8673C107.871 44.3672 105.073 44.6992 102.219 43.8631C99.3764 42.9895 97.225 41.2176 95.7649 38.5475C94.2782 35.8287 93.9474 33.0613 94.7724 30.2452C95.6085 27.3915 97.398 25.2147 100.141 23.7147C101.913 22.7457 103.76 22.2878 105.681 22.341C107.602 22.3942 109.318 22.9377 110.829 23.9717L108.518 27.7897C107.628 27.1414 106.625 26.8069 105.51 26.786C104.406 26.7275 103.307 26.997 102.215 27.5943C100.613 28.4704 99.5645 29.7532 99.0694 31.4429C98.612 33.1436 98.8213 34.795 99.6973 36.3971C100.573 37.9992 101.851 39.0665 103.529 39.5991C105.219 40.0941 106.865 39.9036 108.467 39.0275C109.535 38.4435 110.361 37.6764 110.945 36.7264C111.541 35.7387 111.818 34.6885 111.777 33.5757L116.218 33.6538C116.238 35.535 115.74 37.3053 114.724 38.9646C113.732 40.6107 112.362 41.9115 110.614 42.8673Z" fill="#343841"/>
<path d="M131.459 33.2281C128.51 34.3471 125.716 34.3128 123.075 33.1251C120.477 31.892 118.608 29.7751 117.469 26.7746C116.232 23.5154 115.762 20.7939 116.058 18.6103C116.337 16.4623 117.706 14.0638 120.163 11.415C120.246 11.324 120.385 11.1826 120.579 10.9908C120.788 10.7633 121.011 10.5309 121.246 10.2936C121.482 10.0563 121.717 9.81897 121.953 9.58165C122.852 8.67789 123.407 8.11226 123.617 7.88476C123.743 7.74826 124.087 7.29194 124.651 6.51579C125.311 5.52555 125.57 4.3766 125.429 3.06893L129.594 3.75193C130.005 5.22368 129.608 6.86861 128.404 8.68674C128.218 9.05338 127.806 9.56502 127.167 10.2217L125.793 11.6308L124.162 13.1819C122.736 14.4925 121.755 15.6491 121.218 16.6518C120.681 17.6546 120.464 18.758 120.566 19.9622C121.45 17.6143 123.224 15.9348 125.889 14.9237C128.165 14.0598 130.453 14.1236 132.753 15.1151C135.078 16.0968 136.732 17.881 137.714 20.4677C138.715 23.1061 138.634 25.6224 137.471 28.0168C136.335 30.4013 134.33 32.1384 131.459 33.2281ZM129.933 29.324C131.563 28.7056 132.713 27.7215 133.385 26.3717C134.046 24.9961 134.093 23.5582 133.523 22.058C132.944 20.5318 131.951 19.4736 130.543 18.8834C129.161 18.2833 127.655 18.2925 126.026 18.9109C124.577 19.4606 123.448 20.422 122.637 21.7949C121.807 23.1161 121.686 24.5527 122.275 26.1047C122.864 27.6567 123.893 28.731 125.363 29.3275C126.832 29.924 128.355 29.9228 129.933 29.324Z" fill="#343841"/>
<path d="M160.328 21.7068C158.742 24.2221 156.451 25.8191 153.456 26.4977C150.461 27.1763 147.706 26.7226 145.191 25.1366C142.642 23.5297 141.032 21.2422 140.359 18.2741C139.687 15.306 140.154 12.5477 141.761 9.99928C143.347 7.48395 145.637 5.88697 148.632 5.20834C151.627 4.52971 154.383 4.98341 156.898 6.56945C159.446 8.17636 161.057 10.4639 161.729 13.432C162.402 16.4001 161.935 19.1583 160.328 21.7068ZM144.73 17.2836C145.146 19.1185 146.099 20.5054 147.588 21.4445C149.077 22.3836 150.712 22.6514 152.493 22.2479C154.274 21.8444 155.634 20.898 156.573 19.4086C157.512 17.9193 157.774 16.2572 157.358 14.4224C156.943 12.5876 155.99 11.2006 154.501 10.2615C153.011 9.3224 151.376 9.0546 149.595 9.45811C147.814 9.86162 146.454 10.808 145.515 12.2974C144.576 13.7867 144.315 15.4488 144.73 17.2836Z" fill="#343841"/>
<path d="M177.609 0.796515C180.423 0.579024 182.932 1.45338 185.138 3.41959C187.313 5.36035 188.518 7.84787 188.753 10.8822C188.99 13.944 188.182 16.601 186.331 18.8531C184.479 21.1051 182.133 22.341 179.291 22.5606C176.174 22.8015 173.671 21.8296 171.782 19.6447L172.649 30.8577L168.18 31.2032L165.941 2.23956L170.41 1.89413L170.64 4.87324C172.141 2.3985 174.464 1.03959 177.609 0.796515ZM173.439 16.8526C174.776 17.998 176.383 18.4982 178.259 18.3532C180.134 18.2082 181.645 17.4671 182.79 16.1298C183.933 14.765 184.431 13.1309 184.284 11.2276C184.137 9.32426 183.395 7.79992 182.058 6.65458C180.718 5.48165 179.111 4.96768 177.235 5.11267C175.359 5.25767 173.85 6.01258 172.707 7.37741C171.561 8.71466 171.062 10.3349 171.209 12.2383C171.354 14.114 172.098 15.6521 173.439 16.8526Z" fill="#343841"/>
<path d="M214.03 12.2751L222.163 23.91L216.848 23.2719L209.543 12.7397L208.401 22.2579L203.951 21.7237L206.424 1.12158L210.874 1.65579L209.781 10.7619L218.867 2.61539L224.306 3.26831L214.03 12.2751Z" fill="#343841"/>
<path d="M242.429 26.2009C239.866 27.7097 237.099 28.0794 234.126 27.3099C231.152 26.5405 228.912 24.8745 227.403 22.3121C225.874 19.716 225.491 16.9447 226.254 13.9985C227.016 11.0522 228.695 8.81479 231.292 7.28617C233.854 5.7774 236.622 5.40774 239.595 6.17718C242.568 6.94663 244.809 8.61257 246.318 11.175C247.846 13.7711 248.229 16.5423 247.467 19.4886C246.704 22.4349 245.025 24.6723 242.429 26.2009ZM230.593 15.1215C230.121 16.9428 230.332 18.6121 231.226 20.1293C232.119 21.6465 233.45 22.6339 235.217 23.0914C236.985 23.5489 238.628 23.331 240.145 22.4376C241.662 21.5443 242.656 20.1869 243.128 18.3656C243.599 16.5443 243.388 14.875 242.495 13.3578C241.601 11.8406 240.271 10.8532 238.503 10.3957C236.735 9.93818 235.093 10.1561 233.576 11.0495C232.058 11.9428 231.064 13.3001 230.593 15.1215Z" fill="#343841"/>
<path d="M271.733 18.013L275.937 19.7913L267.854 38.9021L263.841 37.2046L269.16 24.6297L259.954 31.0545L259.457 30.8443L257.677 19.818L252.374 32.3547L248.361 30.6572L256.444 11.5464L260.649 13.3247L262.456 24.498L271.733 18.013Z" fill="#343841"/>
<path d="M294.701 34.0173L296.236 31.5027L300.061 33.8388L289.246 51.5472L285.421 49.211L286.978 46.661C284.312 47.7883 281.633 47.5299 278.942 45.8859C276.51 44.4006 274.98 42.2343 274.352 39.3872C273.725 36.54 274.211 33.806 275.812 31.1852C277.413 28.5644 279.623 26.8831 282.442 26.1414C285.262 25.3996 287.888 25.7714 290.32 27.2568C293.011 28.9008 294.472 31.1543 294.701 34.0173ZM278.743 38.5677C279.157 40.2791 280.166 41.6251 281.772 42.6058C283.377 43.5864 285.036 43.8699 286.747 43.4563C288.473 43.0192 289.834 41.986 290.829 40.3568C291.824 38.7277 292.114 37.0574 291.701 35.3459C291.302 33.6109 290.299 32.253 288.694 31.2724C287.088 30.2918 285.423 30.0201 283.697 30.4573C281.985 30.8708 280.632 31.8922 279.637 33.5214C278.656 35.1269 278.358 36.809 278.743 38.5677Z" fill="#343841"/>
<path d="M311.684 53.4517L316.946 47.087L320.401 49.943L307.179 65.9348L303.724 63.0788L308.987 56.7141L301.662 50.6583L296.4 57.0231L292.946 54.1671L306.168 38.1753L309.622 41.0313L304.36 47.396L311.684 53.4517Z" fill="#343841"/>
<path d="M338.284 68.4617L326.107 79.6208L327.985 81.6707L320.765 88.2877L317.793 85.0445L321.892 81.2874L312.275 70.7929L308.176 74.55L305.204 71.3068L312.424 64.6898L314.135 66.5562C316.3 66.2982 318.576 65.0757 320.962 62.8888L327.602 56.8046L338.284 68.4617ZM317.471 70.1972L323.135 76.3776L332.283 67.9943L327.545 62.8235L323.934 66.132C321.731 68.1507 319.577 69.5058 317.471 70.1972Z" fill="#343841"/>
<path d="M340.903 83.1239L343.438 86.9205C344.682 88.7843 345.159 90.6448 344.869 92.502C344.617 94.3667 343.64 95.8675 341.937 97.0043C340.257 98.1257 338.496 98.453 336.654 97.9861C334.828 97.5423 333.292 96.3884 332.048 94.5246L327.025 87.0004L344.282 75.479L346.771 79.2066L340.903 83.1239ZM337.624 102.877L354.882 91.3559L357.37 95.0835L340.113 106.605L337.624 102.877ZM332.861 88.4928L335.419 92.324C335.911 93.0603 336.536 93.5241 337.296 93.7155C338.071 93.9298 338.804 93.8066 339.494 93.3457C340.185 92.8849 340.587 92.2669 340.702 91.4918C340.816 90.7167 340.62 89.9495 340.113 89.1902L337.555 85.359L332.861 88.4928Z" fill="#343841"/>
<path d="M364.651 141.112C364.241 139.704 364.384 138.366 365.08 137.096C365.776 135.827 366.828 134.987 368.236 134.577C369.591 134.182 370.889 134.337 372.132 135.041C373.382 135.772 374.209 136.828 374.611 138.209C375.006 139.564 374.865 140.858 374.187 142.093C373.51 143.328 372.494 144.143 371.139 144.538C369.758 144.94 368.423 144.811 367.135 144.148C365.874 143.479 365.046 142.466 364.651 141.112Z" fill="#343841"/>
<path d="M361.729 203.149C361.922 200.028 363.133 197.484 365.361 195.515C367.616 193.575 370.261 192.699 373.299 192.887C376.392 193.078 378.91 194.273 380.853 196.472C382.822 198.7 383.71 201.375 383.517 204.495C383.392 206.511 382.795 208.318 381.727 209.915C380.658 211.512 379.283 212.674 377.603 213.402L375.604 209.411C376.627 209.003 377.445 208.333 378.057 207.401C378.695 206.498 379.052 205.425 379.129 204.182C379.241 202.36 378.715 200.789 377.549 199.469C376.354 198.176 374.845 197.473 373.022 197.36C371.2 197.248 369.616 197.759 368.271 198.896C366.951 200.062 366.235 201.556 366.123 203.379C366.047 204.594 366.256 205.701 366.749 206.702C367.267 207.732 368.008 208.526 368.971 209.085L366.538 212.801C364.936 211.815 363.704 210.45 362.841 208.706C361.977 206.989 361.606 205.137 361.729 203.149Z" fill="#343841"/>
<path d="M243 191.5C243 218.838 220.838 241 193.5 241C166.162 241 144 218.838 144 191.5C144 164.162 166.162 142 193.5 142C220.838 142 243 164.162 243 191.5Z" stroke="white" stroke-width="12"/>
</svg>
