<svg width="371" height="372" viewBox="0 0 371 372" fill="none" xmlns="http://www.w3.org/2000/svg">
<path d="M369.117 198.084C368.985 200.358 368.013 202.271 366.2 203.821C364.412 205.351 362.291 206.044 359.838 205.902C357.364 205.759 355.326 204.824 353.726 203.098C352.126 201.373 351.392 199.361 351.525 197.065C351.671 194.546 352.721 192.649 354.674 191.375L345.61 190.85L345.82 187.238L369.23 188.594L369.021 192.206L366.613 192.067C368.429 193.537 369.264 195.543 369.117 198.084ZM356.727 193.004C355.665 193.949 355.091 195.18 355.003 196.696C354.915 198.212 355.344 199.501 356.289 200.562C357.256 201.625 358.509 202.201 360.048 202.29C361.586 202.379 362.886 201.951 363.947 201.006C365.031 200.062 365.617 198.832 365.705 197.316C365.793 195.8 365.353 194.511 364.385 193.448C363.44 192.386 362.198 191.811 360.66 191.722C359.144 191.634 357.833 192.061 356.727 193.004Z" fill="black"/>
<path d="M362.748 224.533L365.086 224.969L364.422 228.526L347.957 225.451L348.621 221.894L350.992 222.337C349.376 220.649 348.802 218.554 349.269 216.051C349.691 213.79 350.887 212.014 352.854 210.723C354.822 209.432 357.024 209.014 359.461 209.469C361.898 209.924 363.801 211.109 365.17 213.023C366.539 214.938 367.013 217.025 366.591 219.287C366.123 221.789 364.842 223.538 362.748 224.533ZM354.733 213.8C353.561 214.604 352.835 215.752 352.556 217.245C352.278 218.738 352.54 220.07 353.343 221.243C354.169 222.419 355.339 223.149 356.853 223.432C358.368 223.715 359.712 223.455 360.884 222.651C362.079 221.852 362.815 220.706 363.094 219.213C363.373 217.72 363.1 216.385 362.274 215.209C361.471 214.036 360.312 213.309 358.797 213.026C357.304 212.747 355.95 213.005 354.733 213.8Z" fill="black"/>
<path d="M344.289 236.449C345.048 234.019 346.462 232.261 348.532 231.176C350.61 230.14 352.885 230.007 355.359 230.779C358.045 231.617 360.008 232.675 361.247 233.95C362.472 235.198 363.314 237.262 363.772 240.143C363.788 240.241 363.808 240.4 363.834 240.618C363.874 240.865 363.911 241.122 363.944 241.39C363.977 241.657 364.011 241.925 364.044 242.193C364.17 243.215 364.253 243.849 364.293 244.095C364.317 244.243 364.435 244.689 364.647 245.434C364.947 246.347 365.548 247.084 366.449 247.646L363.939 249.951C362.8 249.478 361.953 248.407 361.398 246.736C361.258 246.435 361.139 245.918 361.04 245.186L360.829 243.611L360.657 241.803C360.535 240.244 360.289 239.044 359.92 238.204C359.551 237.363 358.958 236.675 358.142 236.14C359.193 237.871 359.376 239.835 358.69 242.031C358.105 243.907 356.924 245.329 355.149 246.295C353.367 247.283 351.409 247.444 349.278 246.779C347.103 246.1 345.545 244.795 344.604 242.864C343.656 240.954 343.551 238.816 344.289 236.449ZM347.529 237.425C347.11 238.768 347.162 239.989 347.685 241.088C348.229 242.194 349.119 242.939 350.355 243.325C351.613 243.718 352.78 243.614 353.857 243.014C354.926 242.436 355.67 241.475 356.09 240.132C356.462 238.938 356.414 237.741 355.946 236.542C355.521 235.357 354.669 234.564 353.389 234.165C352.11 233.766 350.915 233.885 349.804 234.52C348.693 235.156 347.935 236.125 347.529 237.425Z" fill="black"/>
<path d="M337.386 260.969C336.526 258.728 336.6 256.475 337.608 254.21C338.616 251.946 340.241 250.383 342.482 249.523C344.752 248.651 347.009 248.714 349.254 249.713C351.498 250.713 353.056 252.347 353.928 254.618C354.788 256.858 354.714 259.111 353.706 261.376C352.698 263.641 351.074 265.203 348.833 266.064C346.562 266.936 344.305 266.872 342.061 265.873C339.816 264.874 338.258 263.239 337.386 260.969ZM347.782 253.019C346.395 252.401 345.038 252.347 343.711 252.857C342.384 253.366 341.421 254.294 340.822 255.641C340.222 256.987 340.177 258.324 340.687 259.651C341.196 260.978 342.144 261.95 343.532 262.568C344.919 263.185 346.276 263.239 347.603 262.73C348.93 262.22 349.893 261.292 350.493 259.946C351.092 258.599 351.137 257.262 350.628 255.935C350.118 254.609 349.17 253.636 347.782 253.019Z" fill="black"/>
<path d="M348.061 272.405L340.741 285.006L337.729 283.256L340.471 278.534L329 271.871L330.817 268.743L342.288 275.406L345.048 270.655L348.061 272.405Z" fill="black"/>
<path d="M328.914 297.637L330.832 299.043L328.693 301.961L315.184 292.058L317.323 289.14L319.268 290.566C318.543 288.345 318.933 286.208 320.438 284.154C321.798 282.299 323.644 281.216 325.977 280.904C328.31 280.593 330.476 281.17 332.475 282.635C334.475 284.101 335.677 285.993 336.082 288.311C336.487 290.63 336.01 292.717 334.65 294.572C333.144 296.625 331.233 297.647 328.914 297.637ZM326.338 284.492C324.933 284.708 323.782 285.429 322.884 286.654C321.986 287.878 321.645 289.193 321.862 290.598C322.096 292.016 322.835 293.18 324.078 294.091C325.321 295.002 326.644 295.35 328.049 295.133C329.472 294.93 330.632 294.216 331.53 292.991C332.428 291.766 332.76 290.445 332.525 289.027C332.309 287.622 331.579 286.465 330.336 285.553C329.111 284.656 327.779 284.302 326.338 284.492Z" fill="black"/>
<path d="M304.563 315.802C302.835 316.399 301.346 316.059 300.097 314.782C299.097 313.76 298.644 312.594 298.737 311.285C298.814 309.991 299.468 308.742 300.697 307.539L306.827 301.542L318.541 313.514L312.89 319.043C311.677 320.23 310.43 320.856 309.15 320.921C307.87 320.986 306.746 320.524 305.778 319.534C304.669 318.401 304.264 317.157 304.563 315.802ZM310.926 316.653L313.919 313.724L311.319 311.066L308.326 313.995C307.272 315.026 307.183 315.988 308.057 316.882C308.916 317.76 309.873 317.684 310.926 316.653ZM306.563 306.206L303.139 309.556C302.053 310.618 301.971 311.62 302.893 312.562C303.299 312.977 303.755 313.156 304.261 313.098C304.782 313.056 305.299 312.785 305.809 312.286L309.234 308.935L306.563 306.206Z" fill="black"/>
<path d="M287.17 329.837L275.977 327.381L279.481 324.851L289.578 327.106L285.049 320.832L287.983 318.714L297.786 332.295L294.853 334.413L290.519 328.41L289.583 338.217L285.998 340.805L287.17 329.837Z" fill="black"/>
<path d="M262.833 337.368C263.473 335.054 264.872 333.287 267.03 332.066C269.187 330.844 271.422 330.554 273.735 331.195C276.079 331.844 277.856 333.238 279.066 335.375C280.277 337.513 280.557 339.754 279.908 342.098C279.267 344.411 277.868 346.178 275.711 347.4C273.554 348.621 271.319 348.911 269.005 348.271C266.662 347.621 264.885 346.228 263.674 344.09C262.464 341.952 262.183 339.711 262.833 337.368ZM275.918 337.158C275.17 335.836 274.111 334.986 272.741 334.607C271.371 334.227 270.045 334.4 268.763 335.127C267.48 335.853 266.649 336.901 266.269 338.271C265.89 339.64 266.074 340.986 266.823 342.307C267.571 343.629 268.63 344.48 269.999 344.859C271.369 345.238 272.695 345.065 273.978 344.339C275.261 343.613 276.092 342.565 276.471 341.195C276.851 339.825 276.666 338.48 275.918 337.158Z" fill="black"/>
<path d="M250.752 358.769L247.347 360.179L240.938 344.704L244.187 343.358L248.405 353.54L249.926 344.607L250.329 344.44L257.677 349.664L253.473 339.512L256.722 338.166L263.132 353.641L259.727 355.051L252.278 349.76L250.752 358.769Z" fill="black"/>
<path d="M228.395 363.289L229.026 365.583L225.538 366.542L221.095 350.392L224.584 349.432L225.223 351.758C226.033 349.566 227.666 348.133 230.121 347.458C232.339 346.848 234.459 347.145 236.481 348.349C238.503 349.553 239.843 351.35 240.5 353.74C241.158 356.131 240.926 358.36 239.804 360.429C238.682 362.498 237.012 363.838 234.794 364.448C232.339 365.123 230.206 364.737 228.395 363.289ZM234.537 351.385C233.301 350.683 231.951 350.533 230.487 350.936C229.022 351.338 227.939 352.158 227.237 353.393C226.54 354.65 226.396 356.022 226.805 357.508C227.214 358.993 228.036 360.087 229.271 360.79C230.513 361.514 231.866 361.675 233.33 361.272C234.794 360.869 235.875 360.039 236.571 358.782C237.274 357.546 237.42 356.186 237.012 354.7C236.609 353.236 235.784 352.131 234.537 351.385Z" fill="black"/>
<path d="M207.481 362.795L208.453 369.39L204.874 369.918L202.431 353.347L206.011 352.82L206.983 359.415L214.572 358.296L213.6 351.701L217.179 351.173L219.622 367.744L216.043 368.272L215.071 361.677L207.481 362.795Z" fill="black"/>
<path d="M184.256 370.995L183.793 357.671L181.549 357.748L181.275 349.847L184.824 349.724L184.98 354.21L196.463 353.811L196.307 349.325L199.856 349.202L200.131 357.103L198.088 357.174C197.111 358.638 196.668 360.676 196.759 363.287L197.011 370.552L184.256 370.995ZM194.104 357.312L187.341 357.547L187.689 367.558L193.347 367.361L193.21 363.41C193.126 361 193.424 358.967 194.104 357.312Z" fill="black"/>
<path d="M161.151 359.546L174.432 360.727C174.275 359.457 173.761 358.436 172.888 357.664C171.993 356.889 170.844 356.439 169.443 356.315C167.552 356.146 166.056 356.708 164.954 358.001L162.139 356.001C163.978 353.721 166.522 352.725 169.77 353.014C172.462 353.254 174.58 354.271 176.124 356.068C177.644 357.885 178.291 360.061 178.066 362.597C177.846 365.066 176.838 367.073 175.041 368.617C173.267 370.164 171.079 370.821 168.476 370.59C166.051 370.374 164.125 369.339 162.698 367.486C161.271 365.633 160.666 363.483 160.884 361.036C160.923 360.591 161.012 360.094 161.151 359.546ZM174.204 363.666L164.393 362.794C164.521 364.128 164.988 365.19 165.792 365.979C166.574 366.766 167.577 367.214 168.8 367.322C170.135 367.441 171.28 367.173 172.235 366.518C173.19 365.863 173.846 364.913 174.204 363.666Z" fill="black"/>
<path d="M127.143 351.941C128.261 352.332 129.073 353.054 129.58 354.107C130.087 355.16 130.145 356.245 129.755 357.362C129.379 358.437 128.668 359.218 127.623 359.704C126.556 360.183 125.475 360.23 124.379 359.847C123.303 359.471 122.519 358.771 122.026 357.747C121.532 356.722 121.473 355.672 121.849 354.597C122.233 353.501 122.944 352.685 123.983 352.149C125.015 351.635 126.068 351.565 127.143 351.941Z" fill="black"/>
<path d="M82.2718 340.264C80.3725 339.007 79.2088 337.204 78.7806 334.858C78.3586 332.543 78.8259 330.361 80.1824 328.313C81.5513 326.246 83.384 324.955 85.6805 324.44C87.977 323.926 90.0842 324.303 92.002 325.574C94.106 326.967 95.2173 328.828 95.3358 331.157L100.349 323.588L103.365 325.586L90.4163 345.136L87.3999 343.139L88.7318 341.128C86.5477 341.958 84.3944 341.67 82.2718 340.264ZM92.895 332.112C92.6121 330.719 91.8376 329.603 90.5714 328.765C89.3053 327.926 87.9758 327.648 86.583 327.931C85.1778 328.233 84.0498 329.026 83.1988 330.311C82.3479 331.595 82.0639 332.934 82.3468 334.327C82.6174 335.739 83.3858 336.864 84.6519 337.702C85.918 338.541 87.2537 338.809 88.6589 338.508C90.0517 338.225 91.1736 337.441 92.0245 336.156C92.8631 334.89 93.1533 333.542 92.895 332.112Z" fill="black"/>
<path d="M62.9913 321.764L61.4426 323.569L58.6967 321.214L69.603 308.501L72.349 310.857L70.7785 312.687C73.0485 312.133 75.1497 312.686 77.082 314.343C78.8279 315.841 79.7669 317.765 79.8991 320.115C80.0313 322.464 79.2903 324.58 77.6762 326.462C76.0621 328.343 74.0837 329.397 71.7412 329.624C69.3986 329.85 67.3544 329.215 65.6085 327.717C63.6762 326.059 62.8038 324.075 62.9913 321.764ZM76.2946 320.2C76.1862 318.783 75.5557 317.58 74.4031 316.591C73.2505 315.602 71.9656 315.162 70.5484 315.271C69.1167 315.396 67.8992 316.043 66.8958 317.213C65.8924 318.383 65.4449 319.676 65.5533 321.093C65.6471 322.527 66.2704 323.739 67.423 324.727C68.5756 325.716 69.8678 326.148 71.2995 326.023C72.7166 325.914 73.9269 325.275 74.9303 324.106C75.9191 322.953 76.3739 321.651 76.2946 320.2Z" fill="black"/>
<path d="M61.8538 299.75C63.5807 301.621 64.3975 303.724 64.3041 306.06C64.164 308.377 63.1421 310.415 61.2385 312.172C59.1708 314.081 57.2747 315.253 55.5504 315.69C53.8576 316.128 51.6491 315.827 48.9249 314.785C48.8315 314.75 48.6838 314.689 48.4818 314.602C48.2483 314.513 48.0072 314.417 47.7585 314.312C47.5098 314.207 47.2611 314.102 47.0124 313.997C46.0644 313.596 45.4736 313.351 45.2401 313.263C45.0999 313.21 44.6543 313.089 43.9032 312.901C42.9628 312.706 42.0242 312.858 41.0875 313.358L40.3434 310.033C41.3217 309.281 42.673 309.083 44.3974 309.436C44.7281 309.465 45.2356 309.62 45.9198 309.9L47.3892 310.504L49.0423 311.258C50.4536 311.93 51.6156 312.317 52.5283 312.416C53.4409 312.516 54.3328 312.346 55.2038 311.907C53.179 311.952 51.3864 311.13 49.8262 309.44C48.4931 307.996 47.8512 306.263 47.9004 304.242C47.9345 302.205 48.772 300.428 50.4131 298.914C52.0869 297.368 53.9956 296.67 56.1391 296.819C58.2674 296.952 60.1723 297.929 61.8538 299.75ZM59.3903 302.07C58.436 301.036 57.3522 300.471 56.1391 300.375C54.9096 300.295 53.8189 300.693 52.8671 301.572C51.8989 302.466 51.4059 303.529 51.3883 304.761C51.3555 305.976 51.8162 307.101 52.7706 308.135C53.6189 309.054 54.6793 309.61 55.9517 309.803C57.1914 310.027 58.3035 309.684 59.2881 308.775C60.2728 307.866 60.767 306.772 60.7707 305.492C60.7745 304.212 60.3144 303.071 59.3903 302.07Z" fill="black"/>
<path d="M44.0396 281.486C46.4107 281.861 48.3253 283.05 49.7836 285.055C51.2419 287.059 51.7839 289.247 51.4098 291.618C51.0307 294.021 49.8479 295.944 47.8612 297.389C45.8745 298.835 43.6801 299.368 41.2778 298.989C38.9068 298.614 36.9921 297.425 35.5338 295.42C34.0756 293.416 33.5335 291.228 33.9077 288.857C34.2867 286.454 35.4696 284.531 37.4562 283.086C39.4429 281.64 41.6374 281.107 44.0396 281.486ZM45.7329 294.464C46.961 293.57 47.6859 292.422 47.9074 291.018C48.1289 289.614 47.8061 288.316 46.9391 287.124C46.072 285.932 44.9365 285.225 43.5326 285.004C42.1287 284.782 40.8126 285.118 39.5845 286.011C38.3564 286.905 37.6316 288.053 37.4101 289.457C37.1885 290.861 37.5113 292.159 38.3784 293.351C39.2455 294.543 40.381 295.25 41.7849 295.471C43.1888 295.693 44.5048 295.357 45.7329 294.464Z" fill="black"/>
<path d="M29.0605 285.418L21.7412 272.817L24.7539 271.068L27.4965 275.789L38.9678 269.126L40.785 272.255L29.3137 278.918L32.0732 283.669L29.0605 285.418Z" fill="black"/>
<path d="M16.6686 256.283L14.4957 257.25L13.0244 253.944L28.3268 247.133L29.7981 250.438L27.5946 251.419C29.8828 251.892 31.5447 253.291 32.58 255.617C33.5155 257.718 33.5394 259.859 32.6517 262.039C31.7641 264.218 30.1879 265.812 27.9231 266.82C25.6583 267.829 23.4191 267.933 21.2055 267.134C18.9919 266.335 17.4173 264.884 16.4819 262.783C15.4465 260.457 15.5087 258.29 16.6686 256.283ZM29.3583 260.571C29.8678 259.244 29.8137 257.887 29.1961 256.5C28.5785 255.112 27.6063 254.164 26.2795 253.655C24.9322 253.154 23.5547 253.217 22.1469 253.844C20.7391 254.471 19.7804 255.447 19.271 256.774C18.7411 258.11 18.785 259.472 19.4026 260.859C20.0201 262.247 21.0026 263.191 22.3498 263.691C23.6766 264.2 25.044 264.142 26.4518 263.515C27.8392 262.898 28.8081 261.916 29.3583 260.571Z" fill="black"/>
<path d="M13.0685 226.193C13.4111 224.397 14.4473 223.276 16.177 222.828C17.5607 222.47 18.7973 222.657 19.8867 223.39C20.9706 224.102 21.7279 225.29 22.1588 226.955L24.3075 235.257L8.0918 239.454L6.11093 231.8C5.68566 230.157 5.76351 228.764 6.3445 227.622C6.92548 226.48 7.88622 225.735 9.22672 225.388C10.7618 224.991 12.0424 225.259 13.0685 226.193ZM9.16177 231.288L10.211 235.341L13.8108 234.41L12.7617 230.356C12.3923 228.929 11.6023 228.372 10.3915 228.685C9.20237 228.993 8.79245 229.861 9.16177 231.288ZM20.3944 232.706L19.1942 228.068C18.8137 226.598 17.9856 226.028 16.7099 226.358C16.1478 226.504 15.7657 226.81 15.5638 227.278C15.3402 227.751 15.3179 228.333 15.497 229.025L16.6972 233.663L20.3944 232.706Z" fill="black"/>
<path d="M9.59727 204.116L17.3325 195.662L17.765 199.962L10.7526 207.569L18.4523 206.795L18.8143 210.394L2.14844 212.071L1.78635 208.471L9.15268 207.73L1.13594 202.005L0.693391 197.605L9.59727 204.116Z" fill="black"/>
<path d="M15.2489 178.836C16.9265 180.553 17.7509 182.65 17.7222 185.129C17.6935 187.608 16.8207 189.686 15.1039 191.364C13.3644 193.063 11.2664 193.899 8.80991 193.871C6.35341 193.842 4.27534 192.958 2.5757 191.219C0.898135 189.502 0.0737072 187.404 0.102414 184.925C0.131121 182.446 1.00391 180.368 2.72079 178.691C4.46025 176.991 6.55824 176.155 9.01474 176.184C11.4712 176.212 13.5493 177.096 15.2489 178.836ZM8.85181 190.253C10.3704 190.27 11.6379 189.783 12.6545 188.789C13.6711 187.796 14.1879 186.562 14.205 185.088C14.222 183.615 13.7339 182.369 12.7406 181.353C11.7473 180.336 10.4914 179.819 8.97284 179.802C7.45428 179.784 6.18671 180.272 5.17014 181.265C4.15357 182.258 3.63675 183.492 3.61968 184.966C3.60261 186.44 4.09072 187.685 5.08402 188.702C6.07731 189.718 7.33324 190.235 8.85181 190.253Z" fill="black"/>
<path d="M2.81601 157.175L3.31139 153.523L19.9094 155.775L19.4365 159.26L8.51503 157.779L15.4684 163.59L15.4099 164.022L7.19721 167.742L18.0855 169.219L17.6126 172.705L1.01465 170.453L1.51002 166.802L9.83128 163.028L2.81601 157.175Z" fill="black"/>
<path d="M9.94391 136.177L7.64356 135.572L8.56335 132.073L24.763 136.331L23.8432 139.83L21.5105 139.217C23.0001 141.017 23.4213 143.149 22.774 145.611C22.1892 147.836 20.8688 149.521 18.8127 150.666C16.7567 151.811 14.5299 152.069 12.1324 151.439C9.7348 150.808 7.92248 149.489 6.69539 147.481C5.4683 145.473 5.14715 143.356 5.73196 141.131C6.37922 138.669 7.78321 137.017 9.94391 136.177ZM17.1613 147.461C18.3888 146.744 19.1956 145.652 19.5817 144.183C19.9678 142.714 19.8026 141.366 19.0861 140.139C18.348 138.905 17.2338 138.093 15.7434 137.701C14.253 137.31 12.8941 137.472 11.6666 138.188C10.4175 138.899 9.59996 139.989 9.21388 141.458C8.82779 142.926 9.00379 144.277 9.74187 145.511C10.4584 146.738 11.5618 147.548 13.0521 147.939C14.5209 148.326 15.8906 148.166 17.1613 147.461Z" fill="black"/>
<path d="M20.8454 118.145L14.6488 115.687L15.9831 112.324L31.5524 118.501L30.2182 121.864L24.0216 119.406L21.1924 126.536L27.389 128.995L26.0547 132.358L10.4854 126.181L11.8196 122.818L18.0162 125.276L20.8454 118.145Z" fill="black"/>
<path d="M25.2333 94.2014L36.9785 100.512L38.0408 98.5345L45.0053 102.276L43.3246 105.404L39.3702 103.28L33.932 113.402L37.8864 115.526L36.2057 118.655L29.2413 114.913L30.2084 113.113C29.4355 111.531 27.8982 110.122 25.5964 108.885L19.1926 105.445L25.2333 94.2014ZM32.0952 109.601L35.2979 103.64L26.4742 98.8992L23.7947 103.886L27.277 105.757C29.4017 106.899 31.0078 108.18 32.0952 109.601Z" fill="black"/>
<path d="M46.6528 79.9615L38.9681 90.8572C40.1446 91.359 41.2861 91.4262 42.3925 91.0587C43.5118 90.6729 44.4769 89.9052 45.2878 88.7554C46.382 87.2041 46.6464 85.6279 46.0813 84.0268L49.2233 82.5944C50.2729 85.3297 49.8581 88.0297 47.9787 90.6943C46.4212 92.9026 44.478 94.224 42.1492 94.6585C39.815 95.0619 37.6076 94.5299 35.527 93.0625C33.5012 91.6336 32.271 89.7548 31.8365 87.426C31.3892 85.1154 31.9185 82.8925 33.4245 80.7571C34.8276 78.7678 36.6888 77.6208 39.008 77.3162C41.3272 77.0116 43.4906 77.5672 45.4982 78.9832C45.8632 79.2406 46.2481 79.5667 46.6528 79.9615ZM36.5398 89.1854L42.2164 81.1369C40.998 80.5782 39.8458 80.4488 38.7598 80.7486C37.6866 81.0302 36.796 81.6729 36.0881 82.6767C35.3157 83.7718 34.9733 84.8967 35.0606 86.0515C35.148 87.2063 35.6411 88.2509 36.5398 89.1854Z" fill="black"/>
<path d="M63.4068 60.4929C62.5517 61.3114 61.5401 61.7079 60.3717 61.6825C59.2034 61.657 58.21 61.2167 57.3914 60.3617C56.6038 59.5389 56.2304 58.5515 56.2713 57.3993C56.3284 56.2316 56.7763 55.2463 57.6152 54.4432C58.438 53.6555 59.4178 53.2741 60.5545 53.2989C61.6913 53.3237 62.6535 53.7474 63.4411 54.5702C64.2442 55.4091 64.6488 56.413 64.6549 57.5821C64.6456 58.7349 64.2295 59.7052 63.4068 60.4929Z" fill="black"/>
<path d="M94.2618 25.5968C96.2441 24.4744 98.378 24.2544 100.663 24.9366C102.918 25.6104 104.651 27.0163 105.861 29.1541C107.083 31.3113 107.402 33.5301 106.82 35.8104C106.237 38.0906 104.945 39.7974 102.943 40.9308C100.747 42.1741 98.5844 42.3206 96.4552 41.3703L100.928 49.2705L97.7796 51.053L86.2263 30.6466L89.3747 28.864L90.563 30.963C90.8133 28.6399 92.0462 26.8511 94.2618 25.5968ZM96.7108 38.7619C98.0805 39.1413 99.4261 38.9569 100.748 38.2087C102.069 37.4605 102.92 36.4015 103.299 35.0318C103.668 33.6427 103.472 32.2776 102.713 30.9366C101.954 29.5956 100.889 28.7354 99.5196 28.356C98.1389 27.9571 96.7877 28.1318 95.4662 28.88C94.1446 29.6282 93.2996 30.6969 92.9312 32.086C92.5518 33.4557 92.7417 34.8111 93.5009 36.1521C94.2491 37.4736 95.3191 38.3436 96.7108 38.7619Z" fill="black"/>
<path d="M118.737 17.0635L117.827 14.866L121.169 13.4815L127.579 28.9567L124.236 30.3411L123.313 28.1127C122.781 30.3879 121.339 32.0126 118.987 32.9868C116.861 33.8671 114.721 33.8351 112.565 32.8908C110.409 31.9465 108.857 30.3292 107.909 28.0389C106.96 25.7485 106.914 23.5074 107.771 21.3154C108.627 19.1233 110.118 17.5872 112.244 16.707C114.596 15.7327 116.76 15.8516 118.737 17.0635ZM114.118 29.6368C115.431 30.1808 116.789 30.1622 118.192 29.581C119.595 28.9999 120.569 28.0528 121.113 26.7397C121.648 25.406 121.621 24.0273 121.031 22.6036C120.442 21.1798 119.49 20.196 118.177 19.6521C116.856 19.0875 115.493 19.0958 114.09 19.6769C112.687 20.2581 111.718 21.2155 111.183 22.5492C110.639 23.8623 110.661 25.2307 111.251 26.6544C111.832 28.0575 112.788 29.0516 114.118 29.6368Z" fill="black"/>
<path d="M139.206 25.8386C136.754 26.5232 134.509 26.2917 132.473 25.1443C130.474 23.9633 129.126 22.1252 128.43 19.6299C127.673 16.9195 127.493 14.6974 127.89 12.9634C128.272 11.257 129.547 9.42866 131.716 7.47846C131.79 7.41142 131.911 7.30786 132.081 7.16777C132.266 7.00017 132.462 6.82956 132.669 6.65596C132.875 6.48235 133.082 6.30874 133.288 6.13513C134.078 5.47422 134.565 5.05997 134.75 4.89237C134.861 4.7918 135.171 4.4501 135.681 3.86725C136.284 3.11931 136.576 2.21456 136.558 1.153L139.857 2.00595C140.08 3.21908 139.641 4.51255 138.54 5.88635C138.364 6.16752 137.995 6.54875 137.434 7.03004L136.226 8.06268L134.802 9.19064C133.56 10.1402 132.687 10.9985 132.182 11.7654C131.677 12.5324 131.422 13.4036 131.416 14.3791C132.298 12.5561 133.847 11.3353 136.063 10.7168C137.956 10.1884 139.791 10.4067 141.567 11.3715C143.365 12.3304 144.564 13.8854 145.165 16.0365C145.777 18.2306 145.529 20.2477 144.419 22.0877C143.331 23.9218 141.594 25.1721 139.206 25.8386ZM138.264 22.5887C139.619 22.2104 140.616 21.5032 141.254 20.4671C141.886 19.4095 142.028 18.2569 141.68 17.0093C141.326 15.7401 140.604 14.8169 139.516 14.2397C138.449 13.6565 137.237 13.554 135.882 13.9323C134.678 14.2686 133.699 14.959 132.948 16.0036C132.184 17.0052 131.982 18.1513 132.342 19.442C132.703 20.7327 133.452 21.6713 134.589 22.2581C135.727 22.8448 136.952 22.955 138.264 22.5887Z" fill="black"/>
<path d="M164.089 18.1593C162.672 20.0969 160.739 21.2559 158.289 21.6362C155.84 22.0165 153.646 21.4982 151.708 20.0814C149.745 18.6459 148.575 16.7144 148.198 14.2868C147.821 11.8592 148.351 9.66383 149.786 7.7007C151.203 5.76307 153.136 4.6041 155.586 4.22379C158.036 3.84348 160.229 4.36175 162.167 5.7786C164.13 7.21409 165.3 9.14563 165.677 11.5732C166.054 14.0008 165.525 16.1962 164.089 18.1593ZM151.773 13.7317C152.006 15.2324 152.697 16.4022 153.844 17.2411C154.991 18.0801 156.293 18.3865 157.75 18.1603C159.206 17.9342 160.354 17.2475 161.193 16.1002C162.032 14.9529 162.335 13.629 162.102 12.1283C161.869 10.6276 161.179 9.45777 160.031 8.61884C158.884 7.77992 157.582 7.47352 156.126 7.69965C154.669 7.92578 153.521 8.61249 152.682 9.75977C151.843 10.9071 151.541 12.231 151.773 13.7317Z" fill="black"/>
<path d="M167.528 2.99463L182.082 2.26391L182.257 5.74353L176.804 6.01734L177.469 19.2666L173.855 19.4481L173.19 6.19876L167.703 6.47425L167.528 2.99463Z" fill="black"/>
<path d="M199.355 5.27739L199.493 2.90288L203.105 3.11216L202.136 19.8341L198.524 19.6248L198.664 17.2169C197.194 19.0332 195.188 19.8678 192.646 19.7205C190.35 19.5874 188.437 18.6265 186.907 16.8377C185.378 15.0489 184.685 12.9171 184.828 10.4422C184.972 7.96738 185.906 5.92986 187.632 4.32968C189.358 2.72949 191.369 1.99593 193.665 2.12899C196.207 2.27626 198.104 3.32573 199.355 5.27739ZM189.722 14.5848C190.668 15.6462 191.898 16.2209 193.414 16.3087C194.93 16.3966 196.219 15.9679 197.281 15.0227C198.343 14.0552 198.919 12.8023 199.008 11.2639C199.098 9.72543 198.67 8.4255 197.724 7.36405C196.781 6.2803 195.551 5.6945 194.034 5.60666C192.518 5.51881 191.229 5.95863 190.166 6.92611C189.105 7.87129 188.529 9.11309 188.44 10.6515C188.352 12.1676 188.78 13.4787 189.722 14.5848Z" fill="black"/>
<path d="M228.182 15.8361C229.621 16.9636 230.144 18.3987 229.749 20.1412C229.433 21.5351 228.7 22.5483 227.549 23.1806C226.42 23.8179 225.016 23.9465 223.339 23.5665L214.975 21.6714L218.677 5.33545L226.387 7.08252C228.043 7.45759 229.245 8.16508 229.994 9.20498C230.743 10.2449 230.965 11.44 230.659 12.7905C230.308 14.337 229.483 15.3521 228.182 15.8361ZM225.445 10.0291L221.361 9.10375L220.539 12.7303L224.623 13.6557C226.061 13.9814 226.918 13.5344 227.194 12.3146C227.465 11.1167 226.882 10.3548 225.445 10.0291ZM219.036 19.3627L223.708 20.4213C225.19 20.7569 226.076 20.2822 226.367 18.9971C226.495 18.4307 226.398 17.9507 226.075 17.5569C225.757 17.1414 225.249 16.8546 224.552 16.6967L219.88 15.6381L219.036 19.3627Z" fill="black"/>
<path d="M249.872 22.9974L253.821 33.7546L249.804 32.1609L246.275 22.4352L243.421 29.6282L240.058 28.2939L246.235 12.7246L249.598 14.0589L246.868 20.9405L255.639 16.4557L259.75 18.0865L249.872 22.9974Z" fill="black"/>
<path d="M268.502 38.9764C266.209 39.6852 263.966 39.4611 261.774 38.304C259.581 37.147 258.131 35.4217 257.422 33.1284C256.703 30.8049 256.918 28.5568 258.064 26.3842C259.211 24.2115 260.946 22.7661 263.27 22.0479C265.563 21.3391 267.806 21.5632 269.998 22.7203C272.191 23.8774 273.641 25.6026 274.35 27.8959C275.068 30.2194 274.854 32.4675 273.707 34.6402C272.561 36.8128 270.826 38.2582 268.502 38.9764ZM261.264 28.0729C260.555 29.416 260.411 30.7665 260.83 32.1244C261.25 33.4823 262.112 34.5052 263.415 35.1932C264.719 35.8812 266.05 36.0154 267.408 35.5956C268.765 35.1759 269.799 34.2945 270.508 32.9514C271.217 31.6083 271.361 30.2578 270.941 28.9C270.522 27.5421 269.66 26.5191 268.356 25.8311C267.053 25.1431 265.722 25.009 264.364 25.4287C263.006 25.8484 261.973 26.7298 261.264 28.0729Z" fill="black"/>
<path d="M293.061 37.4687L296.088 39.5705L286.534 53.3287L283.645 51.3224L289.931 42.2695L281.593 45.8193L281.236 45.5709L281.657 36.5648L275.39 45.5902L272.501 43.5839L282.055 29.8257L285.081 31.9275L284.658 41.0544L293.061 37.4687Z" fill="black"/>
<path d="M309.093 53.8005L310.681 52.0295L313.375 54.4446L302.194 66.9164L299.5 64.5013L301.11 62.7053C298.828 63.2094 296.74 62.6117 294.844 60.9121C293.131 59.3766 292.234 57.4328 292.153 55.0807C292.072 52.7285 292.859 50.6296 294.514 48.7838C296.169 46.938 298.17 45.9273 300.517 45.7518C302.864 45.5763 304.894 46.2563 306.606 47.7918C308.502 49.4914 309.331 51.4943 309.093 53.8005ZM295.759 55.0737C295.836 56.4929 296.44 57.7093 297.571 58.7231C298.702 59.7369 299.977 60.205 301.396 60.1276C302.83 60.0335 304.062 59.4128 305.09 58.2654C306.119 57.118 306.595 55.8347 306.517 54.4155C306.455 52.9797 305.858 51.7549 304.727 50.7412C303.596 49.7274 302.314 49.2676 300.88 49.3616C299.461 49.4391 298.237 50.0515 297.208 51.1989C296.194 52.3297 295.711 53.6213 295.759 55.0737Z" fill="black"/>
<path d="M320.495 72.0313L325.507 67.6356L327.893 70.3557L315.3 81.4001L312.914 78.68L317.926 74.2844L312.868 68.5168L307.856 72.9125L305.471 70.1924L318.063 59.1479L320.449 61.868L315.437 66.2637L320.495 72.0313Z" fill="black"/>
<path d="M339.648 86.573L328.696 94.1778L329.976 96.0214L323.483 100.531L321.457 97.6141L325.144 95.0537L318.59 85.6155L314.903 88.1759L312.878 85.2592L319.372 80.7498L320.537 82.4283C322.297 82.4569 324.25 81.726 326.397 80.2356L332.368 76.0893L339.648 86.573ZM322.811 85.7028L326.671 91.2611L334.898 85.5479L331.669 80.8977L328.422 83.1523C326.441 84.5281 324.571 85.3782 322.811 85.7028Z" fill="black"/>
<path d="M342.669 112.196L336.446 100.404C335.465 101.225 334.887 102.212 334.713 103.364C334.549 104.537 334.795 105.745 335.452 106.989C336.338 108.668 337.623 109.619 339.306 109.842L339.157 113.292C336.243 112.986 334.025 111.392 332.503 108.508C331.242 106.118 330.946 103.787 331.615 101.514C332.315 99.2511 333.79 97.5253 336.042 96.337C338.234 95.1799 340.467 94.936 342.739 95.6054C345.001 96.255 346.742 97.7352 347.962 100.046C349.098 102.199 349.276 104.378 348.495 106.583C347.715 108.788 346.238 110.464 344.065 111.61C343.67 111.819 343.205 112.014 342.669 112.196ZM339.038 98.9985L343.635 107.709C344.685 106.876 345.324 105.908 345.549 104.805C345.785 103.72 345.616 102.635 345.043 101.549C344.417 100.364 343.57 99.5482 342.502 99.1022C341.433 98.6561 340.278 98.6215 339.038 98.9985Z" fill="black"/>
<path d="M354.827 144.939C354.548 143.789 354.713 142.715 355.321 141.717C355.929 140.719 356.808 140.081 357.959 139.802C359.065 139.533 360.107 139.706 361.083 140.319C362.065 140.954 362.692 141.836 362.966 142.965C363.235 144.071 363.073 145.11 362.481 146.081C361.89 147.052 361.04 147.672 359.933 147.941C358.805 148.214 357.733 148.061 356.719 147.48C355.726 146.893 355.096 146.046 354.827 144.939Z" fill="black"/>
</svg>
