<svg width="24" height="24" viewBox="0 0 24 24" fill="none" xmlns="http://www.w3.org/2000/svg">
<g clip-path="url(#clip0)">
<path d="M11.9982 0C15.4268 0 18.2295 2.80271 18.2295 6.2313C18.2295 9.6599 15.4268 12.4626 11.9982 12.4626C8.5696 12.4626 5.7669 9.6599 5.7669 6.2313C5.7669 2.80271 8.5696 0 11.9982 0Z" fill="#54C8ED"/>
<path d="M1.30422 17.4422C1.4675 17.034 1.68515 16.653 1.93005 16.2993C3.18177 14.4489 5.1137 13.2244 7.29057 12.9251C7.56266 12.8979 7.86198 12.9523 8.07969 13.1156C9.22255 13.9591 10.5831 14.3945 11.9981 14.3945C13.4131 14.3945 14.7736 13.9591 15.9165 13.1156C16.1342 12.9523 16.4335 12.8707 16.7056 12.9251C18.8824 13.2244 20.8416 14.4489 22.0661 16.2993C22.311 16.653 22.5287 17.0612 22.6919 17.4422C22.7735 17.6054 22.7464 17.7959 22.6647 17.9592C22.447 18.3401 22.1749 18.7211 21.9301 19.0476C21.5491 19.5647 21.1409 20.0272 20.6783 20.4626C20.2974 20.8435 19.862 21.1973 19.4266 21.551C17.277 23.1565 14.6919 24 12.0253 24C9.35859 24 6.77354 23.1564 4.62391 21.551C4.18854 21.2245 3.75318 20.8435 3.37219 20.4626C2.93682 20.0272 2.50146 19.5646 2.12047 19.0476C1.84838 18.6939 1.60344 18.3401 1.38578 17.9592C1.24979 17.7959 1.2226 17.6054 1.30422 17.4422Z" fill="#54C8ED"/>
</g>
<defs>
<clipPath id="clip0">
<rect width="24" height="24" fill="white" transform="matrix(-1 0 0 1 24 0)"/>
</clipPath>
</defs>
</svg>
